<svg width="262" height="230" viewBox="0 0 262 230" fill="none" xmlns="http://www.w3.org/2000/svg">
<path d="M42.7236 35.2912C43.9267 35.2912 45.1298 34.0742 46.3329 34.0742C45.1298 34.0742 43.9267 34.0742 43.9267 34.0742C43.9267 35.2911 41.5205 34.0742 42.7236 35.2912C41.5205 36.5081 41.5205 35.2912 41.5205 36.5081C41.5205 36.5081 41.5205 36.5081 42.7236 35.2912Z" fill="#F1F1F1"/>
<path d="M87.2383 208.095C87.2383 208.095 86.0352 208.095 86.0352 209.312C87.2382 209.312 87.2383 210.529 88.4413 209.312C87.2383 210.529 88.4413 210.529 87.2383 208.095Z" fill="#F1F1F1"/>
<path d="M234.016 176.455C232.812 176.455 232.812 176.455 234.016 176.455C232.812 176.455 232.812 176.455 231.609 176.455C231.609 176.455 231.609 176.455 230.406 176.455C230.406 176.455 230.406 176.455 230.406 177.672C230.406 177.672 230.406 177.672 231.609 177.672C231.609 177.672 231.609 177.672 232.812 177.672C232.812 177.672 232.812 177.672 234.016 176.455Z" fill="#F1F1F1"/>
<path d="M35.5048 99.7884C34.3017 101.005 34.3017 101.005 35.5048 99.7884C34.3017 99.7884 34.3017 99.7884 35.5048 99.7884C34.3017 101.005 34.3017 99.7884 35.5048 99.7884C33.0986 101.005 33.0986 101.005 33.0986 101.005C34.3017 101.005 34.3017 102.222 35.5048 99.7884Z" fill="#F1F1F1"/>
<path d="M16.2559 167.937H17.459C17.459 167.937 17.459 167.937 17.459 166.72C17.459 166.72 17.459 166.72 16.2559 166.72C17.459 167.937 17.459 167.937 16.2559 167.937Z" fill="#F1F1F1"/>
<path d="M256.874 132.646C255.671 132.646 255.671 132.646 256.874 132.646C258.077 132.646 258.077 132.646 258.077 132.646C258.077 132.646 258.077 132.646 258.077 131.429C258.077 131.429 258.077 131.429 256.874 132.646Z" fill="#F1F1F1"/>
<path d="M21.0684 166.719C22.2715 166.719 22.2715 166.719 22.2715 166.719C22.2715 165.502 22.2715 165.502 21.0684 166.719Z" fill="#F1F1F1"/>
<path d="M55.958 205.661C55.958 204.444 57.1611 204.444 58.3642 204.444C55.958 203.227 55.958 203.227 55.958 205.661Z" fill="#F1F1F1"/>
<path d="M52.3482 31.6403C53.5513 30.4233 53.5513 30.4233 52.3482 30.4233V31.6403Z" fill="#F1F1F1"/>
<path d="M47.5361 111.958C47.5361 110.741 47.5361 110.741 47.5361 111.958C46.333 110.741 46.333 111.958 47.5361 111.958C46.333 111.958 46.333 111.958 47.5361 111.958Z" fill="#F1F1F1"/>
<path d="M52.3482 109.524C51.1451 109.524 52.3482 108.307 52.3482 109.524V109.524Z" fill="#F1F1F1"/>
<path d="M200.329 42.5928C201.532 42.5928 201.532 42.5928 200.329 42.5928C199.126 42.5928 199.126 42.5928 197.923 42.5928C199.126 43.8097 200.329 42.5928 200.329 42.5928Z" fill="#F1F1F1"/>
<path d="M77.6133 200.794C78.8164 200.794 78.8164 200.794 80.0195 199.577C78.8164 199.577 77.6133 199.577 77.6133 200.794Z" fill="#F1F1F1"/>
<path d="M260.483 111.958C261.686 111.958 261.686 111.958 261.686 110.741C261.686 111.958 260.483 111.958 260.483 111.958Z" fill="#F1F1F1"/>
<path d="M250.858 153.333C250.858 154.55 250.858 154.55 250.858 153.333C250.858 154.55 250.858 154.55 250.858 154.55C252.061 154.55 252.061 154.55 250.858 153.333C252.061 154.55 252.061 154.55 250.858 153.333Z" fill="#F1F1F1"/>
<path d="M191.907 40.1587C190.704 40.1587 190.704 41.3756 191.907 40.1587C191.907 41.3756 191.907 42.5926 191.907 40.1587C191.907 41.3756 191.907 41.3756 191.907 40.1587Z" fill="#F1F1F1"/>
<path d="M28.2861 166.719C29.4892 165.502 29.4892 165.502 28.2861 166.719V166.719Z" fill="#F1F1F1"/>
<path d="M205.141 62.0635C206.344 63.2804 206.344 63.2804 205.141 62.0635C206.344 62.0635 206.344 62.0635 205.141 62.0635Z" fill="#F1F1F1"/>
<path d="M117.315 223.916C116.112 223.916 116.112 223.916 116.112 223.916C116.112 223.916 117.315 223.916 117.315 223.916C118.518 225.132 118.518 223.916 117.315 223.916Z" fill="#F1F1F1"/>
<path d="M123.331 223.916C123.331 225.132 123.331 225.132 123.331 223.916C123.331 225.132 124.534 223.916 123.331 223.916Z" fill="#F1F1F1"/>
<path d="M60.7695 202.011C59.5664 202.011 59.5664 202.011 59.5664 203.228C60.7695 203.228 60.7695 203.228 60.7695 202.011Z" fill="#F1F1F1"/>
<path d="M178.673 25.5558C178.673 24.3389 178.673 24.3389 178.673 24.3389C178.673 24.3389 177.47 24.3389 178.673 25.5558C177.47 24.3389 177.47 24.3389 178.673 25.5558Z" fill="#F1F1F1"/>
<path d="M42.7236 198.36C41.5205 199.577 41.5205 199.577 42.7236 198.36C42.7236 199.577 42.7236 199.577 42.7236 198.36Z" fill="#F1F1F1"/>
<path d="M218.375 92.4868H217.172C218.375 92.4868 218.375 93.7037 218.375 92.4868Z" fill="#F1F1F1"/>
<path d="M51.1455 193.492C51.1455 192.275 52.3486 193.492 51.1455 193.492C52.3486 192.275 52.3486 192.275 51.1455 193.492C52.3486 192.275 51.1455 192.275 51.1455 193.492Z" fill="#F1F1F1"/>
<path d="M228 182.54H229.203H230.406H231.609H232.812C232.812 182.54 234.015 182.54 234.015 181.323H232.812H231.609C230.406 181.323 230.406 181.323 229.203 181.323C229.203 182.54 228 181.323 228 182.54C228 181.323 226.797 181.323 228 182.54Z" fill="#F1F1F1"/>
<path d="M126.94 1.21693V0C125.737 0 125.737 1.21693 126.94 1.21693C125.737 1.21693 125.737 1.21693 126.94 1.21693Z" fill="#F1F1F1"/>
<path d="M241.233 139.947C241.233 139.947 242.436 141.164 242.436 139.947C242.436 141.164 242.436 139.947 241.233 139.947C242.436 139.947 242.436 139.947 241.233 139.947Z" fill="#F1F1F1"/>
<path d="M134.158 12.1695C132.955 10.9526 134.158 10.9526 134.158 12.1695C132.955 12.1695 132.955 12.1695 134.158 12.1695Z" fill="#F1F1F1"/>
<path d="M248.452 99.7882C249.655 99.7882 249.655 99.7882 248.452 99.7882C249.655 98.5713 249.655 98.5713 248.452 99.7882Z" fill="#F1F1F1"/>
<path d="M196.72 40.1587H195.517C195.517 41.3756 196.72 41.3756 196.72 40.1587C197.923 41.3756 196.72 41.3756 196.72 40.1587C197.923 41.3756 197.923 41.3756 196.72 40.1587Z" fill="#F1F1F1"/>
<path d="M49.9424 34.0738C49.9424 32.8569 49.9424 32.8569 49.9424 34.0738C48.7393 34.0738 48.7393 34.0738 49.9424 34.0738Z" fill="#F1F1F1"/>
<path d="M34.3017 137.513C33.0986 137.513 33.0986 138.73 34.3017 137.513C34.3017 138.73 34.3017 138.73 34.3017 137.513Z" fill="#F1F1F1"/>
<path d="M107.69 220.265C108.894 220.265 108.894 220.265 107.69 220.265C107.69 219.048 107.69 219.048 107.69 220.265Z" fill="#F1F1F1"/>
<path d="M217.172 91.2696C217.172 90.0527 218.375 90.0527 217.172 91.2696C217.172 90.0527 217.172 90.0527 217.172 91.2696Z" fill="#F1F1F1"/>
<path d="M13.8496 169.153C15.0527 169.153 15.0527 170.37 13.8496 169.153C15.0527 169.153 15.0527 169.153 13.8496 169.153Z" fill="#F1F1F1"/>
<path d="M202.735 42.5924C202.735 41.3755 202.735 41.3755 202.735 42.5924C201.532 41.3755 201.532 41.3755 202.735 42.5924C201.532 42.5924 201.532 42.5924 202.735 42.5924Z" fill="#F1F1F1"/>
<path d="M246.046 126.561C244.843 125.344 244.843 126.561 246.046 126.561C244.843 126.561 244.843 126.561 246.046 126.561Z" fill="#F1F1F1"/>
<path d="M190.704 35.2912C190.704 34.0742 191.907 34.0742 190.704 34.0742C190.704 34.0742 190.704 34.0742 190.704 35.2912C190.704 34.0742 190.704 34.0742 190.704 35.2912Z" fill="#F1F1F1"/>
<path d="M249.655 155.767C250.858 155.767 250.858 155.767 249.655 155.767C249.655 154.55 249.655 154.55 249.655 155.767C249.655 156.984 249.655 156.984 249.655 155.767Z" fill="#F1F1F1"/>
<path d="M16.2558 66.9312C15.0527 66.9312 15.0527 68.1481 16.2558 66.9312V66.9312Z" fill="#F1F1F1"/>
<path d="M40.3169 105.873C41.52 105.873 41.52 105.873 41.52 104.656C41.52 104.656 41.52 105.873 40.3169 105.873Z" fill="#F1F1F1"/>
<path d="M41.5205 101.005C42.7236 101.005 42.7236 101.005 41.5205 101.005C42.7236 99.7885 42.7236 99.7885 41.5205 101.005Z" fill="#F1F1F1"/>
<path d="M49.9422 203.228C48.7391 203.228 48.7391 204.444 48.7391 204.444C47.536 204.444 47.536 204.444 46.3329 205.661C47.536 205.661 47.536 204.444 48.7391 204.444C49.9422 204.444 49.9422 204.444 49.9422 203.228C49.9422 204.444 49.9422 204.444 49.9422 203.228C51.1453 204.444 51.1453 204.444 49.9422 203.228Z" fill="#F1F1F1"/>
<path d="M61.9727 204.444C63.1757 204.444 63.1757 204.444 61.9727 204.444C61.9727 203.228 61.9727 203.228 61.9727 204.444Z" fill="#F1F1F1"/>
<path d="M244.843 159.418C243.64 159.418 243.64 159.418 244.843 159.418C243.64 159.418 243.64 159.418 243.64 160.635C243.64 160.635 243.64 160.635 243.64 161.852C243.64 161.852 243.64 161.852 244.843 161.852C244.843 160.635 244.843 160.635 244.843 159.418C244.843 160.635 244.843 160.635 244.843 159.418Z" fill="#F1F1F1"/>
<path d="M191.907 41.3758H193.11C193.11 40.1589 193.11 41.3758 191.907 41.3758Z" fill="#F1F1F1"/>
<path d="M31.8955 138.73C33.0986 138.73 33.0986 139.947 31.8955 138.73V138.73Z" fill="#F1F1F1"/>
<path d="M199.126 40.1588C200.329 40.1588 200.329 41.3758 199.126 40.1588C200.329 40.1588 200.329 40.1588 201.532 38.9419C201.532 40.1588 200.329 40.1588 199.126 40.1588C200.329 40.1588 200.329 40.1588 199.126 40.1588C199.126 41.3758 199.126 41.3758 199.126 40.1588Z" fill="#F1F1F1"/>
<path d="M17.4585 166.72C16.2554 167.937 17.4585 167.937 17.4585 166.72V166.72Z" fill="#F1F1F1"/>
<path d="M166.643 17.0371C165.439 18.254 165.439 18.254 166.643 17.0371V17.0371Z" fill="#F1F1F1"/>
<path d="M172.657 18.2539C172.657 19.4708 172.657 19.4708 172.657 18.2539C173.86 18.2539 173.86 18.2539 172.657 18.2539Z" fill="#F1F1F1"/>
<path d="M23.4736 74.2328H24.6767C24.6767 73.0158 24.6767 74.2328 23.4736 74.2328Z" fill="#F1F1F1"/>
<path d="M136.564 10.9524C137.768 10.9524 137.768 10.9524 137.768 10.9524C137.768 10.9524 137.768 10.9524 138.971 10.9524C138.971 10.9524 138.971 10.9524 140.174 10.9524C141.377 10.9524 141.377 10.9524 142.58 9.73549C142.58 9.73549 142.58 9.73549 143.783 8.51855C142.58 8.51855 142.58 8.51855 141.377 9.73549H140.174C137.768 9.73549 137.768 9.73549 136.564 10.9524C136.564 9.73549 136.564 9.73549 136.564 10.9524Z" fill="#F1F1F1"/>
<path d="M15.0527 165.503C13.8496 164.286 15.0527 164.286 15.0527 165.503C16.2558 165.503 16.2558 165.503 16.2558 165.503H15.0527Z" fill="#F1F1F1"/>
<path d="M234.016 169.153C234.016 170.37 235.219 169.153 234.016 169.153C235.219 169.153 235.219 169.153 234.016 169.153Z" fill="#F1F1F1"/>
<path d="M28.2861 148.466C28.2861 149.683 28.2861 149.683 28.2861 148.466C29.4892 149.683 29.4892 149.683 28.2861 148.466C29.4892 148.466 29.4892 148.466 28.2861 148.466Z" fill="#F1F1F1"/>
<path d="M42.7232 104.656C42.7232 104.656 41.5201 105.873 42.7232 105.873C42.7232 104.656 42.7232 104.656 42.7232 104.656Z" fill="#F1F1F1"/>
<path d="M197.922 41.3756C197.922 40.1587 199.125 40.1587 197.922 41.3756C197.922 40.1587 197.922 40.1587 197.922 41.3756C197.922 40.1587 196.719 40.1587 197.922 41.3756Z" fill="#F1F1F1"/>
<path d="M24.6767 165.503C23.4736 165.503 23.4736 165.503 23.4736 165.503C23.4736 166.719 23.4736 165.503 24.6767 165.503C25.8798 165.503 25.8798 165.503 24.6767 165.503C25.8798 164.286 24.6767 164.286 24.6767 165.503Z" fill="#F1F1F1"/>
<path d="M206.344 73.0157C206.344 71.7988 206.344 71.7988 206.344 73.0157C205.141 71.7988 206.344 71.7988 206.344 73.0157Z" fill="#F1F1F1"/>
<path d="M253.265 136.296C253.265 135.08 253.265 135.08 253.265 136.296C252.062 135.08 253.265 135.08 253.265 136.296Z" fill="#F1F1F1"/>
<path d="M25.8799 166.719C27.083 166.719 27.083 166.719 25.8799 166.719C27.083 165.502 27.083 165.502 25.8799 166.719Z" fill="#F1F1F1"/>
<path d="M27.083 164.286C25.8799 164.286 25.8799 164.286 25.8799 165.503C25.8799 165.503 27.083 165.503 27.083 164.286Z" fill="#F1F1F1"/>
<path d="M252.062 103.439C252.062 104.656 252.062 104.656 252.062 103.439C253.265 103.439 253.265 104.656 252.062 103.439Z" fill="#F1F1F1"/>
<path d="M45.1299 175.238C43.9268 174.021 45.1299 174.021 45.1299 175.238V175.238Z" fill="#F1F1F1"/>
<path d="M260.483 105.873C259.28 105.873 258.077 107.09 258.077 107.09C258.077 107.09 256.874 107.09 256.874 108.307C256.874 108.307 256.874 108.307 258.077 108.307C259.28 107.09 259.28 107.09 260.483 105.873C261.686 105.873 261.686 105.873 260.483 105.873C261.686 105.873 261.686 104.656 260.483 105.873Z" fill="#F1F1F1"/>
<path d="M11.4433 160.635C10.2402 160.635 10.2402 160.635 11.4433 160.635C10.2402 161.852 11.4433 161.852 11.4433 160.635C11.4433 161.852 11.4433 161.852 11.4433 160.635Z" fill="#F1F1F1"/>
<path d="M10.2401 161.852C9.03704 161.852 9.03704 161.852 9.03704 163.069C9.03704 163.069 9.03704 163.069 7.83395 163.069V164.286C7.83395 164.286 7.83395 164.286 6.63086 164.286C7.83395 164.286 6.63086 165.503 6.63086 166.72C7.83395 166.72 7.83395 165.503 7.83395 165.503C9.03704 163.069 9.03704 161.852 10.2401 161.852Z" fill="#F1F1F1"/>
<path d="M33.0986 167.936C34.3017 166.719 34.3017 167.936 33.0986 167.936V167.936Z" fill="#F1F1F1"/>
<path d="M49.9424 34.0738C51.1455 32.8569 51.1455 32.8569 49.9424 34.0738C49.9424 32.8569 51.1455 32.8569 49.9424 34.0738Z" fill="#F1F1F1"/>
<path d="M128.144 6.08457C126.94 4.86764 126.94 4.86764 128.144 6.08457C126.94 6.08457 126.94 6.08457 128.144 6.08457Z" fill="#F1F1F1"/>
<path d="M242.436 97.3545C241.233 97.3545 241.233 97.3545 242.436 97.3545C241.233 97.3545 241.233 98.5714 242.436 97.3545Z" fill="#F1F1F1"/>
<path d="M218.375 94.9205C217.172 93.7036 217.172 93.7036 218.375 94.9205C217.172 94.9205 217.172 94.9205 218.375 94.9205Z" fill="#F1F1F1"/>
<path d="M55.958 212.963C57.1611 212.963 57.1611 212.963 57.1611 212.963C57.1611 211.746 57.1611 211.746 55.958 212.963Z" fill="#F1F1F1"/>
<path d="M53.5518 178.889C53.5518 177.672 54.7549 177.672 53.5518 178.889V178.889Z" fill="#F1F1F1"/>
<path d="M129.347 14.6031C129.347 13.3862 130.55 13.3862 129.347 14.6031C129.347 13.3862 129.347 13.3862 129.347 14.6031Z" fill="#F1F1F1"/>
<path d="M135.361 9.73545C136.564 9.73545 136.564 9.73545 136.564 9.73545C136.564 8.51852 136.564 8.51852 135.361 9.73545Z" fill="#F1F1F1"/>
<path d="M49.9419 105.873C48.7388 107.09 49.9419 107.09 49.9419 105.873C49.9419 107.09 49.9419 107.09 49.9419 105.873Z" fill="#F1F1F1"/>
<path d="M246.046 102.222H247.25H248.453C248.453 102.222 248.453 102.222 249.656 102.222C249.656 102.222 249.656 102.222 250.859 102.222H252.062C252.062 102.222 252.062 102.222 252.062 101.005C252.062 101.005 252.062 101.005 250.859 101.005C250.859 101.005 250.859 101.005 250.859 102.222H249.656H248.453C247.25 101.005 246.046 101.005 246.046 102.222Z" fill="#F1F1F1"/>
<path d="M219.578 87.6192C218.375 86.4023 218.375 86.4023 219.578 87.6192C218.375 87.6192 218.375 87.6192 219.578 87.6192Z" fill="#F1F1F1"/>
<path d="M19.8652 166.72C19.8652 167.937 19.8652 167.937 19.8652 166.72C19.8652 167.937 21.0683 167.937 19.8652 166.72C21.0683 166.72 21.0683 166.72 19.8652 166.72Z" fill="#F1F1F1"/>
<path d="M27.083 166.72C25.8799 166.72 25.8799 166.72 25.8799 167.937C25.8799 167.937 25.8799 167.937 25.8799 169.154C25.8799 169.154 25.8799 169.154 25.8799 170.371C25.8799 170.371 25.8799 170.371 25.8799 171.587C25.8799 171.587 25.8799 171.587 27.083 171.587C27.083 171.587 27.083 171.587 28.2861 171.587C28.2861 171.587 28.2861 171.587 29.4892 170.371C29.4892 170.371 29.4892 170.371 30.6923 170.371C27.083 167.937 27.083 167.937 27.083 166.72C28.2861 167.937 28.2861 167.937 27.083 166.72C28.2861 166.72 28.2861 166.72 27.083 166.72Z" fill="#F1F1F1"/>
<path d="M248.452 124.127C248.452 122.91 248.452 122.91 248.452 124.127C247.249 124.127 247.249 124.127 248.452 124.127Z" fill="#F1F1F1"/>
<path d="M12.6465 166.719C11.4434 165.502 12.6465 165.502 12.6465 166.719C11.4434 166.719 11.4434 166.719 12.6465 166.719Z" fill="#F1F1F1"/>
<path d="M59.5667 209.312C60.7698 208.095 60.7698 208.095 60.7698 208.095H59.5667C59.5667 208.095 59.5667 208.095 58.3636 208.095V209.312C57.1605 209.312 58.3636 208.095 59.5667 209.312C58.3636 209.312 58.3636 209.312 59.5667 209.312Z" fill="#F1F1F1"/>
<path d="M167.846 12.1694H166.643C166.643 13.3864 166.643 13.3864 167.846 12.1694C166.643 13.3864 166.643 13.3864 166.643 14.6033C166.643 14.6033 166.643 14.6033 167.846 12.1694C167.846 13.3864 166.643 13.3864 167.846 12.1694C169.049 12.1694 169.049 12.1694 167.846 12.1694Z" fill="#F1F1F1"/>
<path d="M164.236 7.30176C163.033 7.30176 163.033 7.30176 164.236 7.30176C163.033 8.51869 163.033 8.51869 164.236 7.30176C163.033 8.51869 163.033 7.30176 164.236 7.30176Z" fill="#F1F1F1"/>
<path d="M207.547 66.9312C207.547 68.1481 207.547 68.1481 207.547 66.9312C207.547 68.1481 208.75 68.1481 207.547 66.9312C208.75 68.1481 208.75 66.9312 207.547 66.9312Z" fill="#F1F1F1"/>
<path d="M60.7695 202.01C61.9726 202.01 61.9726 202.01 60.7695 202.01C61.9726 202.01 61.9726 202.01 61.9726 200.793C61.9726 200.793 61.9726 200.793 60.7695 202.01Z" fill="#F1F1F1"/>
<path d="M29.4892 163.069C28.2861 161.852 29.4892 161.852 29.4892 163.069C28.2861 161.852 28.2861 163.069 29.4892 163.069Z" fill="#F1F1F1"/>
<path d="M27.083 131.429C27.083 130.212 28.2861 130.212 27.083 131.429C27.083 130.212 27.083 130.212 27.083 131.429Z" fill="#F1F1F1"/>
<g clip-path="url(#clip0_448_2181)">
<path d="M146.709 111.886C144.724 112.01 143.049 110.025 143.484 107.73C144.228 103.884 147.516 101.465 151.486 101.961C159.24 102.892 164.016 110.522 161.287 117.841C158.743 124.727 153.471 128.449 146.461 129.503C137.218 130.868 129.03 128.139 122.021 122.059C118.671 119.144 116.128 115.546 114.329 111.452C112.778 107.978 111.351 104.442 111.103 100.597C110.979 98.4254 109.676 97.1227 107.939 96.0682C107.505 95.8201 107.009 95.4479 106.823 95.0137C105.272 91.6639 103.969 88.1902 102.295 84.9025C100.868 82.049 100.558 79.1335 100.496 76.094C100.434 71.6897 100.558 67.2234 100.434 62.8192C100.372 61.3304 101.054 60.7101 102.295 60.3379C108.312 58.663 114.329 58.2288 120.408 60.462C121.09 60.7101 122.021 60.7101 122.765 60.462C128.906 58.4149 135.109 58.539 141.313 60.1518C142.863 60.586 143.484 61.3304 143.422 63.0673C143.298 68.1539 143.36 73.3025 143.36 78.3891C143.36 83.6618 141.995 88.6244 139.638 93.2768C138.149 96.1923 135.978 98.5495 133.062 100.224C132.566 100.534 131.884 101.155 131.822 101.651C131.76 105.559 131.511 109.467 133.372 113.189C136.722 119.702 144.6 122.432 151.176 119.33C155.394 117.283 157.255 112.134 154.649 108.599C153.781 107.358 151.92 106.49 150.369 106.179C148.88 105.869 147.392 107.048 146.895 108.599C146.647 109.591 146.771 110.77 146.709 111.886ZM124.812 80.4982C130.209 82.3592 139.7 76.094 138.831 68.5261C132.318 68.0298 124.998 74.233 124.812 80.4982ZM103.039 69.4566C103.969 75.9699 111.227 80.4982 118.051 80.5603C117.678 75.6597 114.577 71.4416 110.731 70.6972C108.188 70.263 105.706 69.8908 103.039 69.4566ZM117.616 71.4416C117.492 67.8437 113.894 65.2384 108.374 64.3079C104.962 63.7496 103.721 64.1218 102.977 65.9828C103.225 66.0448 103.535 66.1689 103.783 66.1689C108.436 65.9828 112.468 67.0994 115.569 70.8213C115.879 71.2555 116.748 71.2555 117.616 71.4416ZM118.733 61.7646C116.624 63.6876 116.314 64.8662 117.43 66.2929C118.981 68.278 122.703 68.7122 124.998 67.1614C126.611 66.0448 126.673 64.3079 125.37 62.1988C124.688 63.4395 123.882 64.8042 123.013 66.2309C122.579 64.6801 122.331 63.6256 122.021 62.571C121.71 62.571 121.4 62.571 121.09 62.571C120.842 63.6876 120.532 64.8042 120.284 65.8587C118.485 64.9903 118.113 64.3079 118.733 61.7646ZM138.893 64.494C134.613 64.432 130.705 65.7347 126.983 67.7197C125.929 68.278 124.998 69.2084 124.254 70.1389C123.882 70.5731 124.13 71.4416 124.068 72.1239C124.812 71.8758 125.681 71.7517 126.239 71.3175C127.355 70.5731 128.162 69.3325 129.34 68.7742C132.504 67.2234 135.73 65.9208 138.893 64.494ZM134.985 94.4554C134.241 93.4008 133.559 92.4083 132.876 91.3538C131.449 93.0286 130.209 94.5174 128.782 96.1923C130.209 99.0457 131.015 99.1698 133.434 96.4404C133.993 95.8821 134.427 95.1997 134.985 94.4554ZM128.968 114.43C126.983 115.732 125.246 116.787 123.571 117.965C123.199 118.214 122.827 118.958 122.951 119.33C123.075 119.764 123.882 120.323 124.192 120.261C126.673 119.454 129.03 118.524 130.767 116.166C130.085 115.608 129.526 115.05 128.968 114.43ZM116.314 101.713C119.477 101.713 122.455 101.775 125.494 101.651C125.867 101.651 126.239 100.969 126.673 100.597C126.301 100.224 125.867 99.604 125.494 99.604C122.455 99.542 119.415 99.542 116.314 99.542C116.314 100.348 116.314 100.969 116.314 101.713ZM126.487 108.475C123.82 108.723 121.152 109.033 118.547 109.281C118.547 110.149 118.547 110.956 118.547 111.824C123.199 111.7 126.611 110.894 126.487 108.475ZM124.316 95.4479C121.959 95.4479 119.725 95.3858 117.492 95.5099C117.058 95.5099 116.624 96.0682 116.19 96.3784C116.624 96.7505 116.996 97.4329 117.492 97.4329C119.353 97.557 121.214 97.4329 123.013 97.4949C124.378 97.557 124.688 96.9366 124.316 95.4479ZM116.252 104.008C117.244 105.993 121.4 106.427 126.797 105.497C125.929 104.815 125.37 104.132 124.812 104.07C122.083 103.946 119.291 104.008 116.252 104.008ZM133.559 119.702C132.938 118.896 132.442 118.214 131.884 117.469C130.209 119.268 128.782 120.757 127.293 122.308C129.899 122.618 131.946 121.749 133.559 119.702ZM116.314 91.2917C117.678 93.4629 122.827 94.0832 124.192 92.4703C124.316 92.2843 124.44 91.85 124.378 91.788C124.068 91.5399 123.695 91.3538 123.385 91.3538C121.09 91.2297 118.857 91.2917 116.314 91.2917ZM132.938 127.022C134.675 125.347 136.412 123.734 138.273 121.935C137.405 121.439 136.846 121.067 136.288 120.757C132.07 125.595 132.07 125.595 132.938 127.022ZM126.611 112.072C124.192 112.817 121.959 113.561 119.601 114.306C121.4 116.911 123.075 114.926 124.626 114.492C125.494 114.181 127.169 114.243 126.611 112.072ZM141.313 126.712C141.313 125.595 141.437 124.727 141.25 123.858C141.188 123.362 140.754 122.68 140.444 122.618C140.01 122.556 139.327 123.052 139.141 123.424C138.769 124.417 138.583 125.471 138.273 126.712C139.327 126.712 140.196 126.712 141.313 126.712Z" fill="#E52B50"/>
<path d="M113.647 150.78C113.461 153.323 113.027 155.556 113.213 157.79C113.399 160.581 115.012 162.442 117.803 163.248C118.485 163.434 119.168 163.993 119.602 164.613C120.657 166.164 122.269 166.97 123.882 166.474C124.937 166.164 125.681 164.737 126.55 163.745C127.046 163.186 127.356 162.38 127.914 161.884C130.333 159.65 131.14 156.859 130.83 153.633C130.706 152.393 130.396 151.214 130.147 149.787C135.978 146.003 138.522 140.11 139.328 133.287C140.631 133.287 141.809 133.287 143.484 133.287C143.112 136.761 142.926 140.235 142.43 143.646C141.189 151.71 137.901 158.968 132.753 165.295C131.016 167.466 128.845 169.451 126.487 171.002C119.912 175.407 112.778 177.826 104.652 176.895C99.6277 176.337 94.7893 175.593 90.5711 172.677C86.1048 169.576 83.2514 165.419 83.9957 159.775C84.554 155.68 85.6706 151.71 86.7251 147.74C86.9112 147.058 87.7797 146.562 88.4 146.065C90.6331 144.391 93.1144 142.964 95.1615 141.041C99.8759 136.637 100.496 131.116 98.8213 125.223C98.139 122.866 98.5112 120.943 99.5657 118.647C101.179 119.33 102.791 119.95 104.466 120.632C102.357 126.401 101.861 132.108 102.729 137.939C103.412 142.654 106.017 146.19 110.049 148.733C111.228 149.477 112.592 150.16 113.647 150.78Z" fill="#E52B50"/>
<path d="M157.689 132.667C157.255 131.612 156.697 130.31 156.077 128.945C161.349 125.657 163.52 120.757 164.141 114.926C164.761 109.033 161.473 102.643 155.952 100.41C151.362 98.5493 144.415 99.5418 141.127 104.628C139.638 106.924 140.134 110.583 142.243 113.313C143.546 115.05 146.089 115.794 148.198 115.112C149.997 114.491 150.432 113.623 149.439 112.01C148.571 110.645 148.198 109.467 149.935 108.598C151.238 107.916 152.541 108.722 153.223 110.397C154.526 113.747 152.293 117.221 148.261 117.841C139.266 119.206 132.815 112.506 134.055 103.326C134.117 102.829 134.676 102.333 135.11 101.961C139.762 98.3012 142.988 93.7108 144.725 88.0659C144.973 87.3215 145.407 86.4531 146.027 86.1429C149.129 84.344 150.308 82.297 149.687 78.6991C149.377 76.8382 148.633 74.9772 147.95 73.1783C147.33 71.5655 145.779 70.0767 147.02 68.2158C148.012 66.727 151.672 65.8586 153.719 66.6029C154.712 66.9751 155.704 67.5334 156.573 68.2158C159.488 70.3869 162.404 72.682 165.195 74.9772C165.691 75.4114 166.064 76.4039 166.002 76.9622C164.947 82.421 161.721 86.4531 156.945 89.1825C154.774 90.4231 152.417 91.2295 150.308 92.4702C148.881 93.3386 147.764 94.7033 146.462 95.8819C146.586 96.068 146.71 96.2541 146.834 96.4402C147.206 96.5022 147.578 96.6263 147.95 96.6263C158.496 96.13 167.676 105.125 168.359 115.422C168.483 117.221 169.786 119.02 170.84 120.695C171.833 122.245 173.383 121.873 174.438 120.819C176.175 119.02 177.602 116.911 179.4 114.678C182.812 115.422 186.782 115.856 190.752 114.802C191.186 114.678 192.179 115.546 192.365 116.166C194.35 121.005 193.482 125.533 190.628 129.875C188.457 133.163 185.418 135.272 182.13 137.195C179.711 138.622 179.649 139.056 181.013 141.537C181.323 142.096 181.634 142.654 182.068 143.336C179.152 143.274 177.415 141.475 176.919 138.56C176.547 136.451 176.237 134.28 175.43 132.357C172.949 126.836 168.545 125.533 163.396 128.2C161.349 129.193 159.736 130.992 157.689 132.667Z" fill="#E52B50"/>
<path d="M79.5289 158.472C79.5909 163.373 80.2733 167.901 83.561 172.057C81.0797 171.623 79.0947 171.189 76.9856 171.003C72.1471 170.444 67.4947 171.127 63.2145 173.732C61.5397 174.787 60.175 176.213 59.9889 178.26C59.9269 178.819 60.175 179.873 60.4851 179.935C61.1055 180.121 61.9119 179.873 62.4702 179.563C63.2766 179.067 63.8969 178.322 64.5792 177.64C68.6733 173.67 73.5118 173.422 78.6605 174.911C86.6005 177.206 93.5481 181.362 100.31 185.952C100.868 186.324 101.302 187.441 101.178 188.123C100.62 191.473 99.8753 194.761 99.193 198.048C98.8828 199.599 98.0764 200.344 96.4015 200.53C88.8337 201.212 81.2038 201.894 73.7599 199.909C66.7504 198.048 60.6712 194.575 57.2595 187.751C53.9718 181.238 55.2745 175.159 59.4306 169.514C64.4552 163.063 71.4027 159.961 79.5289 158.472Z" fill="#E52B50"/>
<path d="M185.417 160.767C184.611 166.412 183.308 170.692 180.579 174.476C176.609 180.121 171.708 184.898 165.691 188.309C164.885 188.806 163.52 189.054 162.714 188.682C158.806 187.069 154.96 185.208 151.052 183.409C149.997 182.913 149.687 182.044 149.997 180.804C152.23 172.057 155.208 163.683 160.605 156.301C163.83 151.959 167.924 149.105 173.197 147.989C176.237 147.368 181.447 150.16 182.936 153.448C184.177 156.115 184.859 158.906 185.417 160.767Z" fill="#E52B50"/>
<path d="M156.573 138.622C157.752 137.195 158.744 135.52 160.109 134.403C161.97 132.915 164.079 131.612 166.25 130.682C168.793 129.627 170.592 130.433 171.957 132.853C172.639 134.093 173.012 135.52 173.446 136.637C170.53 136.513 167.739 136.078 165.009 136.264C158.744 136.761 153.658 144.949 156.263 150.594C157.069 152.331 157.007 154.13 156.015 155.928C152.293 162.566 148.943 169.327 147.516 176.895C147.082 179.066 146.772 181.237 146.648 183.471C146.586 184.897 146.4 185.952 145.035 186.758C143.298 187.813 141.748 189.053 139.762 189.86C140.011 189.426 140.383 188.991 140.569 188.557C141.127 187.006 141.996 185.518 142.182 183.967C142.554 180.059 139.825 178.26 136.351 179.935C131.698 182.168 126.798 183.595 121.649 183.905C116.501 184.215 111.29 184.277 106.203 183.905C103.474 183.657 100.807 182.23 98.0771 181.299C98.1392 181.051 98.2012 180.865 98.2632 180.617C100.62 180.741 102.978 180.741 105.273 181.051C116.066 182.54 124.999 178.88 132.567 171.312C139.328 164.551 142.988 156.177 144.911 146.996C145.718 143.212 145.966 139.366 146.338 135.52C146.462 133.969 146.772 132.853 148.633 132.791C149.253 132.791 149.812 132.48 150.432 132.294C153.161 131.488 153.596 131.674 154.65 134.403C155.146 135.582 155.457 136.823 155.891 138.063C156.139 138.187 156.387 138.435 156.573 138.622Z" fill="#E52B50"/>
<path d="M57.3838 137.319C50.8085 134.9 48.5133 129.813 48.3272 123.486C48.2652 120.199 48.6374 116.911 48.8235 113.623C48.8855 112.445 49.5678 112.01 50.7464 112.072C54.3443 112.134 58.0042 111.7 61.4779 112.258C63.4009 112.569 65.1998 114.305 66.8747 115.67C68.0533 116.663 68.8597 118.089 69.8522 119.268C72.2094 115.05 74.2565 110.77 76.8618 106.8C79.4051 102.892 82.6308 99.4799 86.911 96.6885C89.02 103.512 92.4318 109.343 96.6499 114.864C95.2232 114.181 93.7965 113.437 92.3077 112.755C86.1666 109.715 80.3356 111.638 77.1099 117.655C75.187 121.253 74.3185 125.099 74.3805 129.193C74.3805 129.938 73.8223 131.178 73.2019 131.426C66.1924 134.28 61.664 139.676 57.8181 145.88C57.4459 146.438 57.0737 146.996 56.6395 147.555C54.5924 145.197 55.4609 141.289 57.3838 137.319Z" fill="#E52B50"/>
<path d="M176.051 192.714C177.167 192.341 178.346 191.845 179.524 191.597C181.261 191.225 182.564 190.542 182.936 188.557C183.122 187.627 183.556 186.696 183.991 185.89C184.239 185.394 184.921 184.649 185.231 184.773C185.79 184.96 186.286 185.518 186.596 186.076C186.906 186.759 186.968 187.503 187.092 187.937C188.519 188.123 190.194 187.875 190.876 188.619C192.613 190.418 190.752 192.093 189.884 193.954C191.124 194.078 192.179 194.14 193.233 194.326C197.39 195.071 201.36 196.435 203.159 200.53C204.275 203.011 204.337 205.926 204.833 208.656C204.895 209.152 204.523 209.772 204.585 210.269C204.709 211.447 203.221 213.122 205.516 213.68C208.059 214.301 209.672 213.556 210.106 211.199C210.54 208.904 210.478 206.547 210.975 204.251C211.533 201.646 212.215 199.041 213.146 196.56C213.828 194.761 215.317 193.52 217.302 193.21C217.674 193.148 218.108 193.334 218.604 193.83C217.798 194.202 216.681 194.326 216.185 194.947C215.255 196.125 214.386 197.49 214.076 198.855C213.332 202.515 212.711 206.174 212.463 209.896C212.091 214.673 209.796 217.03 205.019 217.03C204.399 217.03 203.779 217.03 203.159 217.03C200.553 216.844 198.258 217.03 196.335 219.325C195.405 220.442 193.295 220.814 191.683 221.062C191.124 221.186 190.318 220.07 189.636 219.511C190.194 219.077 190.752 218.581 191.31 218.147C192.055 217.588 193.295 217.154 193.42 216.534C193.544 215.727 192.737 214.797 192.241 213.99C192.117 213.742 191.807 213.618 191.621 213.494C188.891 211.385 188.891 211.261 191 208.656C189.698 206.299 189.574 206.236 187.527 207.477C185.107 208.966 182.316 208.408 180.021 206.423C178.222 204.81 176.175 203.569 174.252 202.142C173.755 201.77 173.011 200.84 173.197 200.468C173.631 199.351 174.624 199.041 175.74 199.785C177.415 200.902 179.028 202.142 180.827 202.949C181.696 203.321 183.184 203.073 184.053 202.515C185.293 201.708 185.542 200.219 184.239 199.227C182.874 198.172 181.323 197.49 179.897 196.498C178.532 195.567 177.291 194.512 175.927 193.458C175.927 193.148 175.989 192.962 176.051 192.714Z" fill="#E52B50"/>
<path d="M97.6425 98.3014C98.8211 95.1998 97.7046 93.4629 94.4169 93.3388C92.5559 93.2768 90.695 93.2148 88.834 93.3388C85.8565 93.5249 83.6234 92.2843 82.1346 89.803C79.6533 85.771 78.4127 81.3667 78.6608 76.5903C78.7849 74.4191 80.2116 73.1165 81.7624 71.9999C83.6234 70.6972 85.6084 69.5807 87.4693 68.34C88.0276 67.9678 88.3378 67.2855 88.772 66.7892C88.0896 66.4791 87.2212 65.7347 86.6629 65.8588C84.4918 66.417 82.3827 67.2235 80.3357 68.0919C78.3507 68.9603 76.4277 70.0769 74.4427 70.9454C73.2641 71.4416 71.8994 71.2555 71.5272 69.9529C71.3411 69.2705 72.0234 67.8438 72.7058 67.4716C77.6063 64.6181 82.3827 61.3304 88.3378 60.9582C91.1292 60.7722 93.6725 61.0823 95.2233 63.6876C96.8982 66.4791 96.2778 69.1464 94.727 71.8758C93.3003 74.2951 92.1837 76.9004 91.2533 79.5678C90.5089 81.7389 91.7495 83.6619 92.9902 85.957C93.2383 83.7859 93.3003 82.1111 93.6105 80.4983C93.9827 78.8234 94.603 77.2106 96.8361 76.7763C97.0222 77.5207 97.2703 78.079 97.2703 78.6993C97.0222 84.4063 99.9377 88.9966 102.667 93.649C103.287 94.6415 103.784 95.696 104.342 96.7506C105.024 97.9912 104.404 98.7976 103.349 99.2318C101.426 99.7281 99.4415 99.9142 97.6425 98.3014Z" fill="#E52B50"/>
<path d="M146.027 45.6363C142.119 45.4502 138.149 45.3882 134.179 45.078C133.311 45.016 132.442 44.2096 131.76 43.5892C128.597 40.6737 125.495 37.6342 122.331 34.6567C121.215 33.6021 120.098 33.8503 119.044 34.7807C116.376 37.3861 113.833 40.0534 111.104 42.5347C110.359 43.2171 109.367 43.7753 108.436 43.8994C104.28 44.5197 100.124 45.016 95.8438 45.5743C96.7122 42.9069 98.5111 40.7358 100.744 38.9369C103.722 36.5797 107.134 35.1529 110.979 35.0289C111.972 34.9668 113.151 34.8428 113.957 34.4085C114.639 34.0364 115.322 33.0438 115.446 32.2995C115.508 31.8652 114.577 31.1829 113.957 30.6246C113.709 30.4385 113.337 30.3765 112.965 30.3765C111.352 30.3144 110.235 29.5701 109.987 28.0193C109.739 26.2824 111.166 25.476 112.53 24.9177C113.523 24.5455 114.701 24.2974 115.756 24.2974C119.354 24.2974 122.89 24.3594 126.487 24.5455C127.48 24.6075 128.597 25.0417 129.279 25.7241C129.899 26.3444 130.52 27.523 130.333 28.3294C130.147 29.1358 129.093 29.8182 128.224 30.2524C127.48 30.6246 126.487 30.5005 125.619 30.7487C125.247 30.8727 124.626 31.369 124.626 31.6171C124.689 32.0513 125.123 32.7337 125.495 32.7957C126.425 33.0438 127.418 33.1059 128.348 33.1679C135.482 33.6642 144.104 38.8128 146.027 45.6363Z" fill="#E52B50"/>
<path d="M111.91 122.804C111.91 125.719 111.848 128.511 111.91 131.364C111.972 133.97 112.468 136.389 114.143 138.498C116.563 141.475 119.726 142.22 123.262 141.165C126.984 140.049 129.465 137.629 129.837 133.411C132.132 133.411 134.49 133.411 136.971 133.411C134.304 140.049 130.52 145.57 123.324 147.43C116.314 149.229 106.389 145.011 105.893 134.838C105.707 131.116 106.141 127.394 106.327 123.672C106.389 122.184 107.134 121.811 108.498 122.184C109.553 122.308 110.669 122.494 111.91 122.804Z" fill="#E52B50"/>
<path d="M109.615 46.3183C109.925 47.8691 110.111 49.2958 110.545 50.6605C111.724 54.3204 114.515 55.9953 118.175 56.2434C120.532 56.3675 122.889 56.3675 125.185 56.1814C129.775 55.8712 132.318 53.0798 133.559 47.2488C137.591 47.1868 141.561 47.0007 145.593 48.2413C149.129 49.3579 150.68 54.6306 148.26 57.8562C148.012 58.2284 147.144 58.4145 146.71 58.2905C138.521 55.8092 130.395 55.9953 122.269 58.2905C121.711 58.4765 121.028 58.3525 120.47 58.2284C113.709 56.4915 106.885 55.6851 100.062 57.6701C99.6275 57.7942 99.1312 57.9183 98.697 58.1044C96.1537 59.0348 94.0446 58.2905 92.7419 55.9953C91.7494 54.1964 92.4318 51.2188 94.1066 49.7921C97.0842 47.1868 100.744 46.6285 104.466 46.3183C106.079 46.1943 107.754 46.3183 109.615 46.3183ZM101.675 55.1889C104.032 55.1889 105.893 53.7001 105.893 51.9012C105.893 49.4819 104.466 47.9312 102.109 47.9312C99.3793 47.9312 97.3943 49.544 97.3943 51.7151C97.4564 53.8242 99.1932 55.2509 101.675 55.1889ZM139.762 48.4894C137.715 48.4894 135.854 49.606 135.482 51.0948C135.11 52.9557 136.474 54.8167 138.521 55.0648C140.755 55.375 143.236 53.8862 143.36 52.1493C143.422 50.1643 141.871 48.5515 139.762 48.4894Z" fill="#E52B50"/>
<path d="M168.358 92.9662C169.847 90.4229 171.088 87.7556 172.825 85.3983C176.609 80.1877 182.129 81.4903 185.665 85.4604C188.953 89.1823 190.07 93.8347 190.256 98.6731C190.256 99.2314 189.573 100.162 189.015 100.41C188.022 100.906 186.906 101.03 185.851 101.216C180.827 102.333 180.703 102.333 178.159 97.8667C176.981 95.8197 175.368 94.7651 173.073 94.517C171.646 94.3309 170.281 94.0208 168.917 93.7106C168.669 93.4625 168.482 93.2144 168.358 92.9662Z" fill="#E52B50"/>
<path d="M82.6932 150.966C77.4826 155.371 72.2099 158.224 65.5104 156.797C60.5479 155.743 58.6249 151.959 60.6099 147.306C62.3468 143.212 65.0142 139.925 69.1083 137.567C71.3414 144.329 75.3735 149.167 82.6932 150.966Z" fill="#E52B50"/>
<path d="M52.4834 100.534C53.9101 93.3385 55.523 86.577 60.7336 81.3043C62.5325 79.5054 64.5796 79.2573 66.1924 81.1182C68.3635 83.6615 71.155 86.0807 70.5346 89.9887C70.4106 90.8572 69.9764 91.9117 69.356 92.47C67.247 94.5171 64.8898 96.316 62.7807 98.363C59.8031 101.279 56.2673 100.658 52.4834 100.534Z" fill="#E52B50"/>
<path d="M78.8467 139.18C75.1248 136.575 75.8692 123.548 81.0798 118.4C81.328 120.137 81.5761 121.439 81.8863 123.238C82.8167 120.943 83.4371 118.958 84.3675 117.097C84.8638 116.104 85.8563 115.422 86.6627 114.554C86.7868 115.67 87.221 116.911 87.0349 117.965C86.7247 119.516 85.9183 120.881 85.36 122.432C85.0499 123.362 84.9258 124.355 84.7397 125.347C84.9258 125.409 85.0499 125.533 85.236 125.595C85.5461 125.223 85.9804 124.913 86.2285 124.479C87.4071 121.935 88.5237 119.33 89.7643 116.787C90.0124 116.291 90.6948 115.98 91.191 115.608C91.4391 116.291 92.1215 117.097 91.9354 117.531C91.0049 119.888 89.8263 122.122 88.7098 124.417C88.5857 124.727 88.2755 125.037 88.3376 125.347C88.3996 125.843 88.7097 126.278 88.8958 126.774C89.268 126.588 89.8263 126.464 90.0124 126.154C90.9429 124.231 91.8734 122.308 92.6798 120.385C93.3001 119.02 93.9204 117.779 95.7814 117.717C97.2701 121.129 95.5332 123.92 93.8584 126.526C92.4937 128.635 90.5087 130.186 88.2755 131.612C85.1119 133.597 82.4445 136.389 79.5911 138.808C79.2809 138.87 79.0328 138.994 78.8467 139.18Z" fill="#E52B50"/>
<path d="M154.03 202.514C152.417 205.368 150.928 208.283 149.253 211.075C148.881 211.633 148.074 212.067 147.392 212.253C146.958 212.377 146.214 212.253 145.903 211.943C145.655 211.695 145.903 210.951 146.027 210.454C146.462 209.214 146.958 208.035 147.454 206.857C147.206 206.732 147.02 206.608 146.772 206.484C146.4 206.794 145.903 207.043 145.655 207.477C145.097 208.407 144.725 209.462 144.042 210.33C143.67 210.889 142.926 211.199 142.306 211.447C142.119 211.509 141.375 210.951 141.437 210.889C141.623 210.206 141.933 209.524 142.306 208.966C142.554 208.593 143.174 208.345 143.298 207.911C143.422 207.415 143.298 206.794 143.236 206.236C142.74 206.298 142.057 206.174 141.747 206.484C141.003 207.167 140.383 208.035 139.824 208.904C139.266 209.834 138.77 210.951 137.591 210.082C137.343 209.896 137.901 208.531 138.149 207.725C138.211 207.477 138.584 207.291 138.646 207.043C138.77 206.484 138.77 205.864 138.77 205.306C138.149 205.43 137.467 205.43 137.033 205.802C136.537 206.236 136.412 207.105 135.916 207.477C135.296 207.973 134.49 208.221 133.745 208.593C133.621 207.787 133.373 206.981 133.373 206.174C133.373 205.802 133.869 205.43 133.869 205.058C133.869 204.437 133.621 203.879 133.497 203.259C133.311 203.259 133.063 203.259 132.877 203.259C132.442 204.003 131.946 204.747 131.512 205.492C131.078 206.236 130.892 207.229 130.271 207.601C129.527 208.097 128.41 208.035 127.48 208.221C127.418 207.477 127.108 206.546 127.418 206.05C129.899 201.77 133.621 198.854 138.522 198.358C143.794 197.8 148.881 199.413 154.03 202.514Z" fill="#E52B50"/>
<path d="M123.013 199.475C124.006 199.661 124.998 199.785 125.929 200.095C126.735 200.343 127.542 200.654 128.286 201.026C128.348 201.026 128.162 201.832 128.038 201.832C127.169 201.832 126.301 201.832 125.495 201.77C124.626 201.708 123.696 201.584 122.827 201.522C122.765 201.77 122.703 202.018 122.641 202.328C123.323 202.515 124.068 202.639 124.626 203.011C125.246 203.321 125.681 203.879 126.239 204.375C125.557 204.624 124.812 205.12 124.13 205.058C123.013 204.934 121.897 204.5 120.842 204.127C120.78 204.438 120.718 204.686 120.594 204.996C121.4 205.182 122.207 205.244 122.889 205.616C123.385 205.864 123.634 206.547 124.006 207.043C123.447 207.229 122.889 207.725 122.455 207.601C119.167 206.671 115.942 205.616 112.654 204.5C111.165 204.003 110.855 203.073 111.475 201.584C112.592 198.793 113.584 195.939 114.763 193.148C115.011 192.589 115.88 191.969 116.5 191.969C120.532 191.845 124.502 191.907 128.534 191.907C129.465 191.907 130.581 191.969 131.326 192.403C131.946 192.776 132.69 193.768 132.628 194.388C132.566 194.947 131.512 195.815 130.891 195.877C129.713 196.001 128.472 195.567 127.231 195.443C126.735 195.381 126.177 195.691 125.681 195.877C126.053 196.249 126.425 196.87 126.859 196.994C127.666 197.18 128.534 196.994 129.341 197.18C130.147 197.428 130.891 197.986 131.698 198.42C130.829 198.731 129.899 199.227 129.03 199.227C128.1 199.227 127.231 198.545 126.301 198.42C125.246 198.296 124.192 198.545 123.075 198.607C123.075 198.855 123.075 199.165 123.013 199.475Z" fill="#E52B50"/>
<path d="M121.525 54.3207C118.92 54.0106 115.942 54.0106 114.019 51.2812C112.407 49.048 112.22 46.7528 113.957 44.5817C115.632 42.4726 117.617 40.6737 119.54 38.8128C119.912 38.5026 120.967 38.3165 121.277 38.6267C123.758 40.6737 126.426 42.5967 128.349 45.078C131.264 48.8619 129.093 53.3282 124.317 54.0726C123.448 54.1967 122.642 54.1967 121.525 54.3207Z" fill="#E52B50"/>
<path d="M52.0487 77.5204C47.3343 77.0862 43.9846 74.9771 42.682 70.6969C41.3793 66.4167 42.0616 62.3226 44.791 58.2905C45.2873 59.283 45.6595 59.9654 46.0317 60.6477C47.2723 63.0049 49.2573 64.3076 51.9247 64.7418C53.4755 64.99 54.53 66.9129 53.4755 67.9055C50.8701 70.3247 51.1803 73.1781 51.8006 76.1557C51.8006 76.5279 51.9247 76.9001 52.0487 77.5204Z" fill="#E52B50"/>
<path d="M96.96 125.409C96.96 126.836 97.0841 127.828 96.96 128.821C96.774 130.248 95.9675 131.736 96.2777 133.039C97.3943 137.567 93.2381 140.793 89.9505 141.289C87.4072 141.661 84.6778 141.165 81.5762 141.041C83.6232 138.064 85.4221 135.893 88.1515 134.652C91.4392 133.163 93.3002 130.124 95.1611 127.208C95.4093 126.836 95.5333 126.464 95.7814 126.154C95.9675 125.967 96.1536 125.905 96.96 125.409Z" fill="#E52B50"/>
<path d="M88.8965 96.6885C91.1296 96.6885 92.9286 96.6885 94.6034 96.6885C94.1692 97.8671 93.2387 99.1077 93.4248 100.1C93.6109 101.093 94.9136 101.961 95.844 102.954C95.1617 108.04 95.1617 108.04 99.0077 109.157C100.186 113.499 101.303 114.057 106.576 113.127C107.444 115.67 109.243 117.097 111.972 117.531C112.593 117.655 112.965 119.082 113.585 120.261C108.933 120.385 105.583 118.772 102.419 116.601C97.0847 112.879 93.6729 107.73 91.0056 101.961C90.3852 100.348 89.7649 98.6735 88.8965 96.6885Z" fill="#E52B50"/>
<path d="M145.531 61.8265C146.4 61.3302 147.206 60.5238 148.137 60.3997C154.836 59.2211 160.853 60.958 166.25 64.9901C167.615 66.0446 168.731 67.4093 168.049 69.2083C167.615 70.3248 165.009 70.573 163.272 69.6425C161.66 68.774 160.109 67.7195 158.62 66.6029C155.642 64.3698 152.417 63.1291 148.695 63.0671C147.702 63.0671 146.772 62.757 145.779 62.6329C145.655 62.3848 145.593 62.1366 145.531 61.8265Z" fill="#E52B50"/>
<path d="M116.004 124.603C119.416 127.084 122.703 129.503 125.929 131.984C126.239 132.232 126.487 132.915 126.425 133.287C125.991 135.954 123.572 138.063 120.842 138.312C118.423 138.498 116.562 137.071 115.632 134.217C114.577 130.806 115.322 127.58 116.004 124.603Z" fill="#E52B50"/>
<path d="M120.966 22.1262C118.857 22.0021 117.244 22.1882 115.756 21.816C114.825 21.5679 113.709 20.5754 113.398 19.7069C113.15 19.0866 113.895 17.6599 114.577 17.2257C116.314 15.985 118.175 14.8685 120.098 14.1241C122.455 13.3177 127.728 17.5979 127.48 20.0171C127.418 20.6374 126.487 21.5679 125.805 21.6919C124.068 22.0641 122.269 22.0641 120.966 22.1262Z" fill="#E52B50"/>
<path d="M122.393 150.904C123.2 150.904 124.13 150.718 124.875 150.966C125.619 151.214 126.612 151.71 126.922 152.393C128.473 155.494 127.728 158.162 124.999 160.395C124.689 160.643 124.689 161.263 124.378 161.635C123.758 162.318 123.076 163.434 122.455 163.372C121.525 163.31 120.657 162.504 119.85 161.884C119.23 161.387 118.796 160.581 118.175 160.085C116.562 158.968 115.942 156.797 116.625 154.316C117.183 152.393 118.051 150.842 120.408 150.966C121.029 150.966 121.711 150.904 122.393 150.904ZM121.215 158.224C123.262 157.913 124.689 156.673 124.689 155.308C124.689 153.695 123.572 153.261 122.207 153.137C120.595 153.013 118.982 154.254 119.292 155.556C119.54 156.549 120.532 157.355 121.215 158.224Z" fill="#E52B50"/>
<path d="M172.453 143.522C167.305 144.143 163.086 146.562 159.303 149.725C157.069 146.996 159.24 142.716 161.846 140.545C162.9 139.676 164.203 139.118 165.506 138.746C169.166 137.815 171.647 139.552 172.453 143.522Z" fill="#E52B50"/>
<path d="M144.725 193.086C146.151 191.287 147.454 189.612 148.819 187.875C152.789 189.798 156.821 191.659 160.853 193.582C160.977 193.892 161.163 194.14 161.287 194.45C160.046 195.443 158.868 196.435 157.565 197.366C157.131 197.676 156.387 197.738 155.952 197.552C152.23 196.125 148.509 194.636 144.725 193.086ZM151.796 191.597C150.866 191.101 150.307 190.542 149.749 190.604C149.315 190.604 148.943 191.287 148.509 191.659C148.943 192.093 149.439 192.776 149.873 192.838C150.369 192.838 150.928 192.155 151.796 191.597ZM155.58 193.458C154.712 192.838 154.215 192.155 153.905 192.279C153.409 192.403 153.037 193.086 152.603 193.52C153.037 193.83 153.471 194.388 153.905 194.45C154.277 194.45 154.774 193.954 155.58 193.458ZM157.193 193.52C156.573 194.326 155.952 194.761 156.014 195.133C156.076 195.567 156.697 195.939 157.069 196.311C157.441 195.939 158.061 195.567 158.123 195.133C158.185 194.761 157.627 194.264 157.193 193.52Z" fill="#E52B50"/>
<path d="M110.979 189.736C109.18 194.698 107.505 199.413 105.83 204.127C102.108 202.763 102.17 202.39 103.659 199.103C104.776 196.435 105.148 193.458 105.706 190.604C105.892 189.798 105.706 188.992 105.706 187.813C107.567 188.433 109.118 188.992 110.979 189.736ZM108.436 190.418C108.063 190.48 107.691 190.48 107.257 190.542C107.319 191.411 107.381 192.279 107.381 193.086C107.877 192.962 108.746 192.838 108.746 192.713C108.808 191.969 108.56 191.163 108.436 190.418Z" fill="#E52B50"/>
<path d="M48.3896 105.187C53.166 105.187 57.8184 105.187 62.5328 105.187C63.2152 107.854 62.7809 108.536 59.8654 108.66C57.074 108.784 54.2205 108.784 51.4291 108.66C48.2655 108.536 48.1414 108.35 48.3896 105.187Z" fill="#E52B50"/>
<path d="M182.006 109.281C182.006 108.102 182.006 107.11 182.006 105.993C185.107 105.373 188.085 104.815 191.311 104.132C191.311 105.869 191.311 107.482 191.311 109.281C188.333 109.281 185.294 109.281 182.006 109.281Z" fill="#E52B50"/>
<path d="M103.163 186.51C103.411 186.51 103.969 186.572 105.086 186.696C104.031 191.907 103.039 196.932 101.984 201.956C101.674 202.018 101.364 202.018 101.054 202.08C100.744 201.336 100.061 200.467 100.247 199.847C101.116 195.505 102.17 191.163 103.163 186.51Z" fill="#E52B50"/>
<path d="M193.978 86.8873C190.814 87.2595 189.201 85.8328 187.526 84.344C190.256 81.9868 192.799 79.7537 195.342 77.5205C195.653 79.8777 194.722 81.5526 192.179 83.9098C192.675 84.7782 193.171 85.6467 193.978 86.8873Z" fill="#E52B50"/>
<path d="M108.56 99.1074C109.242 102.457 109.8 105.497 110.421 108.474C110.297 108.598 110.11 108.722 109.986 108.846C107.877 106.985 105.83 105.062 103.659 103.077C105.458 101.589 106.947 100.41 108.56 99.1074Z" fill="#E52B50"/>
<path d="M64.0213 70.9449C62.4084 67.7813 60.9197 64.7418 59.3689 61.7642C59.1207 61.7642 58.9347 61.8263 58.6865 61.8263C59.617 61.2059 60.5475 60.5856 61.54 60.0273C64.8897 63.253 65.6341 66.8508 64.0213 70.9449Z" fill="#E52B50"/>
<path d="M56.5771 68.4017C57.3215 68.0295 57.8798 67.7194 58.6242 67.3472C60.2991 71.0691 61.9739 74.6669 63.8969 79.0091C62.6563 78.5749 61.6017 78.5749 61.3536 78.0787C59.6787 74.9771 58.19 71.7514 56.5771 68.4017Z" fill="#E52B50"/>
<path d="M113.709 190.232C112.406 194.45 111.228 198.607 109.863 202.701C109.677 203.321 108.746 203.631 108.188 204.127C108.126 203.383 107.878 202.577 108.064 201.894C109.243 198.296 110.607 194.761 111.786 191.225C112.158 189.922 112.716 189.612 113.709 190.232Z" fill="#E52B50"/>
<path d="M162.837 191.349C162.217 191.535 161.411 191.969 160.914 191.783C157.317 190.294 153.719 188.681 150.183 186.944C149.687 186.696 149.501 185.828 149.19 185.208C149.377 185.146 149.501 185.084 149.687 184.959C154.029 186.882 158.371 188.867 162.713 190.79C162.775 191.039 162.775 191.163 162.837 191.349Z" fill="#E52B50"/>
<path d="M172.143 111.7C170.034 106.552 170.282 101.775 171.336 96.9366C171.585 96.8126 171.895 96.6885 172.143 96.5645C172.577 97.1848 173.321 97.8671 173.321 98.4874C173.135 102.582 172.825 106.676 172.577 110.77C172.515 110.956 172.453 111.08 172.143 111.7Z" fill="#E52B50"/>
<path d="M155.394 199.909C154.649 200.033 153.781 200.529 153.471 200.219C149.811 197.614 145.531 197.304 141.188 196.994C143.67 194.636 152.85 196.497 155.394 199.909Z" fill="#E52B50"/>
<path d="M71.8372 105.807C70.5966 102.519 69.3559 99.6037 68.4254 96.5641C68.2393 96.0058 69.1698 95.1374 69.9142 94.5791C70.5966 98.363 74.5666 101.279 71.8372 105.807Z" fill="#E52B50"/>
<path d="M191.435 111.328C191.931 113.003 190.442 113.127 189.202 113.189C186.597 113.313 183.991 113.189 181.386 113.189C180.641 111.7 181.138 111.266 182.564 111.266C185.418 111.39 188.271 111.328 191.435 111.328Z" fill="#E52B50"/>
<path d="M193.047 74.6671C191.621 76.466 190.256 78.327 188.705 80.0018C188.271 80.4981 187.092 80.4981 186.286 80.374C185.914 80.312 185.355 79.3195 185.48 78.9473C185.666 78.327 186.286 77.7687 186.844 77.4585C188.767 76.342 190.814 75.4115 192.799 74.3569C192.861 74.419 192.923 74.543 193.047 74.6671Z" fill="#E52B50"/>
<path d="M49.2578 102.333C49.5059 102.147 49.63 102.023 49.7541 102.023C53.6621 102.023 57.5701 102.023 61.6021 102.023C60.1134 104.318 52.2974 104.442 49.2578 102.333Z" fill="#E52B50"/>
<path d="M148.137 79.7536C147.95 80.8081 147.95 81.7386 147.578 82.483C147.33 83.0413 146.586 83.3514 146.028 83.7856C145.841 83.1653 145.717 82.483 145.531 81.8627C145.531 81.7386 145.593 81.6145 145.655 81.4905C146.524 79.7536 146.648 78.1407 145.655 76.4039C145.407 76.0317 145.841 75.2873 145.965 74.729C146.462 75.1012 147.144 75.4114 147.33 75.9076C147.764 77.1482 147.888 78.5129 148.137 79.7536Z" fill="#E52B50"/>
<path d="M176.361 70.4487C178.904 72.4337 179.959 75.1011 180.579 78.2647C177.167 76.6519 175.244 73.1161 176.361 70.4487Z" fill="#E52B50"/>
<path d="M187.278 71.1934C186.658 72.8683 186.099 74.6052 185.355 76.28C185.107 76.7763 184.424 77.4586 183.928 77.4586C183.432 77.4586 182.564 76.9004 182.439 76.4041C182.253 75.8458 182.502 74.8533 182.936 74.4191C184.176 73.1785 185.603 72.1239 186.906 70.9453C187.03 71.0073 187.154 71.0694 187.278 71.1934Z" fill="#E52B50"/>
<path d="M190.566 102.085C189.573 103.45 183.37 105.062 181.819 104.442C181.447 104.318 181.199 103.636 180.765 103.015C184.176 102.767 187.216 102.457 190.566 102.085Z" fill="#E52B50"/>
<path d="M49.1953 110.149C54.1579 110.149 58.8723 110.149 63.5867 110.149C63.5867 110.398 63.5867 110.708 63.5867 110.956C58.9343 110.956 54.2819 110.956 49.6295 110.894C49.4434 110.956 49.3194 110.336 49.1953 110.149Z" fill="#E52B50"/>
<path d="M107.381 109.281C106.017 110.149 105.21 111.018 104.528 110.956C103.784 110.894 103.163 109.839 102.419 109.281C103.163 108.536 103.784 107.482 104.59 107.296C105.21 107.11 106.079 108.226 107.381 109.281Z" fill="#E52B50"/>
<path d="M100.744 101.465C101.551 102.705 102.357 103.388 102.357 104.132C102.357 104.69 101.365 105.249 100.806 105.807C100.248 105.125 99.3796 104.504 99.1935 103.698C99.0695 103.264 99.9379 102.519 100.744 101.465Z" fill="#E52B50"/>
<path d="M58.4382 65.0524C57.5698 65.7967 56.9494 66.7272 56.5773 66.6652C55.8949 66.4791 54.7783 65.6106 54.8404 65.1764C54.9644 64.432 55.8329 63.8117 56.3912 63.1914C56.9494 63.6877 57.5077 64.1839 58.4382 65.0524Z" fill="#E52B50"/>
<path d="M113.151 113.685C112.53 113.995 111.786 114.677 111.29 114.553C110.669 114.367 109.863 113.623 109.739 113.002C109.677 112.568 110.731 111.452 111.166 111.514C111.91 111.638 112.592 112.444 113.275 112.94C113.151 113.189 113.151 113.437 113.151 113.685Z" fill="#E52B50"/>
<path d="M55.7093 60.9582C54.7788 61.3925 54.2205 61.5786 53.5381 61.8887C52.9799 60.524 52.4216 59.2834 51.8633 57.9807C54.6547 57.2984 54.2205 59.8417 55.7093 60.9582Z" fill="#E52B50"/>
<path d="M134.427 73.4264C133.497 75.7836 131.884 77.2724 129.34 77.5205C129.216 77.3344 129.03 77.1483 128.906 76.9622C130.643 75.6596 132.38 74.2949 134.117 72.9922C134.179 73.1163 134.303 73.2403 134.427 73.4264Z" fill="#E52B50"/>
<path d="M108.622 72.6201C111.476 72.8062 113.151 74.6051 114.639 76.7762C114.515 77.0244 114.329 77.2105 114.205 77.4586C112.158 76.0939 110.173 74.7912 108.126 73.4265C108.25 73.1164 108.436 72.8682 108.622 72.6201Z" fill="#E52B50"/>
<path d="M102.605 49.2959C103.039 50.1023 103.907 50.9708 103.845 51.7772C103.845 52.3975 102.729 53.39 102.047 53.452C100.992 53.5141 99.3792 53.2039 99.6893 51.5911C99.8754 50.7226 100.93 49.9783 101.612 49.2339C101.922 49.2339 102.233 49.2339 102.605 49.2959Z" fill="#E52B50"/>
<path d="M139.39 49.1719C140.259 50.2884 141.127 50.9088 141.251 51.6531C141.499 53.0799 140.259 53.7002 139.142 53.5141C138.398 53.39 137.281 52.3355 137.343 51.8392C137.405 50.9708 138.398 50.2884 139.39 49.1719Z" fill="#E52B50"/>
</g>
<defs>
<clipPath id="clip0_448_2181">
<rect width="176.542" height="207" fill="white" transform="translate(42 14)"/>
</clipPath>
</defs>
</svg>
