<svg width="30" height="30" viewBox="0 0 30 30" fill="none" xmlns="http://www.w3.org/2000/svg">
<path d="M25.0279 3.75H18.7779C18.4464 3.75 18.1285 3.8817 17.894 4.11612C17.6596 4.35054 17.5279 4.66848 17.5279 5C17.5279 5.33152 17.6596 5.64946 17.894 5.88388C18.1285 6.1183 18.4464 6.25 18.7779 6.25H20.6529V13.75H14.4654C15.2925 12.6744 15.7431 11.3568 15.7479 10C15.7479 8.62421 15.2939 7.28688 14.4563 6.19542C13.6188 5.10395 12.4445 4.31933 11.1156 3.96324C9.78665 3.60716 8.37738 3.69951 7.10631 4.22596C5.83523 4.75242 4.77338 5.68357 4.08542 6.875C3.99739 7.0173 3.93882 7.17582 3.91319 7.34117C3.88756 7.50652 3.89539 7.67533 3.93621 7.8376C3.97703 7.99987 4.05001 8.1523 4.15084 8.28584C4.25166 8.41937 4.37827 8.53131 4.52315 8.61501C4.66804 8.69871 4.82826 8.75248 4.9943 8.77311C5.16035 8.79374 5.32885 8.78082 5.48982 8.73513C5.65078 8.68943 5.80094 8.61188 5.93137 8.50708C6.06181 8.40227 6.16988 8.27235 6.24917 8.125C6.57828 7.55497 7.05163 7.08161 7.62164 6.75248C8.19166 6.42335 8.83827 6.25005 9.49648 6.25C10.1547 6.24995 10.8013 6.42315 11.3714 6.75219C11.9415 7.08123 12.4149 7.55452 12.7441 8.1245C13.0733 8.69448 13.2466 9.34106 13.2468 9.99928C13.2469 10.6575 13.0738 11.3041 12.7448 11.8743C12.4158 12.4444 11.9426 12.9178 11.3726 13.2471C10.8027 13.5764 10.1561 13.7498 9.49792 13.75C9.1664 13.75 8.84846 13.8817 8.61404 14.1161C8.37962 14.3505 8.24792 14.6685 8.24792 15C8.24792 15.3315 8.37962 15.6495 8.61404 15.8839C8.84846 16.1183 9.1664 16.25 9.49792 16.25C10.1561 16.2502 10.8027 16.4236 11.3726 16.7529C11.9426 17.0822 12.4158 17.5556 12.7448 18.1257C13.0738 18.6959 13.2469 19.3425 13.2468 20.0007C13.2466 20.6589 13.0733 21.3055 12.7441 21.8755C12.4149 22.4455 11.9415 22.9188 11.3714 23.2478C10.8013 23.5769 10.1547 23.7501 9.49648 23.75C8.83827 23.7499 8.19166 23.5767 7.62164 23.2475C7.05163 22.9184 6.57828 22.445 6.24917 21.875C6.07819 21.5986 5.80629 21.3997 5.49111 21.3204C5.17594 21.2411 4.84228 21.2877 4.56087 21.4503C4.27946 21.6128 4.07243 21.8786 3.98368 22.1913C3.89492 22.5039 3.93141 22.8388 4.08542 23.125C4.77338 24.3164 5.83523 25.2476 7.10631 25.774C8.37738 26.3005 9.78665 26.3928 11.1156 26.0368C12.4445 25.6807 13.6188 24.8961 14.4563 23.8046C15.2939 22.7131 15.7479 21.3758 15.7479 20C15.7431 18.6432 15.2925 17.3256 14.4654 16.25H20.6529V25C20.6529 25.3315 20.7846 25.6495 21.019 25.8839C21.2535 26.1183 21.5714 26.25 21.9029 26.25C22.2344 26.25 22.5524 26.1183 22.7868 25.8839C23.0212 25.6495 23.1529 25.3315 23.1529 25V6.25H25.0279C25.3594 6.25 25.6774 6.1183 25.9118 5.88388C26.1462 5.64946 26.2779 5.33152 26.2779 5C26.2779 4.66848 26.1462 4.35054 25.9118 4.11612C25.6774 3.8817 25.3594 3.75 25.0279 3.75Z" fill="#E52B50"/>
</svg>
