<svg width="1440" height="350" viewBox="0 0 1440 350" fill="none" xmlns="http://www.w3.org/2000/svg">
<g opacity="0.71">
<path d="M637.805 140.095C638.863 140.8 639.921 139.389 639.216 138.684C637.099 136.567 632.513 137.272 629.691 141.153C616.991 157.733 653.327 172.902 658.971 147.15C665.321 124.926 638.158 120.34 615.228 122.456C580.656 125.984 585.242 110.815 581.715 112.579C579.598 113.637 585.595 123.162 596.178 125.984C605.703 128.806 615.933 124.22 633.924 125.984C681.548 131.275 639.569 176.43 630.749 150.325C627.927 143.975 634.63 137.625 637.805 140.095Z" fill="url(#paint0_linear_519_5362)"/>
<path d="M322.43 187.013C306.908 223.348 329.838 242.045 342.891 228.992C355.943 216.293 331.602 166.2 322.43 187.013ZM328.427 227.934C310.436 217.351 326.663 147.856 342.185 206.415C347.124 226.17 336.541 232.167 328.427 227.934Z" fill="url(#paint1_linear_519_5362)"/>
<path d="M885.095 21.2117C883.684 28.2671 903.439 21.9173 936.952 43.7889C1003.27 87.8849 947.182 176.077 912.964 157.027C910.495 155.616 908.378 158.791 910.847 160.555C1007.86 213.118 1028.67 130.217 971.524 110.462C970.465 110.109 970.465 111.873 971.171 106.934C1003.98 115.048 1014.56 92.8237 1008.92 63.5439C1007.51 55.783 996.923 32.8531 1008.21 26.856C1011.03 25.4449 1030.44 21.2117 1042.08 6.74821C1067.48 -24.2954 1064.65 -85.3243 1020.56 -111.429C950.71 -151.292 867.81 -92.0269 870.279 -85.3243C881.215 -55.339 892.856 -9.47913 885.095 21.2117ZM887.565 -42.9921C957.06 -48.2836 949.299 -50.0475 950.357 -40.8755C879.804 -33.4674 890.034 -30.998 887.565 -42.9921ZM950.005 -30.2924C881.568 -24.2954 891.445 -22.1788 889.681 -32.409C959.529 -39.8172 951.768 -41.9338 950.005 -30.2924ZM892.503 -4.54036C941.538 -6.3042 936.599 -6.65697 934.483 -4.89312C922.841 3.57332 907.32 6.04269 892.503 5.68993C892.503 1.80947 892.856 -1.36545 892.503 -4.54036ZM892.151 -14.0651C950.005 -16.1817 949.652 -18.6511 938.011 -8.06804C884.037 -6.3042 892.856 -3.83483 892.151 -14.0651ZM891.092 -23.2371C955.649 -28.8814 953.885 -32.7618 945.771 -17.5928C882.273 -15.4762 892.503 -13.3596 891.092 -23.2371ZM925.664 163.025C941.891 160.908 932.719 154.205 946.477 170.785C940.127 169.374 923.547 163.377 925.664 163.025ZM949.299 171.844C935.894 155.616 937.658 160.555 944.713 155.616C965.174 175.724 970.112 176.783 949.299 171.844ZM965.879 173.608C941.891 149.972 944.713 156.675 952.474 148.914C979.99 172.549 986.34 173.608 965.879 173.608ZM980.696 170.785C948.241 142.917 952.474 149.619 957.766 142.564C991.631 166.552 994.806 164.788 980.696 170.785ZM990.573 163.377C954.943 138.331 958.118 143.622 962.704 135.156C999.039 158.086 998.334 154.205 990.573 163.377ZM995.864 154.205C958.118 130.57 962.704 135.861 965.879 128.453C1001.16 150.325 998.687 146.444 995.864 154.205ZM966.585 126.689C969.407 119.634 963.057 118.223 997.276 138.684C1000.1 149.972 999.745 147.15 966.585 126.689ZM996.217 136.214C963.763 116.459 968.701 122.103 970.465 113.637C970.465 111.873 990.573 122.809 996.217 136.214ZM1053.72 -31.3507C1048.07 -29.5869 1041.72 -30.6452 1036.08 -33.1146C1057.25 -35.9367 1054.42 -36.995 1053.72 -31.3507ZM1054.42 -37.3478C1031.85 -34.1729 1034.32 -33.4673 1029.02 -38.0533C1058.66 -42.6393 1054.78 -43.6976 1054.42 -37.3478ZM1054.42 -43.6976C1026.2 -39.1116 1027.26 -37.3478 1023.73 -44.7559C1059.36 -49.3419 1054.42 -50.4002 1054.42 -43.6976ZM1054.07 -50.753C1018.79 -46.167 1022.67 -44.4032 1021.62 -52.1641C1057.95 -55.6917 1053.37 -57.1028 1054.07 -50.753ZM1053.37 -57.1028C1017.74 -53.5751 1021.26 -52.1641 1021.97 -58.8667C1057.25 -62.7471 1051.95 -63.8054 1053.37 -57.1028ZM1051.6 -63.8054C1017.74 -59.925 1020.91 -58.8667 1023.03 -65.5693C1054.78 -69.097 1049.84 -70.508 1051.6 -63.8054ZM1023.73 -67.6859C1026.91 -75.4468 1024.79 -73.3302 1047.02 -76.1523C1050.54 -68.7442 1053.72 -70.8608 1023.73 -67.6859ZM1028.67 -75.4468C1032.2 -79.68 1037.14 -82.8549 1042.08 -84.9715C1048.43 -75.4468 1048.78 -78.2689 1028.67 -75.4468ZM1023.03 -73.6829C1006.45 -47.5781 1030.44 -21.826 1053.37 -28.8814C1052.66 -25.3537 1051.95 -21.826 1050.9 -18.2983C1004.33 0.0456314 979.99 -76.8579 1031.49 -97.6712C1050.19 -80.0328 1035.37 -92.3797 1023.03 -73.6829ZM1018.44 -107.901C1043.14 -93.438 1020.91 -104.727 1006.09 -78.9745C983.87 -38.7589 1019.5 -3.48204 1050.54 -15.4762C1043.84 4.63162 1032.91 13.4508 1019.15 19.8007C976.109 38.8501 972.229 -9.83187 990.573 -15.4762C999.039 -18.2983 1008.56 -11.243 1004.68 -3.83483C1004.33 -3.1293 1004.68 -2.42376 1005.39 -2.07099C1007.86 -0.65992 1011.39 -10.1847 1003.63 -16.1817C976.462 -35.9367 962.352 28.9726 1003.98 26.5032C997.981 32.5003 999.039 42.7306 1001.16 50.8442C1014.21 96.3513 996.923 109.404 972.229 103.759C970.112 103.407 983.165 68.1299 940.127 39.2029C903.792 15.5674 892.856 26.856 920.019 21.5645C1014.56 3.92609 975.404 -128.009 890.034 -96.2601C929.191 -121.659 976.815 -131.537 1018.44 -107.901ZM875.218 -85.3243C888.976 -96.6129 932.366 -106.843 956.707 -75.094C995.512 -25.0009 941.891 31.0892 890.387 19.8007C891.092 15.9202 891.798 11.687 892.151 7.80653C995.159 13.4508 959.177 -119.896 879.804 -73.6829C883.684 -66.9803 898.853 -86.7354 924.253 -76.8578C928.133 -75.4468 934.483 -76.8579 881.568 -68.3914C881.92 -65.922 876.629 -65.922 929.191 -74.3885C929.191 -75.094 934.836 -71.2136 939.069 -66.9803C870.279 -59.2194 886.859 -54.2807 875.218 -85.3243ZM883.684 -58.8667C947.535 -65.5693 940.127 -67.3331 945.066 -57.8084C876.276 -51.4585 886.154 -49.6947 883.684 -58.8667ZM885.801 -50.753C953.18 -57.1028 945.771 -59.2194 948.594 -49.3419C877.687 -44.0504 887.917 -42.2866 885.801 -50.753Z" fill="url(#paint2_linear_519_5362)"/>
<path d="M1378.27 -9.12634C1330.99 -41.581 1327.82 -45.4615 1311.94 -48.9891C1322.18 -101.904 1259.74 -131.184 1215.64 -104.374C1195.53 -92.0269 1186.01 -72.2719 1187.42 -69.4497C1196.59 -49.6947 1200.82 -22.5315 1193.41 12.0398C1182.13 62.8384 1160.61 58.9579 1166.25 94.2348C1178.95 169.022 1287.25 171.844 1288.31 100.232C1288.31 94.9403 1287.96 100.585 1310.53 92.1182C1363.8 72.3631 1377.56 37.0863 1437.18 28.6199C1448.47 26.856 1422.71 20.859 1378.27 -9.12634ZM1381.79 -1.01266C1374.74 14.5091 1384.26 13.4508 1365.92 9.57039C1366.98 3.57333 1369.09 -2.42373 1372.27 -7.71526C1378.62 -3.12926 1375.8 -4.89311 1381.79 -1.01266ZM1369.8 -9.12634C1359.22 12.0398 1371.92 10.2759 1351.45 7.101C1352.87 -1.01267 1356.04 -8.77357 1359.92 -16.1817L1369.8 -9.12634ZM1350.4 7.101C1346.16 6.39546 1341.93 6.04269 1337.7 5.33715C1339.46 -4.89313 1343.34 -15.1234 1348.63 -23.9426C1365.92 -11.9485 1354.63 -24.2954 1350.4 7.101ZM1346.52 -25.3537C1327.11 9.57039 1347.93 5.68994 1323.59 4.27886C1325.7 -8.77356 1330.29 -21.1205 1336.99 -32.0563L1346.52 -25.3537ZM1334.87 -33.4673C1310.53 9.57038 1335.58 3.9261 1309.48 3.9261C1311.59 -11.5957 1317.24 -26.412 1325.35 -39.8172C1328.53 -37.7006 1331.7 -35.9367 1334.87 -33.4673ZM1322.88 -40.8755C1294.66 8.15931 1322.88 2.16225 1295.01 4.63163C1299.95 -29.9397 1307.01 -26.412 1302.77 -28.5286C1314.77 -43.6976 1304.54 -49.6947 1322.88 -40.8755ZM1211.05 -7.71526C1224.81 -21.4732 1216.34 -16.8872 1213.52 22.9756C1209.64 22.6228 1205.76 21.5645 1202.23 19.4479C1206.82 -4.89313 1205.06 -1.36543 1211.05 -7.71526ZM1200.82 18.3896C1196.59 15.5674 1197.3 16.9785 1199.76 6.39547C1202.94 6.39547 1205.06 -10.1846 1200.82 18.3896ZM1224.11 -18.6511C1243.16 -33.1146 1229.4 -27.8231 1226.58 22.9756C1223.75 23.3283 1220.58 24.0339 1214.93 23.3284C1215.29 18.0368 1219.17 -15.1234 1224.11 -18.6511ZM1237.16 -27.823C1243.86 -31.7035 1239.63 -30.6452 1245.62 -24.2954C1246.68 -23.237 1240.69 -8.77356 1239.63 19.8007C1235.75 20.859 1231.87 21.9173 1227.63 22.27C1229.4 5.33717 1232.22 -11.5957 1237.16 -27.823ZM1269.97 -20.7677C1257.97 -21.1204 1258.32 -20.7677 1266.09 -41.581C1282.31 -46.8725 1275.96 -47.5781 1269.97 -20.7677ZM1303.13 -46.5198C1298.19 -29.5869 1285.49 -21.4732 1272.43 -21.1205C1278.08 -45.1087 1277.37 -48.9891 1303.13 -46.5198ZM1258.32 -23.2371C1254.09 -25.0009 1252.33 -26.7647 1249.86 -28.8814C1251.97 -36.2895 1251.62 -35.5839 1253.03 -36.2895C1267.14 -42.9921 1262.91 -42.6393 1258.32 -23.2371ZM1274.9 -48.2836C1263.97 -45.4615 1254.44 -41.581 1244.92 -36.6422C1232.22 -70.508 1282.67 -72.6246 1274.9 -48.2836ZM1248.8 -34.1729C1247.74 -30.6452 1248.09 -30.2924 1246.68 -33.1146C1247.39 -33.4673 1248.09 -33.8201 1248.8 -34.1729ZM1248.09 -22.5315C1250.92 -20.0621 1253.74 -18.2983 1256.91 -16.8872C1249.5 19.0951 1259.74 13.4508 1241.39 19.4479C1242.1 5.33715 1244.21 -8.77355 1248.09 -22.5315ZM1258.68 -16.1817C1274.2 -10.5374 1267.14 -22.8843 1266.09 9.92315C1262.2 11.3342 1258.32 12.7453 1254.44 14.5092C1255.15 3.9261 1256.56 -5.95142 1258.68 -16.1817ZM1270.67 -14.0651C1287.96 -13.7123 1281.25 -23.9426 1279.14 6.39547C1267.14 9.21761 1265.03 15.2147 1270.67 -14.0651ZM1300.3 -26.0592C1285.84 12.0398 1304.54 1.80948 1280.55 6.39547C1284.43 -28.1758 1284.08 -9.12632 1300.3 -26.0592ZM1203.65 -86.0298C1242.45 -125.187 1308.77 -103.315 1304.54 -54.9862C1303.83 -45.4615 1305.95 -54.6334 1278.08 -48.9891C1285.49 -78.6217 1224.11 -75.4468 1239.98 -33.8201C1183.89 -1.01266 1207.17 20.859 1201.53 -34.8784C1197.3 -74.3884 1184.24 -65.922 1203.65 -86.0298ZM1195.88 22.27C1200.12 9.57038 1193.77 27.5616 1224.46 25.0922C1256.91 22.6228 1285.49 -14.0651 1406.13 22.27C1410.72 23.3284 1415.31 24.3867 1419.89 25.0922C1404.02 27.2088 1387.44 26.856 1371.56 22.27C1255.85 -2.07097 1221.28 62.4856 1194.47 28.6199C1193.77 27.9144 1192.71 28.6199 1193.41 29.3254C1199.06 36.7335 1198.35 27.2088 1197.65 49.0804C1187.06 35.3225 1189.18 42.3778 1195.88 22.27ZM1241.74 35.3225C1258.68 29.6782 1248.8 25.445 1256.56 61.0746C1243.16 58.6052 1242.8 69.1882 1241.74 35.3225ZM1249.15 89.6488C1224.11 80.8296 1227.99 70.5993 1243.16 66.7188C1243.86 66.3661 1243.16 70.5993 1249.15 89.6488ZM1230.1 67.7772C1225.87 32.1476 1227.63 39.5557 1239.63 36.028C1241.39 76.9491 1247.74 51.9026 1230.1 67.7772ZM1230.1 80.124C1227.63 78.3602 1227.63 78.713 1227.99 78.0074C1229.75 75.1853 1229.4 76.2436 1230.1 80.124ZM1228.34 69.541C1222.34 75.8908 1226.22 78.713 1214.58 67.4244C1212.46 33.2059 1214.58 39.9085 1222.34 39.2029C1229.04 38.8502 1223.05 34.6169 1228.34 69.541ZM1226.58 81.8879C1235.75 88.2377 1243.86 92.4709 1254.8 95.6459C1244.92 119.281 1218.81 101.996 1226.58 81.8879ZM1250.56 90.0015C1248.09 82.2406 1246.33 74.127 1244.92 66.0133C1249.15 65.3078 1253.74 65.6605 1258.32 67.0716C1265.38 94.5875 1274.55 98.1152 1250.56 90.0015ZM1260.44 68.1299C1271.02 72.3631 1279.14 81.5351 1281.25 93.882C1267.14 94.9403 1267.85 97.7625 1260.44 68.1299ZM1259.03 61.4273C1251.62 25.4449 1255.5 29.6782 1265.73 26.1505C1269.26 85.7683 1286.19 68.4827 1259.03 61.4273ZM1212.82 66.0133C1207.88 61.4273 1203.65 56.1358 1199.41 51.197C1201.53 31.0892 1199.06 35.6752 1206.82 38.1446C1215.29 40.614 1209.99 33.2059 1212.82 66.0133ZM1171.9 92.8237C1167.31 71.3048 1171.9 71.6576 1180.36 57.1941C1195.88 27.9143 1178.95 44.8472 1222.34 78.713C1209.99 109.404 1255.15 122.103 1257.27 95.9986C1279.14 101.29 1281.96 94.9403 1281.96 99.5263C1280.55 161.614 1187.77 159.497 1171.9 92.8237ZM1281.96 78.0074C1271.73 62.8384 1268.91 41.6723 1268.55 25.445C1292.54 17.3313 1263.62 32.8531 1297.83 91.4126C1281.61 95.2931 1291.84 93.1765 1281.96 78.0074ZM1299.25 91.0599C1280.55 57.8996 1280.2 22.27 1280.9 22.27C1308.42 16.6257 1275.96 29.3254 1311.59 87.1794C1308.77 87.8849 1306.3 88.9433 1299.25 91.0599ZM1312.65 86.1211C1300.66 66.0133 1294.66 42.7306 1294.66 19.4479C1298.54 19.0951 1302.42 18.7424 1306.3 18.3896C1306.3 85.0628 1341.22 74.4797 1312.65 86.1211ZM1325.7 80.4768C1314.41 62.1329 1308.42 40.2612 1308.77 18.7424C1313.71 18.3896 1312.65 18.7424 1320.41 18.7424C1320.41 76.5964 1351.1 67.0716 1325.7 80.4768ZM1338.05 73.4214C1327.82 57.1941 1322.53 37.7918 1322.88 18.7424C1347.22 19.4479 1323.23 27.5616 1348.63 66.7188C1345.11 68.8354 1341.58 71.3048 1338.05 73.4214ZM1350.04 65.6606C1341.58 51.9026 1336.99 35.6752 1337.34 19.4479C1341.22 19.8007 1345.11 20.1534 1348.99 20.859C1348.28 63.1912 1371.56 50.8443 1350.04 65.6606ZM1361.33 57.5469C1353.92 46.9638 1350.75 33.5586 1351.1 20.859C1354.98 21.5645 1358.86 21.9173 1362.74 22.6228C1362.04 59.6635 1382.85 42.0251 1361.33 57.5469ZM1366.62 37.4391C1362.39 20.1534 1366.98 23.3283 1371.56 24.3866C1384.26 27.2088 1371.92 22.6228 1383.91 42.3778C1374.03 48.0221 1370.86 54.7247 1366.62 37.4391ZM1380.03 26.1505C1390.97 28.2671 1403.66 29.6782 1423.07 26.1505C1383.2 36.3808 1383.56 52.6081 1380.03 26.1505ZM1406.49 20.1534C1377.56 10.9815 1375.44 15.5674 1383.56 0.0456314C1419.89 24.3866 1441.41 30.0309 1406.49 20.1534Z" fill="url(#paint3_linear_519_5362)"/>
<path d="M871.69 150.678C877.334 151.736 876.629 149.972 873.454 148.561C783.851 110.815 787.026 61.0746 783.145 60.0163C776.443 58.2524 761.274 159.85 679.431 132.687C672.376 130.217 684.017 156.322 702.714 157.38C698.834 167.258 702.361 175.019 709.77 178.194C751.043 196.89 782.087 133.039 871.69 150.678ZM797.256 100.232C793.728 101.29 784.204 102.348 771.857 94.9403C790.906 60.369 772.209 69.541 797.256 100.232ZM770.446 97.0569C785.262 105.876 796.55 103.054 799.02 102.348C801.842 105.523 804.664 108.346 807.486 111.168C804.311 111.168 781.029 112.226 766.565 103.76C767.976 101.643 769.387 99.1735 770.446 97.0569ZM765.154 105.876C779.265 113.99 808.545 115.401 809.25 112.579C814.894 117.517 819.833 121.751 827.594 127.042C819.48 128.101 777.854 132.687 757.393 116.106C759.863 112.579 762.685 109.404 765.154 105.876ZM755.277 117.87C777.148 135.509 828.3 130.923 830.063 128.806C834.297 131.628 838.53 134.098 843.116 136.567C832.533 138.684 779.265 147.15 748.221 124.573C750.691 122.456 753.16 120.34 755.277 117.87ZM713.65 151.03C722.822 147.503 731.641 156.675 728.113 164.436C725.644 169.727 721.411 168.669 722.469 170.785C723.88 173.96 734.463 166.2 730.936 156.322C727.055 146.092 713.297 143.975 705.889 153.853C700.95 153.147 690.367 153.5 682.606 136.92C696.364 141.153 709.77 142.211 723.527 138.331C735.169 157.733 757.04 164.083 766.212 165.847C698.128 197.596 695.659 158.086 713.65 151.03ZM769.74 164.083C766.918 163.73 739.402 159.85 725.644 137.625C728.113 136.92 730.583 135.861 733.052 134.45C760.921 170.08 797.962 150.678 769.74 164.083ZM784.556 157.028C783.498 156.675 754.218 157.028 735.169 133.745C739.049 131.628 742.577 129.159 746.105 126.337C763.038 145.033 817.364 145.033 845.233 138.684C846.996 138.331 845.938 138.684 858.99 145.033C880.509 154.911 837.472 131.275 784.556 157.028Z" fill="url(#paint4_linear_519_5362)"/>
<path d="M655.443 189.835C637.452 137.625 524.919 162.319 460.715 110.815C428.966 84.71 462.479 93.1765 445.193 60.7218C439.902 50.4915 430.377 44.4944 420.147 39.9084C462.832 43.7889 458.951 114.343 531.974 124.573C573.248 129.864 594.414 102.701 588.417 78.3602C587.712 75.1853 586.653 72.7159 585.595 70.5993C588.77 74.127 595.12 80.4768 606.408 88.9432C696.011 157.733 784.556 100.585 748.574 46.9638C735.169 25.7977 700.95 28.2671 693.189 49.4332C681.901 79.4185 716.472 76.9491 698.128 77.3019C656.149 80.4768 678.02 -0.307129 642.744 -4.54034C618.05 -8.06802 582.067 23.6811 552.435 4.63162C545.38 -0.659912 563.018 39.9084 564.782 40.9668C571.484 52.9609 576.423 59.3107 578.187 61.4273C577.834 61.0746 577.129 60.7218 576.776 60.0162C564.429 49.7859 545.027 54.3719 539.03 68.4827C533.738 80.8296 544.321 94.5875 554.551 92.4709C557.726 92.1182 566.546 87.8849 564.429 85.4156C562.665 83.299 561.254 88.5905 554.199 89.6488C545.38 91.0598 538.324 79.0657 542.557 69.8937C555.257 42.3778 596.531 67.0716 583.126 97.7625C566.898 133.745 507.986 122.456 480.823 92.4709C463.89 74.127 454.013 49.786 432.846 39.5557C443.782 38.4974 452.601 34.2642 457.187 28.2671C510.103 58.9579 551.024 7.10101 518.922 -16.5345C501.636 -29.2341 476.59 -13.7123 486.114 3.22055C488.231 7.45377 492.817 9.57037 497.05 9.57037C498.814 9.57037 498.814 7.10098 497.05 6.74823C482.234 6.04269 484.351 -18.6511 506.575 -16.5345C528.799 -14.4179 533.033 20.1534 506.222 29.6782C475.179 40.614 434.61 20.1534 422.263 -27.1175C411.328 -68.3914 430.73 -114.251 473.415 -109.313C435.316 -104.727 420.147 -50.0474 436.021 -17.24C446.252 2.51501 465.301 12.7453 467.418 12.7453C472.356 13.0981 463.184 -68.3914 531.622 -23.9426C553.14 -10.1846 564.429 13.8036 615.228 -6.65695C639.569 -17.24 637.805 -15.1234 644.507 -20.4149C679.079 -8.42081 680.137 40.614 680.842 41.6723C684.723 46.9638 723.88 4.63162 763.39 15.2147C796.55 24.0339 809.956 77.6547 831.122 106.582C856.874 142.211 920.372 144.328 932.366 104.112C940.833 75.8908 921.43 45.2 891.798 60.7218C876.276 68.8354 867.104 43.7889 866.751 18.0368C864.282 -108.607 767.271 -128.009 733.405 -72.9774C710.122 -86.7354 696.364 -70.8608 722.469 -87.0881C806.781 -140.356 782.087 -198.563 747.163 -155.878C728.466 -131.89 723.527 -97.6712 694.953 -75.7995C681.901 -69.8025 678.373 -61.3361 694.6 -80.7383C768.682 -171.4 719.294 -226.784 696.364 -166.461C686.487 -138.24 691.073 -120.601 681.901 -89.5575C685.076 -108.96 687.898 -148.117 673.434 -189.391C654.738 -244.07 601.822 -270.175 543.616 -263.825C533.033 -262.767 571.837 -254.3 593.709 -220.435C615.933 -185.51 586.301 -171.047 634.277 -113.193C643.096 -100.846 649.446 -90.6158 653.679 -66.9803C643.802 -82.5022 622.283 -83.2077 612.053 -70.8608C600.411 -56.3973 613.817 -34.8784 629.691 -42.2866C630.749 -42.9921 631.102 -44.0504 630.749 -44.756C629.338 -48.2836 618.402 -40.17 613.464 -51.1058C601.822 -74.3885 643.449 -86.7354 652.621 -59.2194C664.968 -25.3537 614.169 27.2088 538.324 -72.9774C589.476 -41.9338 634.63 -120.601 583.478 -138.592C558.079 -147.059 536.913 -114.957 558.785 -100.493C565.487 -96.2601 574.307 -98.024 578.893 -104.374C580.304 -106.49 577.129 -108.96 575.365 -106.843C565.135 -93.438 545.379 -113.899 560.549 -128.009C584.89 -151.292 621.93 -101.552 581.009 -76.8578C556.315 -62.0416 535.149 -78.2689 533.738 -78.2689C509.397 -108.254 458.951 -126.245 432.494 -98.3767C427.555 -100.493 459.304 -119.896 446.957 -155.525C431.788 -201.738 362.293 -221.14 347.477 -228.548C305.85 -247.598 301.264 -265.942 297.736 -267C287.859 -270.175 252.582 -125.54 365.115 -71.9191C350.299 -45.1087 354.532 -8.42081 370.406 13.0981C371.465 41.3195 357.001 69.541 333.366 84.0045C280.098 117.87 234.943 73.0687 242.704 38.8501C246.938 16.6257 273.748 2.86777 290.328 15.5674C317.491 36.3808 279.745 64.955 273.042 40.2612C270.926 32.5003 265.987 65.6605 300.911 45.9055C346.065 19.0951 358.06 -33.4674 340.421 -55.6918C317.844 -84.9715 285.037 -45.4615 310.083 -32.0563C319.608 -27.1175 324.899 -34.5257 322.783 -35.584C321.019 -36.2895 319.608 -29.2341 311.494 -34.1729C304.439 -38.0533 301.969 -46.5198 307.261 -54.9862C328.78 -90.6158 383.812 -11.9485 301.264 43.0834C309.73 28.6199 310.436 -30.2924 273.042 -56.3973C258.226 -66.9803 245.174 -63.4527 246.585 -65.922C250.465 -74.7412 252.229 -99.7878 245.879 -112.135C236.002 -127.304 220.833 -121.659 219.774 -106.138C219.069 -92.3797 231.769 -70.8608 239.177 -64.511C239.529 -64.1582 239.529 -64.511 237.766 -63.8054C225.771 -58.1611 226.83 -42.6393 216.6 -37.7006C213.777 -36.2895 217.658 -37.7006 213.425 -52.1641C194.375 -115.31 143.576 -78.2689 197.197 -41.2283C218.011 -27.1175 199.667 -41.581 171.798 -31.7035C165.801 -29.5869 171.798 -27.8231 163.331 -42.9921C130.524 -99.7878 89.9557 -52.1641 150.985 -28.5286C172.151 -20.4149 150.985 -31.7035 143.576 -2.07098C139.343 -8.77359 126.996 -17.24 120.294 -20.7677C77.256 -43.3448 70.9062 15.5674 136.521 6.04269C138.638 5.68994 140.754 5.33716 142.518 4.27887C141.46 19.0951 150.279 30.3837 163.331 37.7918C144.282 31.0892 31.7489 -36.995 3.52748 53.6664C-17.2858 121.045 59.9704 147.856 80.7837 107.993C97.3638 76.2436 59.9704 55.4303 46.5652 75.1853C38.8043 86.4738 44.4486 92.4709 44.8014 88.5905C47.6235 54.7247 93.8362 73.7742 76.5505 105.876C63.8509 129.512 29.2796 124.22 14.1105 103.407C-8.46664 73.7742 9.52453 -29.5869 139.696 32.5003C158.393 40.614 168.27 43.0833 172.503 43.7889C169.329 43.7889 162.626 44.8472 153.807 49.786C143.224 56.1358 148.162 60.369 143.929 56.4886C117.472 31.442 88.8974 42.0251 97.7166 60.7218C103.361 73.4214 128.407 72.3631 141.46 68.1299C144.988 66.7188 143.224 66.0133 143.929 71.3048C144.988 86.4739 150.279 85.4156 144.635 83.6517C131.935 79.7713 107.241 79.4185 101.244 92.8237C90.6612 118.223 136.521 115.401 150.632 91.7654C166.506 118.576 178.501 111.168 160.157 112.931C101.95 118.576 130.524 174.313 168.623 129.512C178.148 118.223 173.209 115.401 180.617 123.867C185.909 130.217 185.556 132.686 187.673 141.858C190.495 152.089 192.258 145.739 176.737 148.914C119.588 160.908 153.807 213.118 186.967 164.436C197.903 148.208 185.203 153.853 203.194 171.491C211.308 178.899 210.955 171.491 197.197 181.368C149.926 215.94 202.842 249.1 213.072 191.246C214.836 179.605 212.719 177.488 213.425 177.841C227.183 182.074 235.649 178.194 243.057 169.727C223.655 209.237 179.559 253.333 192.611 302.015C199.314 328.826 227.888 348.228 253.993 350.345C307.966 354.225 328.427 279.791 280.451 268.502C251.876 261.447 235.296 302.368 268.104 309.071C269.515 309.423 270.22 306.954 268.456 306.601C245.526 301.31 250.818 277.321 267.398 272.383C281.156 268.149 300.206 279.791 301.969 298.488C304.792 327.062 272.69 358.105 230.005 336.939C151.337 298.84 229.652 204.298 244.468 172.902C246.232 179.252 251.171 182.78 256.462 184.896C254.698 185.955 253.64 187.366 252.229 189.129C216.247 236.4 271.279 256.155 269.515 212.765C269.162 205.357 265.987 191.246 262.107 186.66C292.797 194.068 288.917 179.252 284.331 197.243C270.573 254.039 332.66 245.572 302.675 194.421C296.325 183.838 293.15 188.424 310.789 184.191C339.716 177.135 340.068 182.427 360.176 184.543C355.237 193.01 351.004 215.234 357.001 225.817C370.406 249.453 402.861 219.115 368.643 184.191C373.581 183.132 376.756 178.546 378.52 173.608C384.87 219.467 437.785 301.662 374.992 307.307C358.412 309.776 344.654 294.96 347.124 279.438C350.299 260.741 378.167 260.036 377.815 278.027C377.815 284.024 384.87 269.913 371.112 263.563C360.882 258.625 346.065 265.327 343.243 278.733C336.893 312.246 384.87 326.004 404.625 294.254C416.619 275.558 408.153 251.922 399.333 228.287C346.418 87.8849 410.975 232.52 424.027 250.864C449.074 284.73 483.998 297.782 519.627 275.91C579.598 238.517 539.03 167.611 497.05 183.838C463.89 196.89 478.001 237.459 501.283 230.756C515.394 226.876 513.983 219.115 511.161 221.937C486.82 245.925 464.243 201.124 498.461 188.071C530.563 176.077 559.137 221.937 535.149 254.039C526.33 266.033 507.281 278.733 487.525 280.496C519.627 267.091 505.164 224.406 480.47 232.873C467.77 237.459 466.712 254.744 478.706 257.214C479.059 257.214 479.765 257.214 480.117 256.508C480.47 254.744 471.298 253.333 473.415 245.22C475.179 237.459 484.351 232.167 494.228 238.164C527.388 259.33 461.068 335.881 402.508 201.829C389.456 173.96 379.578 163.377 379.226 161.613C396.159 163.025 389.456 155.264 391.573 167.258C401.45 224.759 444.135 213.823 432.846 188.777C427.555 176.077 407.094 160.908 397.57 158.086C396.864 158.086 399.686 156.675 402.861 153.5C410.622 145.386 407.447 142.917 409.211 147.503C429.672 202.182 469.887 183.485 454.013 161.261C446.252 149.619 423.322 138.684 413.444 137.272C410.622 137.272 418.736 116.106 422.616 112.579C424.027 111.52 421.205 112.579 426.849 124.22C453.307 176.783 494.934 129.864 439.196 110.109C423.674 104.818 431.083 112.579 442.371 98.1152C482.234 161.261 613.464 147.503 642.038 179.605C667.085 206.768 638.158 253.333 608.525 235.695C593.709 226.876 595.12 203.946 611.347 201.124C627.222 198.654 624.047 215.587 626.869 215.234C629.691 214.882 626.516 204.651 623.694 201.476C618.403 195.832 606.056 195.832 599 203.946C584.184 220.173 602.528 251.922 632.513 242.397C652.268 236.4 661.44 212.059 656.149 191.952C684.723 172.549 723.175 196.538 714.355 224.406C704.831 255.45 666.732 238.87 677.315 219.82C681.548 212.412 689.309 212.412 693.542 216.998C695.306 218.762 698.128 216.293 696.364 214.529C686.134 202.182 667.085 214.529 670.612 230.756C672.729 242.397 688.956 251.922 703.067 245.572C718.589 238.517 725.997 217.704 716.825 201.124C705.889 181.016 675.904 173.608 655.443 189.835ZM703.42 41.6723C715.414 32.8531 735.874 34.9697 745.046 49.4332C764.096 78.0074 742.224 124.926 674.493 113.99C700.597 108.698 717.883 72.0103 709.769 73.7742C690.367 77.3019 691.073 50.4915 703.42 41.6723ZM697.775 80.8296C703.067 80.124 706.947 78.713 709.064 77.3019C705.889 86.1211 693.189 113.284 664.262 111.873C637.452 105.523 668.496 115.401 697.775 80.8296ZM693.895 80.8296C663.204 113.99 640.274 113.99 599.706 78.713C642.038 90.3543 669.201 74.127 675.198 70.2465C681.195 77.6546 687.545 80.4768 693.895 80.8296ZM673.787 67.7772C651.21 83.299 604.997 85.7683 587.359 65.6606C631.808 78.713 663.557 62.4856 669.201 59.3107C670.259 62.4856 671.671 65.3078 673.787 67.7772ZM604.292 9.57037C626.516 1.80948 647.33 -7.71527 656.149 13.0981C645.918 19.0951 604.292 41.3195 560.901 27.5616C543.968 -8.77356 555.963 26.1505 604.292 9.57037ZM657.207 15.5674C658.265 18.7423 658.971 22.2701 659.676 25.7977C655.09 28.9726 614.169 54.0192 567.604 39.5557C551.729 12.7453 585.242 57.8996 657.207 15.5674ZM660.382 28.6199C661.793 38.1446 663.91 47.3166 667.437 56.4886C669.554 61.7801 597.236 83.6517 574.659 50.4915C559.137 27.9143 597.236 68.1299 660.382 28.6199ZM666.732 -51.4585C667.79 -53.9279 666.379 -52.1641 670.965 -56.0445C665.673 -50.0475 665.321 -48.6364 666.732 -51.4585ZM657.56 -41.581C664.615 -54.2807 664.968 -89.5575 665.673 -89.9103C669.201 -91.6741 673.434 -95.9073 676.962 -99.435C672.376 -68.3914 657.207 -38.7589 657.56 -41.581ZM666.026 -43.3449C682.606 -67.6859 677.315 -65.922 682.959 30.3837C676.962 -6.30417 669.907 18.0368 666.026 -43.3449ZM733.758 12.0398C728.819 13.4508 730.583 21.2117 727.055 -40.5227C728.819 -30.998 733.758 -21.826 741.166 -15.4762C742.93 15.9202 745.399 9.21762 733.758 12.0398ZM743.635 -13.3596C759.51 -1.36542 755.982 -16.5345 757.746 9.92316C741.166 8.1593 745.752 17.3313 743.635 -13.3596ZM759.51 -5.95142C775.737 -3.12927 771.504 -15.1234 773.268 14.8619C757.04 6.74823 760.921 17.6841 759.51 -5.95142ZM774.326 -7.00974C790.906 -11.9485 785.615 -27.4703 789.142 27.5616C772.562 7.45377 776.795 29.3254 774.326 -7.00974ZM886.859 95.9986C902.734 104.818 898.5 79.0657 901.323 128.101C885.801 131.981 889.328 134.098 886.859 95.9986ZM918.608 65.3077C932.013 75.538 934.836 103.054 918.608 118.576C914.728 56.4886 913.669 61.4273 918.608 65.3077ZM906.261 61.0746C915.433 60.7218 912.611 55.783 916.492 120.692C912.964 123.515 908.731 125.631 904.145 127.042C901.323 82.5934 901.323 99.5263 906.261 90.0015C910.847 80.8296 903.439 75.1853 903.086 74.8325C901.675 73.7742 899.912 75.8908 901.323 76.9491C909.436 82.9462 902.028 95.6458 892.856 94.2348C876.276 92.8237 876.276 62.8384 906.261 61.0746ZM885.095 66.0133C876.276 74.8325 876.982 87.8849 884.39 94.2348C886.859 134.803 887.917 130.217 882.979 129.864C869.926 129.159 874.159 139.036 869.221 52.9609C872.748 59.3107 877.687 64.2495 885.095 66.0133ZM852.288 -38.4061C865.34 -1.36542 858.99 25.4449 866.046 45.9055C871.337 136.214 876.629 132.334 858.285 124.22C846.291 -74.7412 845.585 -56.75 852.288 -38.4061ZM844.88 -54.6335C856.168 132.334 855.816 123.515 855.463 123.162C838.53 114.695 843.469 131.628 831.122 -74.0357C836.413 -68.3914 840.999 -61.6888 844.88 -54.6335ZM828.652 -76.8578C841.352 136.567 842.41 115.401 834.649 104.465C823.714 89.296 827.241 109.051 815.6 -87.0881C818.422 -85.3243 821.95 -83.2077 828.652 -76.8578ZM823.008 86.1211C803.959 49.7859 809.956 79.0657 799.373 -93.7907C817.717 -88.852 811.367 -105.785 823.008 86.1211ZM793.376 -95.2018C798.667 -94.1435 796.198 -108.96 805.722 52.6081C801.489 45.2 796.903 37.7918 791.964 31.0892C787.731 -41.9338 790.553 -5.24591 796.198 -28.1758C798.667 -37.3478 795.492 -47.5781 787.026 -53.9279C783.851 -101.904 781.381 -96.9656 793.376 -95.2018ZM781.734 -95.9073C785.262 -39.8172 787.731 -61.336 771.504 -57.4556C769.035 -97.6712 765.154 -95.2018 781.734 -95.9073ZM766.565 -93.438C769.035 -54.2807 769.035 -57.1028 768.682 -56.7501C757.746 -51.8113 753.865 -41.2283 764.449 -30.6452C765.86 -29.2341 767.623 -31.3507 766.212 -32.409C760.568 -38.0533 758.804 -44.0504 764.096 -49.6947C776.443 -62.7471 796.55 -46.8725 791.964 -29.2341C789.142 -17.5928 774.679 -7.0097 759.51 -10.1846C758.451 -10.5374 759.157 -5.24591 754.218 -87.4409C760.215 -91.3214 763.39 -92.3797 766.565 -93.438ZM752.102 -86.0298C756.688 -12.3013 762.685 -1.01266 743.635 -19.3566C739.755 -77.9162 736.58 -74.7413 752.102 -86.0298ZM737.638 -70.8608C741.166 -15.8289 741.871 -19.3566 737.638 -25.7064C728.819 -38.7589 728.113 -56.3973 737.638 -70.8608ZM731.641 -69.8025C728.819 -64.1582 727.055 -58.8667 726.35 -51.4585C724.938 -75.7996 722.822 -74.7412 731.641 -69.8025ZM722.469 -73.6829C728.819 28.6198 731.994 11.3342 715.414 18.3896C709.064 -84.266 704.125 -78.9745 722.469 -73.6829ZM704.831 -82.1494C729.525 -107.901 730.583 -130.126 748.574 -153.409C783.498 -195.741 797.962 -129.773 705.889 -80.0328C694.953 -74.0357 710.122 -81.0911 730.936 -105.079C764.096 -143.884 755.982 -142.826 754.924 -141.062C726.35 -95.5546 692.131 -69.097 704.831 -82.1494ZM712.944 19.4479C696.012 27.2088 702.009 44.1417 694.953 -71.5663C712.592 -80.3855 706.595 -82.8549 712.944 19.4479ZM692.131 -70.1553C699.186 43.7889 702.009 23.6811 685.781 35.6752C679.784 -68.7442 676.256 -60.6305 692.131 -70.1553ZM691.426 -81.7966C652.621 -33.1146 689.309 -78.2689 705.889 -126.951C717.178 -160.464 710.828 -154.114 710.475 -153.056C705.536 -128.009 693.895 -96.6129 676.609 -69.097C683.665 -84.266 688.956 -101.904 691.073 -126.598C700.95 -235.604 772.209 -182.336 691.426 -81.7966ZM677.315 -103.668C661.793 -85.3243 666.379 -92.7324 664.615 -111.782C679.431 -124.129 681.548 -143.178 677.315 -103.668ZM678.373 -131.89C661.087 -106.49 664.968 -114.957 662.146 -130.479C677.315 -146.706 676.609 -167.872 678.373 -131.89ZM675.198 -155.878C657.56 -123.07 662.146 -133.654 656.149 -153.056C656.149 -153.409 664.262 -163.639 668.848 -180.219C671.671 -172.105 673.787 -163.992 675.198 -155.878ZM666.732 -186.569C668.848 -180.924 658.618 -161.522 655.09 -156.231C649.799 -172.458 648.741 -170.694 649.446 -172.458C661.087 -203.502 656.149 -218.671 666.732 -186.569ZM648.035 -175.28C645.918 -179.866 643.802 -184.452 641.332 -188.685C642.744 -190.802 644.86 -212.321 643.449 -225.726C657.913 -210.204 659.676 -208.793 648.035 -175.28ZM639.216 -191.86C620.519 -223.609 634.63 -206.677 621.225 -243.364C640.98 -231.723 645.213 -228.548 639.216 -191.86ZM617.697 -245.128C619.814 -239.837 625.458 -224.315 626.516 -210.557C622.283 -215.849 618.05 -220.787 613.111 -225.373C611.347 -239.484 603.939 -248.303 598.295 -253.242C604.997 -251.125 611.7 -248.656 617.697 -245.128ZM591.239 -255.711C606.408 -246.539 612.405 -226.432 609.231 -229.607C589.476 -245.834 581.715 -251.831 555.963 -260.65C567.604 -260.297 579.598 -258.886 591.239 -255.711ZM553.846 -259.239C570.779 -253.242 586.653 -244.423 600.411 -232.781C595.473 -234.898 588.417 -237.367 583.831 -237.72C575.012 -246.539 565.84 -253.595 553.846 -259.239ZM587.006 -234.898C605.703 -230.665 610.642 -223.962 617.697 -215.849C587.359 -220.435 610.994 -210.91 587.006 -234.898ZM601.47 -214.79C620.872 -214.437 620.166 -213.732 629.691 -199.621C595.825 -210.91 609.231 -197.857 601.47 -214.79ZM632.16 -196.446C650.152 -168.225 641.685 -184.099 608.525 -187.627C606.408 -202.443 598.295 -208.088 632.16 -196.446ZM642.391 -176.691C643.096 -176.339 642.391 -177.75 644.86 -172.811C655.09 -150.234 644.507 -172.811 610.289 -172.458C608.525 -185.51 601.822 -189.038 642.391 -176.691ZM610.642 -169.989C623.694 -169.989 645.213 -161.522 650.152 -159.406C651.916 -154.82 653.327 -150.234 654.738 -145.648C604.997 -165.05 613.817 -148.117 610.642 -169.989ZM613.817 -154.467C625.811 -154.114 649.799 -144.942 655.796 -142.826C657.207 -136.828 658.618 -131.184 659.676 -125.187C624.4 -150.586 621.225 -127.304 613.817 -154.467ZM620.872 -137.534C641.332 -136.123 658.971 -122.365 660.382 -120.954C664.968 -90.6158 660.382 -118.132 630.044 -125.187C626.869 -128.715 624.752 -130.831 620.872 -137.534ZM632.513 -122.012C644.155 -118.132 658.618 -106.138 661.793 -102.257C663.204 -73.3302 662.851 -91.6741 646.977 -100.141C642.743 -109.665 638.51 -115.31 632.513 -122.012ZM662.146 -82.5022C661.44 -70.508 657.913 -45.1087 657.913 -51.8113C657.207 -86.7354 637.805 -113.546 662.146 -82.5022ZM663.557 -39.8172C666.379 6.74823 669.907 -12.654 648.035 -22.1788C655.09 -26.7647 658.971 -32.7618 663.557 -39.8172ZM464.948 8.51205C454.365 2.16223 445.193 -7.71527 439.902 -18.6511C436.021 -27.4703 444.135 -6.3042 465.654 -0.307129C465.301 2.51501 464.948 5.33716 464.948 8.51205ZM466.007 -3.12927C446.604 -8.77356 430.377 -28.5286 435.669 -56.0445C439.902 -43.3449 449.427 -20.4149 467.771 -12.654C467.065 -9.47913 466.359 -6.30417 466.007 -3.12927ZM558.785 -38.0533C595.825 -2.42374 624.047 -14.0651 613.111 -9.12634C566.193 9.57037 555.257 -10.8902 537.619 -23.2371C548.554 -33.4673 560.196 -34.8784 558.785 -38.0533ZM550.671 -46.5198C564.782 -31.3508 557.374 -45.8143 535.502 -24.6481C532.68 -26.412 530.21 -28.1758 524.566 -31.3507C528.094 -36.6423 547.496 -49.6947 550.671 -46.5198ZM509.397 -91.3214C528.799 -77.5634 529.505 -70.8608 547.849 -50.0475C542.557 -47.9309 527.741 -40.8755 522.45 -32.7618C514.689 -36.995 505.164 -40.1699 496.345 -40.1699C490.7 -40.1699 487.525 -72.2719 509.397 -91.3214ZM499.52 -96.9656C518.922 -89.5575 480.47 -83.9132 492.111 -39.8172C486.467 -38.7589 482.234 -36.6423 478.354 -33.1146C467.418 -70.508 490.348 -100.846 499.52 -96.9656ZM492.817 -99.7878C483.998 -91.6741 464.596 -68.7442 476.237 -30.998C473.768 -28.1758 471.298 -24.2954 468.476 -15.4762C418.383 -36.995 436.021 -117.779 492.817 -99.7878ZM97.3638 -4.18759C82.5476 -14.4179 97.0111 -36.2895 132.993 -10.1846C162.273 12.7453 108.3 3.92609 97.3638 -4.18759ZM140.754 66.0133C86.0753 82.5934 88.5446 22.9756 136.874 52.9609C139.696 54.7247 142.871 57.1941 144.988 59.6635C142.871 65.6605 145.34 64.6022 140.754 66.0133ZM146.046 93.5292C104.772 133.039 80.0782 78.713 136.521 83.6517C146.399 85.0628 153.101 86.8266 146.046 93.5292ZM439.902 15.9202C436.021 21.2117 426.497 21.9173 419.794 21.5645C357.354 16.273 363.704 -88.1464 419.794 -79.3272C398.628 -28.5286 440.255 15.5674 439.902 15.9202ZM427.555 -99.0823C420.147 -100.846 413.091 -101.199 406.389 -100.493C403.567 -104.374 401.097 -107.901 398.275 -111.429C420.147 -122.718 443.782 -125.187 443.077 -123.776C439.902 -114.604 434.257 -106.49 427.555 -99.0823ZM396.511 -113.546C394.042 -116.721 391.573 -119.896 388.75 -123.07C407.8 -132.948 426.849 -137.181 445.193 -135.77C444.135 -116.721 441.666 -136.828 396.511 -113.546ZM387.339 -125.187C384.87 -128.362 382.048 -131.537 379.226 -134.712C395.1 -142.826 418.383 -151.292 444.488 -147.059C448.368 -126.245 438.844 -151.997 387.339 -125.187ZM442.724 -153.761C447.31 -141.062 427.908 -163.286 377.815 -136.476C376.051 -138.592 375.698 -138.945 369.701 -145.648C393.336 -158.7 438.138 -166.461 442.724 -153.761ZM439.902 -160.111C410.975 -166.461 384.87 -156.936 367.584 -147.411C364.762 -150.586 361.94 -153.409 359.118 -156.231C382.753 -169.636 429.672 -180.924 439.902 -160.111ZM432.494 -171.753C402.508 -178.808 375.345 -168.93 357.001 -158.7C354.179 -161.522 351.357 -164.697 348.182 -167.519C371.818 -180.924 415.914 -193.271 432.494 -171.753ZM346.771 -169.283C338.657 -177.397 342.185 -173.869 338.305 -178.455C362.646 -192.919 399.333 -203.854 421.205 -184.099C391.22 -190.096 364.762 -179.866 346.771 -169.283ZM336.541 -180.219C333.719 -183.394 331.249 -186.216 328.427 -189.391C342.185 -197.505 362.646 -206.677 386.634 -206.324C424.733 -187.98 386.281 -209.851 336.541 -180.219ZM380.99 -209.146C325.252 -206.677 334.424 -178.808 319.608 -201.385C356.648 -223.609 365.82 -215.849 380.99 -209.146ZM355.943 -218.671C312.905 -209.851 322.43 -193.271 312.2 -213.732C311.847 -214.437 327.369 -222.198 340.068 -225.726C345.007 -223.257 348.182 -221.846 355.943 -218.671ZM336.893 -227.843C307.614 -218.671 312.905 -209.851 306.555 -227.49C327.016 -238.778 322.783 -235.251 336.893 -227.843ZM321.372 -237.015C303.028 -229.959 305.85 -225.373 302.322 -241.601C313.258 -247.245 307.966 -246.539 321.372 -237.015ZM308.672 -247.245C300.558 -243.717 301.617 -240.895 299.853 -256.77C302.322 -253.242 305.497 -250.067 308.672 -247.245ZM297.383 -256.064C303.733 -199.621 344.654 -169.989 372.876 -136.828C411.68 -92.0269 402.156 -101.199 391.925 -96.9656C369.701 -142.826 291.739 -161.169 297.383 -256.064ZM294.914 -245.834C294.914 -219.376 300.558 -226.079 290.328 -219.023C291.386 -228.195 292.797 -237.015 294.914 -245.834ZM289.622 -209.499C289.975 -217.965 289.27 -215.143 297.031 -221.14C298.089 -216.201 298.794 -212.321 300.206 -208.088C287.506 -198.916 289.27 -199.621 289.622 -209.499ZM289.622 -198.21C304.792 -207.029 298.794 -208.793 305.497 -193.977C287.859 -182.336 289.622 -182.688 289.622 -198.21ZM290.681 -182.336C311.847 -192.566 303.733 -195.388 312.552 -180.924C289.622 -166.108 292.092 -168.93 290.681 -182.336ZM293.15 -167.519C320.313 -179.161 309.378 -183.394 320.666 -168.578C315.022 -165.05 306.555 -160.111 295.972 -156.231C294.914 -160.111 293.856 -163.639 293.15 -167.519ZM297.031 -153.761C330.191 -166.461 316.786 -172.105 330.544 -157.289C321.019 -151.292 311.494 -146.353 301.264 -142.826C299.5 -146.706 298.089 -150.234 297.031 -153.761ZM302.322 -140.709C341.479 -154.114 324.547 -162.581 341.127 -146.706C333.013 -141.414 321.372 -134.712 307.614 -130.479C305.497 -134.006 303.733 -137.181 302.322 -140.709ZM308.672 -128.362C353.121 -142.473 334.424 -152.35 352.062 -136.828C340.068 -128.362 327.369 -122.365 315.022 -118.485C312.905 -121.659 310.789 -124.834 308.672 -128.362ZM324.547 -106.843C322.077 -109.665 319.961 -111.782 316.786 -116.368C358.06 -129.068 346.771 -142.473 363.351 -126.598C355.943 -120.954 341.832 -112.135 324.547 -106.843ZM326.31 -104.727C372.17 -119.19 358.06 -133.301 373.934 -116.015C365.115 -109.313 351.71 -101.199 335.482 -95.9073C332.307 -98.7295 329.485 -101.552 326.31 -104.727ZM337.599 -93.7907C381.695 -108.607 370.054 -123.071 383.106 -104.374C374.992 -98.3767 362.998 -90.6158 348.182 -85.3243C344.654 -88.1464 341.127 -90.9686 337.599 -93.7907ZM350.651 -83.5605C388.398 -98.024 381.695 -109.665 388.75 -95.2018C359.118 -80.0328 377.109 -65.5693 350.651 -83.5605ZM428.26 -93.7907C425.438 -89.9103 422.969 -85.6771 420.852 -81.4438C405.331 -84.6188 391.573 -77.9162 382.048 -65.5693C351.357 -23.5899 390.867 35.6752 431.435 23.3283C435.316 22.2701 438.843 20.5062 441.313 16.9785C444.488 20.1534 448.368 23.3283 452.249 25.7977C447.31 32.5003 434.61 36.028 420.147 34.6169C333.366 26.856 347.477 -114.957 428.26 -93.7907ZM372.876 16.273C393.689 40.614 411.68 32.1476 372.523 31.442C373.229 26.5033 373.229 21.2117 372.876 16.273ZM370.406 92.4709C371.465 93.882 373.581 92.4709 372.523 91.0598C367.937 85.0628 360.882 76.5963 354.532 72.7159C359.823 66.3661 360.176 64.2495 360.882 64.955C369.701 70.2465 381.342 82.5934 386.987 90.0015C387.692 91.0598 394.395 92.4709 376.051 75.1853C374.287 73.7742 363.351 63.5439 361.234 63.8967C365.82 56.8413 361.234 53.3136 389.103 73.7742C390.514 74.8325 391.925 72.7159 390.514 71.6576C361.94 52.2553 364.762 58.2524 366.526 53.6664C371.818 41.3195 371.465 36.3808 371.818 36.3808C410.622 38.8502 449.427 74.127 411.68 92.8237C394.042 102.348 396.159 121.045 382.753 130.923C367.584 142.211 365.115 122.456 336.541 89.296C354.885 76.9491 350.651 63.5439 370.406 92.4709ZM292.797 111.52C292.797 118.576 292.092 125.631 292.092 124.926C292.092 126.689 294.561 126.689 294.561 124.926C295.972 96.7041 290.328 103.054 301.617 101.643C305.144 118.929 301.617 133.745 304.439 133.745C306.203 133.745 306.203 132.334 305.144 115.401C303.733 97.7625 300.206 102.701 311.847 99.8791C314.669 107.64 315.375 118.223 315.022 126.337C315.022 128.101 317.491 128.101 317.491 126.337C317.138 92.8237 306.555 102.348 320.313 97.0569C324.194 104.818 325.958 117.165 326.31 125.631C326.31 127.395 329.133 127.042 328.78 125.278C324.899 90.7071 316.786 98.468 325.958 94.2348C324.899 95.9986 361.587 137.625 354.179 154.911C350.651 161.966 343.596 157.028 330.544 155.616C313.964 153.5 286.095 167.258 269.867 157.027C261.401 149.267 270.926 148.208 280.451 100.232C293.856 104.112 292.797 98.8208 292.797 111.52ZM238.118 78.0074C231.416 81.5351 222.597 84.3572 215.188 86.4738C214.13 86.8266 209.897 92.4709 231.416 82.9462C236.002 81.1823 241.293 78.3602 244.821 75.1853C249.407 82.5934 251.876 79.4185 238.824 90.7071C231.769 96.7041 224.008 102.701 224.36 102.348C221.891 104.465 223.655 110.815 249.76 82.5934C254.698 88.5905 257.521 86.1211 248.701 97.7625C240.235 108.698 235.649 109.404 237.766 111.52C239.529 113.284 249.054 101.29 250.465 99.1735C258.932 87.5322 254.346 87.5322 258.932 91.0598C255.757 105.171 243.763 151.383 229.299 152.089C208.839 154.205 208.133 128.453 204.253 117.87C196.139 95.2931 148.515 77.3019 175.678 63.1912C189.084 55.4302 215.541 58.9579 231.769 57.5469C238.824 56.8413 236.355 55.0775 238.471 61.7801C240.235 67.4244 246.585 69.1882 219.069 72.3631C217.305 72.7159 217.658 75.1853 219.422 74.8325C225.771 73.7742 235.649 71.6576 241.293 68.8354C243.763 74.127 246.232 73.7742 238.118 78.0074ZM253.993 -13.3596C253.287 -14.7706 250.818 -13.7123 251.876 -12.3013C266.34 15.2147 265.987 2.8678 251.876 13.4508C239.882 -1.01266 239.177 -7.00974 237.06 -5.24591C233.532 -2.77652 252.935 12.0398 248.701 16.273C243.057 21.5645 246.232 26.856 229.299 7.45377C225.066 2.8678 227.888 14.1563 243.057 22.9756C239.882 27.5616 243.057 28.2671 230.005 22.9756C221.185 19.0951 218.011 16.9785 217.305 19.0951C216.599 20.8589 217.658 20.5062 229.299 24.7394C242.704 29.3254 240.235 26.1505 238.118 33.5586C179.912 42.3778 155.923 11.3342 171.445 -5.59866C186.261 -21.4732 202.842 -10.5374 218.716 -16.8872C231.416 -22.1788 236.002 -33.4673 244.115 -39.8172C259.637 -52.5168 289.27 -21.826 290.681 9.57037C262.107 -8.77356 272.69 27.2088 253.993 -13.3596ZM222.949 -105.785C224.008 -123.776 250.112 -123.07 246.938 -78.6217C243.41 -41.581 221.891 -92.3797 222.949 -105.785ZM178.148 -67.3331C172.151 -84.266 196.492 -93.7907 210.602 -51.4585C221.538 -16.1817 182.381 -54.2807 178.148 -67.3331ZM151.69 -30.6452C111.827 -47.9308 121.705 -71.5663 138.638 -64.511C150.985 -59.5722 186.614 -16.8872 151.69 -30.6452ZM157.334 -13.3596C180.617 -39.8172 203.547 -17.5928 224.713 -34.8784C233.885 -45.4615 233.885 -58.1611 244.115 -57.8084C278.334 -60.2778 304.086 -13.3596 300.206 20.5062C298.089 16.6257 295.62 13.8036 292.445 11.3342C293.15 -16.5345 270.573 -47.9309 250.818 -45.8143C232.827 -44.0504 232.121 -15.8289 201.783 -18.2983C142.518 -22.5315 150.985 49.786 237.413 36.028C237.06 37.4391 236.707 37.0863 236.355 42.0251C165.801 50.8443 132.993 14.8619 157.334 -13.3596ZM171.445 121.751C140.049 169.374 103.714 122.103 159.804 114.343C170.034 113.284 176.737 113.637 171.445 121.751ZM189.084 156.675C162.979 207.473 121.705 164.436 176.737 150.678C192.258 147.15 192.258 150.325 189.084 156.675ZM212.014 182.78C209.191 239.928 154.16 217.704 198.256 182.074C211.661 172.197 212.366 176.43 212.014 182.78ZM225.066 171.491C197.197 173.96 195.786 130.217 186.261 118.576C177.442 107.993 165.095 100.937 157.334 88.5905C126.291 39.9084 198.961 50.8443 228.946 48.0221C238.471 46.9638 234.943 44.8472 236.355 53.6664C222.597 57.1941 178.148 48.0221 166.859 66.0133C154.865 85.0628 184.498 93.5292 196.844 111.873C204.253 123.515 202.842 149.267 220.48 154.205C234.238 158.439 240.588 149.619 246.938 136.92C268.809 90.0015 252.935 88.2377 266.34 95.2931C261.754 115.754 246.232 171.844 225.066 171.491ZM262.812 190.54C284.684 243.103 225.419 246.983 250.112 195.832C256.11 184.543 258.932 181.721 262.812 190.54ZM286.448 196.89C287.153 193.363 288.211 190.188 289.622 187.013C296.325 186.307 294.914 185.602 297.031 188.424C331.955 233.931 275.159 252.628 286.448 196.89ZM369.348 187.013C403.919 232.167 347.124 251.217 358.412 195.479C360.176 187.718 362.998 178.899 369.348 187.013ZM366.879 177.135C357.707 179.957 345.007 167.611 309.025 176.43C292.092 180.663 253.64 184.896 250.818 169.727C249.407 163.025 254.346 159.85 262.812 127.748C273.748 91.4126 265.634 96.7041 278.687 100.232C267.398 147.503 252.935 157.733 274.453 163.377C298.089 169.727 307.261 155.969 343.243 161.966C382.753 167.258 331.602 94.9403 326.31 94.2348C333.366 90.7071 331.249 84.3572 354.179 121.751C364.762 138.331 383.106 173.255 366.879 177.135ZM429.319 190.188C436.021 207.121 412.033 217.351 396.159 174.666C384.164 139.742 424.38 176.077 429.319 190.188ZM450.838 163.377C460.715 178.899 438.491 193.363 415.208 154.205C396.511 121.045 443.782 151.03 450.838 163.377ZM432.141 109.757C487.878 121.751 456.835 172.902 429.319 123.162C424.733 114.343 422.263 107.64 432.141 109.757ZM418.03 106.934C402.861 121.045 410.975 156.322 378.873 156.675C376.756 149.267 373.229 141.858 369.701 135.509C388.045 141.506 394.747 121.398 402.861 106.582C410.622 92.8237 418.736 97.4097 426.849 86.1211C440.607 67.4244 419.441 48.3749 396.511 39.5557C412.033 42.7306 432.494 49.786 439.196 64.2495C452.954 93.1765 421.205 103.759 418.03 106.934Z" fill="url(#paint5_linear_519_5362)"/>
<path d="M956.002 272.735C937.658 262.858 873.101 187.366 856.521 171.138C829.358 145.386 783.498 162.319 752.454 182.78C749.985 184.543 740.813 257.566 746.457 270.266C750.691 280.849 761.626 286.493 772.209 284.73C808.192 278.733 780.323 235.695 769.74 215.94C831.122 309.776 866.046 256.508 953.885 277.321C957.06 278.027 958.824 274.147 956.002 272.735ZM919.314 245.572C896.737 253.333 908.025 256.155 888.976 247.336C913.67 233.225 911.906 237.811 919.314 245.572ZM909.436 235.342C878.04 244.514 893.915 250.158 874.865 240.281C878.745 237.459 889.329 230.756 903.792 229.345C910.142 236.4 908.025 233.931 909.436 235.342ZM872.748 239.222C867.81 236.753 863.224 233.931 858.285 231.109C863.224 227.934 876.982 220.173 896.031 220.526C909.436 235.695 896.031 219.115 872.748 239.222ZM855.816 229.698C852.641 227.934 851.23 227.228 843.469 222.29C849.113 218.409 865.693 209.59 886.154 210.296C903.439 229.345 887.917 207.121 855.816 229.698ZM841.352 220.879C837.824 218.762 834.649 216.293 831.122 214.176C835.355 210.648 852.993 197.596 875.923 198.301C893.915 218.762 877.334 196.185 841.352 220.879ZM828.652 212.412C824.772 209.943 820.891 207.121 816.658 205.004C822.655 200.771 843.469 186.66 865.693 187.013C884.39 208.179 864.635 181.721 828.652 212.412ZM856.521 176.43C873.454 195.126 855.816 171.491 814.189 203.593C808.192 200.065 805.37 199.007 801.842 197.243C809.956 191.246 835.002 173.608 856.521 176.43ZM799.373 196.185C794.787 194.068 790.201 192.304 785.615 190.54C802.548 176.077 836.413 157.028 854.052 173.608C830.769 172.549 805.722 191.246 799.373 196.185ZM837.824 164.083C810.308 165.494 784.556 187.718 782.44 189.835C777.501 188.424 772.562 187.013 767.624 185.954C788.084 170.08 813.836 155.969 837.824 164.083ZM756.335 183.132C769.035 175.371 782.087 169.022 796.55 165.141C781.734 171.844 766.212 183.132 764.801 184.896C755.277 183.132 754.924 184.191 756.335 183.132ZM754.218 190.188C753.866 189.835 753.866 189.835 753.16 189.835C753.16 188.071 752.807 188.071 754.218 190.188ZM751.043 268.502C747.868 261.447 748.221 256.861 752.454 198.654C754.218 176.783 765.154 303.779 751.043 268.502ZM771.504 279.791C751.043 283.319 767.271 277.674 756.335 202.535C773.268 247.689 775.737 274.147 776.795 278.38C775.384 279.085 773.621 279.438 771.504 279.791ZM775.737 236.753C782.087 250.511 792.317 271.324 777.501 278.027C777.501 277.674 777.501 277.321 777.854 276.616C782.793 247.689 724.586 127.395 775.737 236.753ZM754.571 185.602C778.559 188.424 769.035 186.307 772.915 215.234C767.271 207.121 760.568 197.243 754.571 185.602ZM786.32 234.636C777.854 222.995 772.915 220.879 773.973 189.835C779.265 191.246 782.792 192.657 789.848 195.479C782.44 232.167 794.787 246.983 786.32 234.636ZM801.136 251.569C794.081 244.867 796.55 247.336 793.728 243.808C787.731 225.817 791.259 202.887 792.67 196.538C793.023 196.538 803.253 201.476 803.959 201.829C797.962 253.686 820.892 266.386 801.136 251.569ZM814.189 260.036C803.253 242.045 805.37 210.648 806.075 202.887C810.661 205.357 815.247 208.179 819.833 211.001C813.836 261.094 842.41 274.852 814.189 260.036ZM834.297 267.444C825.477 265.68 820.186 234.989 822.303 212.412C826.183 214.881 822.303 212.059 831.475 218.762C828.652 266.386 858.285 272.383 834.297 267.444ZM848.055 269.208C834.297 251.922 833.944 227.581 833.944 220.173C837.824 222.642 841.705 225.465 845.585 227.934C846.644 269.913 874.512 272.03 848.055 269.208ZM863.224 269.913C850.171 252.628 846.996 228.639 849.466 230.05C853.699 232.52 857.579 234.989 861.813 237.106C862.871 270.972 885.095 269.913 863.224 269.913ZM875.923 269.561C866.751 256.155 864.635 244.161 864.282 238.517C868.868 240.986 873.807 243.456 878.745 245.925C879.451 271.677 893.209 268.855 875.923 269.561ZM887.212 268.855C882.626 259.33 881.568 251.217 881.215 247.336C900.264 256.508 888.623 247.689 895.678 268.149C895.326 268.149 890.034 268.855 887.212 268.855ZM895.678 253.686C910.847 260.036 906.614 255.803 911.2 267.444C897.089 267.444 897.795 271.677 895.678 253.686ZM913.67 267.444C912.258 263.916 911.2 261.447 910.847 260.036C951.063 275.205 947.183 267.797 913.67 267.444ZM905.203 254.392C923.547 244.867 920.019 246.983 929.191 255.803C940.48 267.444 955.649 275.205 905.203 254.392Z" fill="url(#paint6_linear_519_5362)"/>
<path d="M959.177 203.24C916.139 191.599 910.495 173.96 906.261 176.077C920.372 235.695 964.468 286.141 1034.67 290.727C1073.12 292.138 1098.52 314.362 1095.35 303.779C1077.35 227.228 994.806 213.47 959.177 203.24ZM1078.77 276.616C1060.07 270.619 1056.19 270.619 1056.19 271.324C1053.72 269.561 1049.13 266.738 1040.67 261.447C1074.18 265.327 1069.95 261.094 1078.77 276.616ZM1069.24 262.858C1060.77 260.389 1046.66 259.683 1037.49 260.036C1021.26 250.511 1013.5 250.864 1037.84 250.158C1057.95 248.747 1058.66 250.158 1069.24 262.858ZM1019.15 250.158C1001.16 241.692 1000.8 244.161 1012.09 242.045C1044.9 236.048 1044.55 239.222 1055.48 248.747C1044.9 246.278 1029.73 247.689 1019.15 250.158ZM1002.21 242.75C1001.51 242.397 983.165 235.342 982.459 234.989C994.101 232.167 1015.62 227.228 1027.26 229.345C1053.01 243.103 1035.73 231.462 1002.21 242.75ZM976.462 232.52C958.824 224.759 961.646 226.523 972.935 224.759C1007.51 218.762 1008.21 220.526 1022.67 227.581C1002.57 225.112 982.812 235.342 976.462 232.52ZM1002.21 218.762C968.349 218.409 969.76 230.403 952.474 220.173C947.888 217.351 948.241 218.056 958.118 216.645C985.282 212.059 986.693 213.47 1002.21 218.762ZM977.521 211.707C942.597 212.412 955.649 223.701 936.952 209.237C961.646 207.121 962.352 208.532 977.521 211.707ZM934.13 207.121C926.722 201.124 920.019 195.126 914.728 186.66C948.241 212.059 970.818 202.887 934.13 207.121ZM936.247 230.403C928.486 218.409 921.43 205.71 915.786 192.304C921.43 200.418 928.486 207.121 936.247 213.118C940.833 237.811 954.943 258.978 936.247 230.403ZM952.121 250.864C946.124 239.928 941.891 226.523 938.363 214.529C954.591 226.523 947.888 215.587 952.121 240.986C954.591 255.803 957.06 256.155 952.121 250.864ZM957.766 256.861C955.296 249.1 953.532 236.753 951.768 224.406C951.416 222.642 950.357 223.348 961.646 229.345C957.766 260.389 969.76 268.149 957.766 256.861ZM966.232 263.916C963.41 257.214 963.41 241.692 963.057 229.698C976.11 236.4 969.407 228.287 970.112 254.039C971.171 270.266 976.11 271.677 966.232 263.916ZM977.873 272.03C971.876 268.502 972.229 255.097 972.582 243.456C972.935 232.167 970.465 233.578 982.107 238.517C978.226 275.558 993.042 280.849 977.873 272.03ZM987.751 276.616C984.223 270.972 983.87 254.039 983.165 239.222C998.687 245.925 991.984 238.164 992.69 263.563C994.101 281.202 999.745 281.907 987.751 276.616ZM995.159 252.98C995.159 242.045 993.395 243.808 1000.8 246.278C1008.56 249.453 1004.33 245.22 1005.39 266.738C1005.74 271.677 1006.45 278.733 1008.92 282.966C997.276 280.849 995.159 284.377 995.159 252.98ZM1010.68 283.319C1008.92 279.438 1008.21 270.619 1007.86 266.386C1005.74 244.867 1004.33 247.336 1017.38 253.333C1013.86 287.905 1029.02 286.493 1010.68 283.319ZM1021.97 285.082C1020.21 280.144 1019.85 267.444 1018.79 254.039C1022.32 255.803 1025.85 257.566 1029.38 259.33C1025.14 288.257 1037.49 286.846 1021.97 285.082ZM1035.02 286.141C1031.85 285.788 1031.14 287.905 1031.14 273.794C1030.44 257.919 1028.32 258.272 1039.26 264.975C1035.37 288.963 1047.37 286.846 1035.02 286.141ZM1042.78 286.846C1041.02 282.26 1041.02 274.499 1040.31 265.68C1043.84 267.797 1046.31 269.208 1049.49 271.324C1041.72 285.435 1056.89 287.905 1042.78 286.846ZM1050.9 285.082C1048.43 266.738 1051.95 272.383 1059.36 277.674C1058.66 281.555 1059.36 286.493 1060.77 289.668C1050.9 287.199 1051.6 288.963 1050.9 285.082ZM1065.36 291.079C1062.54 290.374 1063.24 292.138 1061.48 281.202C1061.13 278.733 1058.3 276.263 1071.71 286.846C1093.58 304.132 1085.11 297.076 1065.36 291.079ZM1080.18 279.085C1083.7 285.435 1086.53 292.138 1088.64 298.84C1062.89 272.735 1047.72 272.03 1080.18 279.085Z" fill="url(#paint7_linear_519_5362)"/>
<path d="M1193.41 164.083C1175.78 147.855 1158.84 117.165 1160.61 112.579C1164.84 101.643 1156.37 90.707 1147.55 93.5292C1144.38 94.5875 1145.79 99.5263 1148.97 98.468C1153.55 97.0569 1155.67 100.937 1156.37 101.643C1168.02 122.103 1127.8 127.042 1126.39 103.759C1123.57 68.4827 1181.07 50.1387 1184.6 -21.1205C1183.89 -76.5051 1142.26 -101.552 1105.22 -89.2047C1090.05 -84.6188 1062.18 -66.6276 1063.95 -61.3361C1075.24 -15.829 1066.42 22.9755 1032.55 54.0192C1029.38 56.8413 1038.9 69.541 1034.67 88.9432C1030.08 111.168 1012.8 109.404 1013.86 114.695C1018.44 141.153 1015.62 174.666 989.162 183.132C976.462 189.129 1031.85 211.707 1086.17 185.602C1151.79 153.853 1155.32 103.759 1147.55 143.27C1131.33 236.4 1213.17 271.324 1217.05 332.001C1219.17 335.175 1239.98 280.849 1232.92 228.287C1227.99 200.771 1211.76 182.074 1193.41 164.083ZM1230.81 237.811C1227.99 245.572 1219.87 257.919 1213.88 267.797C1212.82 269.208 1214.23 269.561 1209.29 257.566C1233.98 235.695 1228.69 221.584 1230.81 237.811ZM1227.63 221.584C1229.04 228.287 1231.87 227.581 1213.88 250.158C1207.53 258.272 1209.99 258.625 1205.06 248.042C1226.57 230.051 1226.57 216.998 1227.63 221.584ZM1225.52 214.529C1227.63 220.526 1215.99 233.578 1210.7 239.928C1203.29 248.394 1206.11 248.747 1200.47 237.459C1228.34 210.648 1219.52 196.538 1225.52 214.529ZM1220.93 203.946C1220.58 210.296 1209.29 224.053 1204.7 230.051C1198.35 238.517 1201.18 238.87 1194.47 226.17C1223.4 201.124 1212.82 187.718 1220.93 203.946ZM1199.41 218.056C1192.36 226.17 1194.83 226.17 1190.95 219.467C1187.06 212.059 1187.42 218.056 1200.47 200.771C1203.29 196.538 1207.88 190.188 1208.58 184.896C1215.99 194.421 1220.58 193.363 1199.41 218.056ZM1207.53 183.838C1206.47 189.835 1196.94 201.476 1187.77 213.47C1180.36 199.007 1181.42 206.415 1193.77 190.188C1203.65 176.077 1198.71 173.255 1207.53 183.838ZM1200.12 175.371C1198.71 180.31 1190.95 189.835 1182.48 201.829C1180.72 198.301 1179.3 194.421 1177.89 190.893C1200.12 171.138 1189.18 164.083 1200.12 175.371ZM1190.95 166.552C1194.83 170.433 1191.3 170.433 1176.83 189.835C1171.9 176.783 1172.6 183.838 1181.77 171.491C1188.83 161.261 1184.6 160.202 1190.95 166.552ZM1185.3 160.555C1184.24 164.788 1178.6 171.491 1173.31 178.899C1168.37 164.436 1169.43 171.844 1177.54 162.672C1183.18 154.911 1177.89 153.147 1185.3 160.555ZM1179.3 154.205C1178.25 158.086 1174.01 162.319 1169.43 167.963C1165.19 154.205 1165.9 160.555 1171.54 151.736C1175.07 145.033 1171.54 144.328 1179.3 154.205ZM1171.54 143.27C1172.95 145.386 1173.66 143.622 1167.66 153.853C1166.25 155.969 1166.96 159.497 1163.43 142.917C1156.73 110.109 1159.2 124.573 1171.54 143.27ZM1158.14 121.398C1160.61 157.38 1172.25 170.785 1151.44 142.211C1152.85 135.156 1154.96 128.1 1158.14 121.398ZM1117.22 41.3195C1121.45 64.2495 1122.86 61.0745 1112.63 60.369C1109.81 36.7335 1108.4 41.6723 1117.22 41.3195ZM1103.81 59.3107C1104.87 36.7335 1103.11 40.614 1109.1 40.9668C1111.93 63.8967 1113.34 61.0745 1103.81 59.3107ZM1118.28 41.3195C1127.8 40.9667 1124.27 36.7335 1130.97 60.369C1118.98 61.4273 1122.51 63.5439 1118.28 41.3195ZM1126.74 40.614C1136.27 39.2029 1132.03 35.3224 1142.62 58.9579C1129.92 61.0745 1133.44 63.5439 1126.74 40.614ZM1144.03 58.9579C1133.44 35.3224 1133.44 39.9084 1140.85 37.4391L1148.61 53.3136C1144.03 59.3107 1144.73 58.6051 1144.03 58.9579ZM1149.67 52.2553C1140.5 33.9114 1141.21 37.4391 1145.09 36.028C1149.67 34.2641 1147.2 32.1475 1153.9 46.611C1152.49 48.7276 1151.08 50.4915 1149.67 52.2553ZM1154.96 45.5527C1147.2 28.2671 1147.91 39.2029 1167.31 24.7394C1163.43 32.5003 1159.55 39.2029 1154.96 45.5527ZM1073.47 -30.2925C1072.42 -65.5693 1060.77 -58.8667 1086.53 -73.6829C1114.04 -89.5575 1143.67 -90.2631 1163.43 -65.5693C1131.68 -81.7966 1098.87 -66.9804 1085.47 -44.4032C1058.66 1.10392 1122.86 50.4915 1144.03 5.68993C1153.55 -15.4762 1126.39 -34.1729 1115.45 -16.5345C1114.39 -15.1234 1116.86 -13.7123 1117.57 -15.1234C1123.21 -23.2371 1135.56 -21.826 1140.5 -10.1846C1151.44 16.273 1097.11 37.439 1086.17 -12.3013C1078.06 -50.4002 1122.86 -84.6188 1167.66 -59.925C1179.66 -40.8755 1182.48 -10.8902 1169.07 20.8589C1140.5 40.9667 1093.23 46.9638 1065.71 16.9785C1071.71 2.16223 1074.18 -14.7707 1073.47 -30.2925ZM1079.12 31.7947C1081.23 33.2058 1083.7 34.6169 1086.17 35.6752C1074.88 55.0775 1077.35 52.9608 1073.12 50.8442C1065.01 47.6693 1065.36 50.8442 1079.12 31.7947ZM1059.36 43.7889C1074.53 21.9172 1069.24 24.7394 1078.06 31.0892C1063.95 50.1387 1067.83 49.0804 1059.36 43.7889ZM1087.23 36.028C1094.64 39.2029 1094.64 34.2641 1085.47 55.4302C1074.88 52.6081 1075.94 55.4302 1087.23 36.028ZM1098.52 39.5557C1093.58 61.0745 1096.4 58.6051 1086.88 55.783C1095.7 35.6752 1092.88 38.4974 1098.52 39.5557ZM1099.58 39.9084C1104.52 40.9667 1103.46 37.0863 1102.4 59.3107C1093.23 57.8996 1094.64 61.0745 1099.58 39.9084ZM1065.01 19.0951C1072.42 27.9143 1073.83 20.8589 1058.3 43.0833C1049.13 37.4391 1054.07 43.7889 1065.01 19.0951ZM1051.6 41.6723C1056.54 45.5527 1061.83 49.0804 1067.48 51.9026C1038.9 45.5527 1035.02 62.8384 1051.6 41.6723ZM996.217 185.602C1020.91 173.96 1023.38 141.858 1019.15 115.401C1054.42 98.468 1035.73 57.8996 1038.2 55.4302C1061.83 48.3749 1085.47 58.9579 1097.11 75.8908C1118.63 108.345 1094.29 139.742 1069.59 139.742C1050.19 139.389 1037.14 120.692 1042.08 106.229C1048.07 85.7683 1075.59 87.5321 1077.71 105.171C1079.12 115.754 1068.53 117.87 1069.24 119.987C1070.3 122.809 1081.23 115.401 1080.53 105.171C1077 66.7188 1010.33 98.468 1045.6 134.45C1001.86 172.902 1049.49 208.532 996.217 185.602ZM1040.31 145.033C1043.84 139.742 1040.67 139.742 1056.54 149.619C1052.66 154.558 1056.54 155.264 1040.31 145.033ZM1049.84 159.497C1033.61 151.03 1034.67 154.205 1039.61 146.092C1055.84 156.322 1053.72 152.794 1049.84 159.497ZM1047.37 136.214C1061.13 148.561 1066.07 138.684 1057.6 148.561C1041.37 138.684 1042.78 141.153 1047.37 136.214ZM1043.49 181.368C1043.49 183.132 1043.49 184.543 1043.84 186.307C1024.44 183.838 1026.56 185.602 1027.61 178.899C1027.26 177.841 1025.85 177.841 1043.49 181.368ZM1027.61 176.783C1029.02 166.905 1026.91 168.316 1044.19 174.666C1042.78 181.721 1047.02 180.663 1027.61 176.783ZM1026.91 185.249C1047.37 187.718 1042.78 185.602 1044.9 192.657C1023.38 195.126 1026.56 193.363 1026.91 185.249ZM1044.19 173.608C1026.56 166.905 1028.32 169.727 1031.49 161.261C1048.78 169.727 1045.96 166.199 1044.19 173.608ZM1032.2 160.202C1036.08 151.03 1033.26 152.441 1049.13 160.555C1044.9 169.022 1049.49 168.669 1032.2 160.202ZM1047.02 192.657C1043.14 169.022 1060.07 144.681 1069.24 145.033C1098.52 145.739 1124.98 108.345 1100.64 73.7742C1088.64 56.8413 1075.24 57.5468 1095.35 61.78C1110.16 64.955 1127.09 64.955 1142.26 61.4273C1104.16 109.404 1133.09 128.453 1152.49 120.692C1128.86 157.38 1090.05 187.366 1047.02 192.657ZM1150.73 144.681C1153.2 148.914 1158.49 155.616 1164.49 161.261C1166.25 167.611 1166.96 171.491 1170.48 181.721C1146.85 156.675 1147.55 163.025 1150.73 144.681ZM1171.9 184.896C1178.95 204.651 1181.07 203.593 1174.37 199.007C1165.9 193.01 1150.02 182.78 1149.32 172.549C1147.91 152.089 1145.79 164.436 1171.9 184.896ZM1179.66 204.651C1187.42 221.584 1193.06 224.759 1169.43 208.884C1164.49 205.709 1156.73 200.065 1153.2 195.479C1145.79 165.847 1147.91 188.424 1179.66 204.651ZM1187.77 221.231C1199.41 243.103 1204.35 245.22 1177.89 228.639C1158.49 217.351 1158.14 212.059 1154.61 200.771C1152.85 195.832 1158.14 209.59 1187.77 221.231ZM1198.35 241.692C1209.64 263.916 1210.35 262.505 1186.36 246.983C1177.19 241.339 1169.43 236.4 1165.19 228.287C1154.26 206.415 1161.67 228.287 1198.35 241.692ZM1178.95 251.217C1161.31 225.465 1172.95 245.925 1207.17 260.741C1210.35 268.502 1211.05 270.619 1212.11 274.852C1202.59 268.855 1185.65 259.33 1178.95 251.217ZM1197.65 277.321C1182.48 254.392 1178.6 256.155 1193.77 266.386C1215.99 280.496 1211.76 270.972 1215.29 286.493C1208.23 284.377 1200.82 281.555 1197.65 277.321ZM1216.34 317.537C1211.05 297.429 1206.11 288.61 1203.65 285.082C1205.76 286.493 1209.64 287.905 1215.64 288.61C1218.46 302.015 1220.58 334.823 1216.34 317.537ZM1218.11 325.651C1218.81 326.003 1219.17 325.651 1219.52 325.298C1218.11 329.884 1218.81 329.531 1218.11 325.651ZM1219.52 323.887C1225.16 295.665 1214.23 303.074 1226.22 288.257C1231.87 281.202 1225.87 296.018 1219.52 323.887ZM1230.1 273.441C1229.4 282.613 1229.4 280.144 1224.11 286.846C1217.76 294.96 1220.58 295.313 1217.4 282.966C1230.1 273.441 1232.57 250.864 1230.1 273.441ZM1220.58 276.616C1215.99 283.319 1218.11 282.613 1214.23 270.619C1235.04 243.808 1230.81 233.578 1231.87 251.217C1231.16 261.8 1233.98 255.45 1220.58 276.616Z" fill="url(#paint8_linear_519_5362)"/>
<path d="M1217.4 158.086C1181.07 160.202 1218.81 160.555 1232.22 206.768C1234.34 213.47 1237.16 252.628 1256.91 247.336C1270.32 244.161 1278.43 216.998 1250.56 189.482C1228.34 167.963 1195.53 157.38 1216.7 164.788C1259.03 179.605 1262.2 198.654 1277.73 209.943C1318.29 240.281 1330.29 149.619 1217.4 158.086ZM1214.23 167.258C1303.13 217.351 1249.15 276.616 1238.92 219.467C1232.22 174.313 1187.42 151.383 1214.23 167.258ZM1293.25 211.354C1273.85 212.412 1272.43 185.954 1232.22 168.316C1209.99 159.497 1200.82 160.908 1209.99 160.555C1307.01 157.027 1310.89 210.648 1293.25 211.354Z" fill="url(#paint9_linear_519_5362)"/>
</g>
<defs>
<linearGradient id="paint0_linear_519_5362" x1="620.435" y1="-287.352" x2="620.435" y2="259.419" gradientUnits="userSpaceOnUse">
<stop offset="0.0965347" stop-color="#E6E6E6"/>
<stop offset="0.4556" stop-color="#EAEAEA"/>
<stop offset="0.8295" stop-color="#F7F7F7"/>
<stop offset="1" stop-color="white"/>
</linearGradient>
<linearGradient id="paint1_linear_519_5362" x1="331.931" y1="-287.353" x2="331.931" y2="259.419" gradientUnits="userSpaceOnUse">
<stop offset="0.0965347" stop-color="#E6E6E6"/>
<stop offset="0.4556" stop-color="#EAEAEA"/>
<stop offset="0.8295" stop-color="#F7F7F7"/>
<stop offset="1" stop-color="white"/>
</linearGradient>
<linearGradient id="paint2_linear_519_5362" x1="964.228" y1="-287.353" x2="964.228" y2="259.42" gradientUnits="userSpaceOnUse">
<stop offset="0.0965347" stop-color="#E6E6E6"/>
<stop offset="0.4556" stop-color="#EAEAEA"/>
<stop offset="0.8295" stop-color="#F7F7F7"/>
<stop offset="1" stop-color="white"/>
</linearGradient>
<linearGradient id="paint3_linear_519_5362" x1="1302.74" y1="-287.353" x2="1302.74" y2="259.417" gradientUnits="userSpaceOnUse">
<stop offset="0.0965347" stop-color="#E6E6E6"/>
<stop offset="0.4556" stop-color="#EAEAEA"/>
<stop offset="0.8295" stop-color="#F7F7F7"/>
<stop offset="1" stop-color="white"/>
</linearGradient>
<linearGradient id="paint4_linear_519_5362" x1="776.761" y1="-287.352" x2="776.761" y2="259.419" gradientUnits="userSpaceOnUse">
<stop offset="0.0965347" stop-color="#E6E6E6"/>
<stop offset="0.4556" stop-color="#EAEAEA"/>
<stop offset="0.8295" stop-color="#F7F7F7"/>
<stop offset="1" stop-color="white"/>
</linearGradient>
<linearGradient id="paint5_linear_519_5362" x1="466.941" y1="-287.353" x2="466.941" y2="259.419" gradientUnits="userSpaceOnUse">
<stop offset="0.0965347" stop-color="#E6E6E6"/>
<stop offset="0.4556" stop-color="#EAEAEA"/>
<stop offset="0.8295" stop-color="#F7F7F7"/>
<stop offset="1" stop-color="white"/>
</linearGradient>
<linearGradient id="paint6_linear_519_5362" x1="851.072" y1="-287.353" x2="851.072" y2="259.418" gradientUnits="userSpaceOnUse">
<stop offset="0.0965347" stop-color="#E6E6E6"/>
<stop offset="0.4556" stop-color="#EAEAEA"/>
<stop offset="0.8295" stop-color="#F7F7F7"/>
<stop offset="1" stop-color="white"/>
</linearGradient>
<linearGradient id="paint7_linear_519_5362" x1="1000.82" y1="-287.353" x2="1000.82" y2="259.419" gradientUnits="userSpaceOnUse">
<stop offset="0.0965347" stop-color="#E6E6E6"/>
<stop offset="0.4556" stop-color="#EAEAEA"/>
<stop offset="0.8295" stop-color="#F7F7F7"/>
<stop offset="1" stop-color="white"/>
</linearGradient>
<linearGradient id="paint8_linear_519_5362" x1="1110.57" y1="-287.353" x2="1110.57" y2="259.418" gradientUnits="userSpaceOnUse">
<stop offset="0.0965347" stop-color="#E6E6E6"/>
<stop offset="0.4556" stop-color="#EAEAEA"/>
<stop offset="0.8295" stop-color="#F7F7F7"/>
<stop offset="1" stop-color="white"/>
</linearGradient>
<linearGradient id="paint9_linear_519_5362" x1="1254.28" y1="-287.353" x2="1254.28" y2="259.419" gradientUnits="userSpaceOnUse">
<stop offset="0.0965347" stop-color="#E6E6E6"/>
<stop offset="0.4556" stop-color="#EAEAEA"/>
<stop offset="0.8295" stop-color="#F7F7F7"/>
<stop offset="1" stop-color="white"/>
</linearGradient>
</defs>
</svg>
