<svg width="502" height="306" viewBox="0 0 502 306" fill="none" xmlns="http://www.w3.org/2000/svg">
<g filter="url(#filter0_d_422_10210)">
<path fill-rule="evenodd" clip-rule="evenodd" d="M441.344 183.833C441.344 183.833 439.862 185.5 438.198 185.128C436.53 184.573 435.975 185.128 434.68 186.055C433.57 187.165 432.829 185.5 431.348 186.61C430.421 187.537 429.125 187.351 428.57 187.165V180.314C428.756 180.314 429.311 180.5 430.421 181.055C432.088 181.796 431.902 182.165 433.753 182.165C435.603 181.979 435.048 183.46 437.454 183.646C439.862 183.65 439.676 184.205 441.344 183.833Z" fill="#E52B50"/>
<path fill-rule="evenodd" clip-rule="evenodd" d="M483.922 276.581H475.036C475.036 276.395 475.036 276.395 475.036 276.212V272.508C475.036 270.472 473.554 268.99 471.518 268.99H458.187C458.927 268.436 459.482 267.323 459.482 266.399V262.512C459.482 260.662 457.818 258.994 455.964 258.994H444.672V230.298C445.413 230.112 445.968 229.558 445.968 228.817C445.968 227.707 445.041 226.966 443.746 226.966H442.45V226.78C442.636 226.412 442.822 226.04 443.005 225.671C442.819 225.485 442.633 225.116 442.45 224.93C442.822 224.93 443.005 224.93 443.005 224.744C443.188 224.558 443.005 224.372 442.45 224.189C442.636 224.006 442.636 223.82 442.822 223.448C442.822 219.007 442.081 214.376 440.6 209.748C441.34 209.748 441.709 209.562 441.709 209.562C441.709 209.376 441.337 209.19 440.6 209.007C440.6 208.821 440.786 208.453 440.786 208.081C440.231 207.34 439.49 206.599 438.563 205.858C439.304 205.858 439.49 205.672 439.49 205.672C439.49 205.489 438.935 205.489 438.38 205.303C438.563 204.931 438.563 204.563 438.563 204.377C437.636 203.45 436.713 202.526 435.603 201.599C436.158 201.599 436.53 201.413 436.713 201.413C436.713 201.227 436.158 201.041 435.417 200.859V200.304H433.381C432.826 199.194 432.271 198.267 431.53 197.158C432.085 197.158 432.457 197.158 432.457 196.972C432.457 196.972 432.085 196.786 431.162 196.786C431.162 196.786 431.348 196.786 431.348 196.6C431.348 196.6 430.976 196.6 430.607 196.6C430.793 196.414 430.793 196.414 430.793 196.414C430.793 196.414 430.238 196.231 429.683 196.231C429.311 195.304 428.942 194.38 428.574 193.454V180.126H428.388V194.012C428.019 194.753 427.833 195.493 427.461 196.234C426.72 196.234 426.351 196.417 426.351 196.417C426.351 196.417 426.351 196.417 426.351 196.603C425.979 196.603 425.796 196.603 425.796 196.603C425.796 196.789 425.796 196.789 425.796 196.789C425.056 196.789 424.501 196.975 424.501 196.975C424.501 197.161 424.87 197.161 425.428 197.161C424.873 198.271 424.132 199.197 423.577 200.307H421.727V200.862C420.8 201.045 420.431 201.231 420.431 201.417C420.431 201.417 420.803 201.603 421.541 201.603C420.431 202.529 419.318 203.453 418.395 204.38C418.395 204.563 418.581 204.935 418.581 205.307C417.84 205.493 417.471 205.493 417.471 205.675C417.471 205.675 417.84 205.861 418.398 205.861C417.657 206.602 416.916 207.343 416.176 208.084C416.362 208.456 416.362 208.825 416.362 209.011C415.807 209.193 415.435 209.379 415.435 209.565C415.435 209.565 415.807 209.751 416.362 209.751C415.066 214.379 414.325 219.007 414.325 223.452C414.325 223.824 414.511 224.006 414.511 224.192C414.143 224.378 413.957 224.564 413.957 224.747C413.957 224.93 414.143 224.933 414.511 224.933C414.325 225.119 414.143 225.488 413.957 225.674C414.143 226.046 414.325 226.415 414.511 226.784V226.97H413.957C413.216 221.046 412.289 214.937 410.993 208.828C412.289 208.828 413.03 208.642 413.03 208.273C413.212 207.904 412.475 207.346 410.993 206.792C411.179 205.865 411.179 204.941 411.365 203.828C410.07 201.606 408.588 199.387 406.924 196.978C408.219 196.978 408.774 196.792 408.774 196.423C408.96 196.055 408.033 195.683 406.552 195.128C406.738 194.201 406.738 193.277 406.924 192.165C404.887 189.573 402.851 186.796 400.628 184.205C402.11 183.833 402.851 183.65 402.851 183.278C402.851 182.723 401.924 182.169 400.26 181.61V180.129C398.964 180.129 397.668 179.943 396.373 179.943C395.263 176.794 393.968 173.834 392.486 170.688C393.782 170.688 394.336 170.316 394.336 170.133C394.336 169.764 393.41 169.392 391.745 169.206C391.931 169.206 391.931 169.02 391.931 169.02C391.931 168.834 391.376 168.648 390.636 168.465C390.822 168.465 390.822 168.465 390.822 168.279C390.822 168.093 389.895 167.907 388.599 167.724C387.858 165.133 387.304 162.542 386.563 159.951V146.437H386.38V132.185C386.38 132.185 386.38 132.185 386.563 132.185V131.999H386.194V159.027C385.453 161.804 384.712 164.768 383.972 167.728C382.676 167.914 381.749 168.1 381.749 168.282C381.749 168.465 381.932 168.468 382.118 168.468C381.191 168.651 380.822 168.837 380.822 169.023V169.209C379.341 169.395 378.231 169.764 378.231 170.136C378.231 170.322 378.972 170.691 380.082 170.691C378.786 173.837 377.49 176.8 376.195 179.946C374.899 179.946 373.603 180.132 372.308 180.132C372.308 180.687 372.308 181.242 372.494 181.614C370.643 182.169 369.717 182.723 369.717 183.281C369.903 183.653 370.643 183.836 371.939 184.208C369.717 186.799 367.68 189.577 365.644 192.168C365.83 193.277 366.016 194.204 366.016 195.131C364.534 195.686 363.793 196.058 363.793 196.427C363.793 196.799 364.534 196.981 365.644 196.981C364.162 199.387 362.684 201.609 361.202 203.832C361.388 204.941 361.574 205.868 361.757 206.795C360.275 207.35 359.535 207.904 359.535 208.276C359.535 208.648 360.275 208.831 361.757 208.831C361.016 212.718 360.275 216.791 359.721 220.681L352.502 191.244C353.429 190.872 354.166 190.503 354.166 189.949C354.166 189.394 353.425 189.022 352.13 188.467V184.58L347.688 176.435C348.615 176.063 349.17 175.694 349.17 175.325C349.17 174.953 348.429 174.398 347.319 174.029V170.143L341.951 160.146C342.878 159.774 343.433 159.22 343.433 158.665C343.433 158.11 342.692 157.555 341.582 157.001V154.964H338.622L335.659 142.932C336.4 142.746 336.955 142.377 336.955 142.005C336.955 141.633 336.214 141.264 335.104 141.078C335.104 140.892 335.29 140.892 335.29 140.709C335.29 140.523 334.918 140.337 334.363 140.154C334.546 139.968 334.546 139.968 334.546 139.782C334.546 139.6 333.991 139.228 333.064 139.042L331.583 128.305V95.1574H331.397V126.999L329.915 139.032C328.988 139.218 328.434 139.587 328.434 139.773C328.434 139.959 328.434 139.959 328.616 140.145C328.062 140.331 327.689 140.517 327.689 140.699C327.689 140.882 327.689 140.882 327.875 141.068C326.766 141.254 326.025 141.623 326.025 141.995C326.025 142.364 326.394 142.736 327.321 142.922L324.357 154.954H321.397V156.991C320.102 157.546 319.547 158.1 319.547 158.655C319.547 159.21 319.919 159.765 321.029 160.137L315.66 170.133V174.023C314.551 174.395 313.81 174.95 313.81 175.318C313.81 175.687 314.365 176.059 315.292 176.428L310.83 184.574V188.461C309.535 189.015 308.794 189.387 308.794 189.942C308.794 190.497 309.349 190.869 310.458 191.238L305.831 209.934C304.721 193.088 302.313 176.056 298.795 159.21C301.386 159.024 302.867 158.655 302.867 157.914C303.053 157.173 301.572 156.064 298.795 154.951C298.981 153.101 299.349 151.25 299.721 149.583C296.944 144.955 293.981 140.51 291.021 136.068C293.243 135.882 294.539 135.514 294.725 134.959C294.725 134.404 293.057 133.477 290.283 132.554C290.466 130.703 290.652 128.85 291.024 126.813C287.137 121.445 283.065 116.262 278.806 111.077C281.397 110.708 282.879 110.15 283.065 109.226C283.065 108.299 281.214 107.376 277.879 106.449C278.065 105.34 278.065 104.413 278.065 103.489C275.66 103.303 273.065 103.117 270.474 102.934C268.069 97.0111 265.66 91.0879 263.069 85.1614C265.292 84.7893 266.587 84.4206 266.587 83.8658C266.587 83.311 264.737 82.5702 261.405 82.1981C261.588 82.0121 261.774 81.8293 261.774 81.8293C261.774 81.4573 260.847 81.0885 259.182 80.7165C259.554 80.7165 259.737 80.5337 259.737 80.3477C259.737 79.9757 258.07 79.6069 255.296 79.2381C254 73.8697 252.89 68.87 251.409 63.5016V37.9518H251.223V10.1828H251.409V10H250.482V63.6876C249.186 68.8733 247.705 74.2385 246.595 79.2381C243.818 79.6069 242.154 79.979 242.154 80.3477C242.154 80.5337 242.34 80.7165 242.708 80.7165C241.041 81.0885 240.117 81.4573 240.117 81.8293C240.117 81.8293 240.303 82.0121 240.303 82.1981C237.34 82.5702 235.303 83.3077 235.303 83.8658C235.303 84.4206 236.599 84.7926 238.821 85.1614C236.23 91.0846 233.822 97.0078 231.417 102.934C228.825 103.12 226.234 103.306 223.643 103.489C223.829 104.416 223.829 105.34 224.015 106.449C220.683 107.376 218.829 108.299 218.829 109.226C219.015 109.967 220.497 110.708 223.088 111.077C218.829 116.262 214.757 121.445 210.87 126.813C211.242 128.85 211.424 130.7 211.611 132.554C208.647 133.481 207.166 134.404 207.166 134.959C207.352 135.514 208.647 135.886 210.87 136.068C207.91 140.51 204.946 144.955 202.169 149.583C202.538 151.25 202.724 153.101 203.096 154.951C200.319 156.061 198.837 157.173 198.837 157.914C199.02 158.655 200.502 159.024 203.096 159.21C199.578 176.056 197.173 193.088 196.06 209.934L191.432 191.238C192.359 190.866 193.1 190.497 193.1 189.942C193.1 189.387 192.359 189.015 191.064 188.461V184.574L186.622 176.428C187.549 176.056 188.104 175.687 188.104 175.318C188.104 174.946 187.363 174.392 186.253 174.023V170.136L180.885 160.14C181.812 159.768 182.366 159.213 182.366 158.658C182.366 158.104 181.626 157.549 180.516 156.994V154.958H177.556L174.596 142.925C175.337 142.739 175.892 142.37 175.892 141.998C175.892 141.626 175.151 141.257 174.041 141.071C174.041 140.885 174.227 140.885 174.227 140.703C174.227 140.517 173.855 140.331 173.3 140.148C173.486 139.962 173.486 139.962 173.486 139.776C173.486 139.593 172.932 139.221 172.005 139.035L170.523 128.298V95.1574H170.337V126.999L168.856 139.032C167.929 139.218 167.374 139.587 167.374 139.773C167.374 139.959 167.374 139.959 167.56 140.145C167.005 140.331 166.633 140.517 166.633 140.699C166.633 140.882 166.633 140.882 166.819 141.068C165.71 141.254 164.969 141.623 164.969 141.995C164.969 142.364 165.341 142.736 166.264 142.922L163.301 154.954H160.341V156.991C159.046 157.546 158.491 158.1 158.491 158.655C158.491 159.21 158.86 159.765 159.972 160.137L154.604 170.133V174.023C153.494 174.395 152.754 174.95 152.754 175.318C152.754 175.687 153.308 176.059 154.235 176.428L149.794 184.574V188.461C148.498 189.015 147.757 189.387 147.757 189.942C147.757 190.497 148.312 190.869 149.422 191.238L142.385 220.302C141.645 216.416 140.904 212.711 140.163 208.825C141.459 208.825 142.385 208.639 142.385 208.27C142.385 207.901 141.645 207.343 140.163 206.788C140.349 205.861 140.535 204.938 140.718 203.825C139.236 201.603 137.755 199.383 136.276 196.975C137.386 196.975 138.127 196.789 138.127 196.42C138.127 196.051 137.386 195.679 135.721 195.125C135.907 194.198 136.093 193.274 136.093 192.161C134.243 189.57 132.207 186.793 129.984 184.202C131.28 183.83 132.021 183.647 132.021 183.275C132.207 182.72 131.094 182.165 129.429 181.607C129.429 181.238 129.612 180.68 129.612 180.126C128.317 180.126 127.021 179.94 125.539 179.94C124.43 176.79 123.134 173.83 121.835 170.684C122.945 170.684 123.686 170.312 123.686 170.13C123.686 169.761 122.576 169.389 120.908 169.203C121.094 169.203 121.094 169.017 121.094 169.017C121.094 168.831 120.722 168.645 119.799 168.462C119.985 168.462 120.171 168.462 120.171 168.276C120.171 168.09 119.244 167.904 117.766 167.721C117.211 164.944 116.47 161.981 115.729 159.207V131.992H115.36V159.761C114.62 162.353 114.065 164.947 113.324 167.721C111.842 167.907 111.102 168.093 111.102 168.276C111.102 168.459 111.102 168.462 111.288 168.462C110.547 168.645 109.992 168.831 109.992 169.017C109.992 169.017 109.992 169.203 110.178 169.203C108.514 169.389 107.401 169.757 107.401 170.13C107.401 170.316 108.142 170.684 109.251 170.684C107.956 173.83 106.66 176.794 105.547 179.94C104.252 179.94 102.77 180.126 101.474 180.126C101.66 180.68 101.66 181.235 101.66 181.607C99.9927 182.162 99.0692 182.717 99.0692 183.275C99.0692 183.647 99.81 183.83 101.106 184.202C99.0692 186.793 96.8467 189.57 94.9963 192.161C94.9963 193.271 95.1824 194.198 95.3684 195.125C93.8868 195.679 92.9632 196.051 92.9632 196.42C93.1492 196.792 93.704 196.975 94.9996 196.975C93.3352 199.38 91.8536 201.603 90.372 203.825C90.558 204.935 90.744 205.861 90.9268 206.788C89.4451 207.343 88.7043 207.898 88.7043 208.27C88.8904 208.642 89.6312 208.825 90.9268 208.825C89.6312 214.934 88.7043 221.043 87.9635 226.966H87.4087V226.78C87.5947 226.412 87.7808 226.04 87.9635 225.671C87.7808 225.485 87.5947 225.116 87.4087 224.93C87.5947 224.93 87.7808 224.93 87.9635 224.744C87.9635 224.558 87.7808 224.372 87.4087 224.189C87.4087 224.006 87.5948 223.82 87.5948 223.448C87.5948 219.007 86.8539 214.376 85.3723 209.748C86.1131 209.748 86.4819 209.562 86.4819 209.562C86.4819 209.376 86.1099 209.19 85.3723 209.007C85.5583 208.821 85.5583 208.453 85.7411 208.081L83.5187 205.858C84.0734 205.858 84.4455 205.672 84.4455 205.672C84.4455 205.489 84.0734 205.489 83.3326 205.303C83.3326 204.931 83.3326 204.563 83.5187 204.377C82.4091 203.45 81.4822 202.526 80.3727 201.599C81.1135 201.599 81.4822 201.413 81.4822 201.413C81.4822 201.227 80.9274 201.041 80.1866 200.859V200.304H78.3362C77.7814 199.194 77.0406 198.267 76.4858 197.158C77.0406 197.158 77.2267 197.158 77.4127 196.972C77.4127 196.972 76.8579 196.786 75.931 196.786C76.1171 196.786 76.1171 196.786 76.1171 196.6C76.1171 196.6 75.931 196.6 75.3763 196.6C75.5623 196.414 75.5623 196.414 75.5623 196.414C75.5623 196.414 75.1935 196.231 74.4527 196.231C74.0807 195.304 73.7119 194.38 73.3431 193.454V180.126H73.1571V194.012C72.7883 194.753 72.6023 195.493 72.2303 196.234C71.4894 196.234 71.1207 196.417 71.1207 196.417C71.1207 196.417 71.1207 196.417 71.3067 196.603C70.9347 196.603 70.5659 196.603 70.5659 196.603C70.5659 196.789 70.5659 196.789 70.7486 196.789C69.8218 196.789 69.453 196.975 69.453 196.975C69.453 197.161 69.639 197.161 70.3799 197.161C69.639 198.271 69.0843 199.197 68.3434 200.307H66.4604V200.862C65.7196 201.045 65.1648 201.231 65.1648 201.417C65.1648 201.417 65.5368 201.603 66.2744 201.603C65.1648 202.529 64.238 203.453 63.1284 204.38C63.3144 204.563 63.3144 204.935 63.3144 205.307C62.5736 205.493 62.2048 205.493 62.2048 205.675C62.2048 205.675 62.5736 205.861 63.1317 205.861C62.3908 206.602 61.65 207.343 61.0952 208.084C61.0952 208.456 61.0952 208.825 61.2813 209.011C60.5404 209.193 60.1684 209.379 60.1684 209.565C60.1684 209.565 60.5404 209.751 61.2813 209.751C59.7996 214.379 59.0588 219.007 59.0588 223.452C59.2448 223.824 59.2448 224.006 59.4309 224.192C58.8761 224.378 58.69 224.564 58.69 224.747C58.8761 224.933 59.0588 224.933 59.4309 224.933L58.69 225.674C58.8761 226.046 59.0588 226.415 59.2448 226.784V226.97H58.1353C56.8397 226.97 55.7301 227.71 55.7301 228.82C55.7301 229.561 56.2849 230.116 57.2117 230.488V258.998H45.92C44.0696 258.998 42.402 260.665 42.402 262.516V266.402C42.402 267.512 42.9568 268.439 43.8836 268.994H30.177C28.3266 268.994 26.6589 270.475 26.6589 272.512V276.216C26.6589 276.398 26.6589 276.398 26.8449 276.584H17.9585C15.9221 276.581 14.4404 278.063 14.4404 280.099V283.803C14.4404 285.84 15.9221 287.321 17.9585 287.321H483.922C485.773 287.321 487.44 285.84 487.44 283.803V280.099C487.44 278.063 485.776 276.581 483.922 276.581ZM79.9745 258.994H66.8325V246.59C66.8325 243.63 69.6097 241.407 73.3105 241.407C77.0145 241.407 79.9745 243.63 79.9745 246.59V258.994ZM125.148 258.994H105.896V231.966C105.896 226.78 110.155 222.339 115.524 222.339C120.892 222.339 125.151 226.78 125.151 231.966V258.994H125.148ZM269.547 258.994H232.337V204.014C232.337 193.646 240.665 185.318 250.851 185.318C261.219 185.318 269.547 193.649 269.547 204.014V258.994ZM395.988 258.994H376.736V231.966C376.736 226.78 380.995 222.339 386.364 222.339C391.546 222.339 395.991 226.78 395.991 231.966V258.994H395.988ZM435.048 258.994H421.906V246.59C421.906 243.63 424.866 241.407 428.57 241.407C432.088 241.407 435.048 243.63 435.048 246.59V258.994Z" fill="#E52B50"/>
</g>
<defs>
<filter id="filter0_d_422_10210" x="0.44043" y="0" width="501" height="305.321" filterUnits="userSpaceOnUse" color-interpolation-filters="sRGB">
<feFlood flood-opacity="0" result="BackgroundImageFix"/>
<feColorMatrix in="SourceAlpha" type="matrix" values="0 0 0 0 0 0 0 0 0 0 0 0 0 0 0 0 0 0 127 0" result="hardAlpha"/>
<feOffset dy="4"/>
<feGaussianBlur stdDeviation="7"/>
<feComposite in2="hardAlpha" operator="out"/>
<feColorMatrix type="matrix" values="0 0 0 0 0 0 0 0 0 0 0 0 0 0 0 0 0 0 0.12 0"/>
<feBlend mode="normal" in2="BackgroundImageFix" result="effect1_dropShadow_422_10210"/>
<feBlend mode="normal" in="SourceGraphic" in2="effect1_dropShadow_422_10210" result="shape"/>
</filter>
</defs>
</svg>
