<svg width="25" height="24" viewBox="0 0 25 24" fill="none" xmlns="http://www.w3.org/2000/svg">
<path d="M11.5314 0.75C11.1584 0.75 10.8008 0.898158 10.537 1.16188C10.2733 1.4256 10.1252 1.78329 10.1252 2.15625C10.1252 2.52921 10.2733 2.8869 10.537 3.15062C10.8008 3.41434 11.1584 3.5625 11.5314 3.5625H14.8127V4.97062C14.8127 5.6925 14.6308 6.24375 14.387 6.57375C14.1789 6.85687 13.8939 7.03687 13.4214 7.03687C13.0484 7.03687 12.6908 7.18503 12.427 7.44875C12.1633 7.71248 12.0152 8.07016 12.0152 8.44312C12.0152 8.81608 12.1633 9.17377 12.427 9.43749C12.6908 9.70121 13.0484 9.84937 13.4214 9.84937C14.0501 9.86141 14.6725 9.72123 15.2353 9.44078C15.7982 9.16033 16.2849 8.74793 16.6539 8.23875C17.342 7.30125 17.6252 6.11625 17.6252 4.97062V2.15625C17.6252 1.78329 17.477 1.4256 17.2133 1.16188C16.9496 0.898158 16.5919 0.75 16.2189 0.75H11.5314ZM9.55891 5.85937C9.45556 5.59648 9.27544 5.37081 9.042 5.21175C8.80856 5.0527 8.53263 4.96763 8.25016 4.96763C7.96768 4.96763 7.69176 5.0527 7.45832 5.21175C7.22488 5.37081 7.04476 5.59648 6.94141 5.85937L0.84016 21.3281C0.766865 21.5009 0.728905 21.6866 0.728519 21.8743C0.728132 22.062 0.765326 22.2479 0.837909 22.421C0.910492 22.5941 1.01699 22.7509 1.15114 22.8822C1.28528 23.0135 1.44435 23.1166 1.61897 23.1855C1.79359 23.2543 1.98023 23.2875 2.16788 23.2831C2.35553 23.2787 2.54039 23.2367 2.71158 23.1597C2.88276 23.0828 3.0368 22.9723 3.16462 22.8348C3.29243 22.6974 3.39143 22.5357 3.45578 22.3594L4.95391 18.5644H11.5408L13.0352 22.3594C13.1719 22.7065 13.4409 22.985 13.7831 23.1338C14.1252 23.2825 14.5124 23.2892 14.8595 23.1525C15.2066 23.0157 15.4852 22.7467 15.6339 22.4046C15.7827 22.0624 15.7894 21.6752 15.6527 21.3281L9.55891 5.85937ZM10.4327 15.7519H6.06391L8.25016 10.2094L10.4327 15.7519ZM20.9064 0.75C21.2794 0.75 21.6371 0.898158 21.9008 1.16188C22.1645 1.4256 22.3127 1.78329 22.3127 2.15625V6.37125H22.7814C23.1544 6.37125 23.5121 6.51941 23.7758 6.78313C24.0395 7.04685 24.1877 7.40454 24.1877 7.7775C24.1877 8.15046 24.0395 8.50814 23.7758 8.77187C23.5121 9.03559 23.1544 9.18375 22.7814 9.18375H22.3127V16.2169C22.3127 16.5898 22.1645 16.9475 21.9008 17.2112C21.6371 17.475 21.2794 17.6231 20.9064 17.6231C20.5334 17.6231 20.1758 17.475 19.912 17.2112C19.6483 16.9475 19.5002 16.5898 19.5002 16.2169V2.15625C19.5002 1.78329 19.6483 1.4256 19.912 1.16188C20.1758 0.898158 20.5334 0.75 20.9064 0.75Z" fill="#E52B50"/>
</svg>
