<svg width="1942" height="669" viewBox="0 0 1942 669" fill="none" xmlns="http://www.w3.org/2000/svg">
<g clip-path="url(#clip0_519_5946)">
<path fill-rule="evenodd" clip-rule="evenodd" d="M53.4012 786.396C70.6328 782.951 84.4181 772.615 98.2034 762.279C121.466 744.191 144.729 725.241 167.991 707.153C192.977 688.204 221.409 676.145 254.15 674.423C253.288 672.7 253.288 671.839 252.426 670.977C231.748 645.999 221.409 616.713 216.24 585.705C211.932 558.143 209.347 530.58 206.763 503.879C205.039 487.513 202.455 470.287 193.839 455.644C192.116 452.199 192.116 449.615 196.424 450.476C217.102 453.921 236.918 446.169 256.734 441.001C283.443 433.249 309.291 426.359 336 419.468C337.723 418.607 340.308 416.884 341.169 415.161C343.754 398.796 346.339 382.431 348.062 365.204C348.923 360.036 347.2 354.868 346.339 350.561C345.477 346.255 346.339 344.532 350.647 346.255C373.048 351.423 394.587 345.393 416.127 341.087C417.85 341.087 419.573 338.503 419.573 336.78C429.05 304.05 437.666 272.18 446.282 239.45C449.728 225.668 453.175 211.887 450.59 198.106C449.728 193.799 452.313 192.938 454.898 194.66C474.714 206.719 496.254 206.719 517.793 209.303C551.395 212.748 584.997 215.332 616.875 224.807C637.553 231.698 656.508 241.172 673.739 255.815C674.601 248.924 675.463 242.895 676.324 236.866C682.355 204.996 698.725 178.295 717.68 153.316C732.327 134.367 748.697 115.418 763.344 96.4684C773.683 83.5484 783.16 70.6284 785.745 53.4017C787.468 53.4017 788.33 53.4017 790.053 53.4017C793.499 57.7084 796.084 62.0151 799.53 65.4604C809.008 72.3511 818.485 79.2417 828.824 85.271C856.395 100.775 883.104 116.279 910.674 131.783C912.397 132.644 914.982 132.644 915.844 132.644C930.491 121.447 945.138 110.25 958.923 99.0524C962.369 95.607 964.954 91.3004 968.4 86.9937C972.708 92.1617 975.293 97.3297 979.601 100.775C993.386 111.972 1007.17 122.308 1021.82 133.506C1023.54 134.367 1026.99 133.506 1028.71 132.644C1042.5 124.892 1055.42 116.279 1069.21 108.527C1087.3 98.191 1106.25 88.7164 1124.35 78.3804C1134.69 72.3511 1144.16 65.4604 1150.19 55.1244C1151.06 55.1244 1151.92 55.1244 1152.78 55.1244C1162.26 86.9937 1186.38 109.388 1206.2 134.367C1226.01 159.346 1245.83 184.324 1256.17 214.471C1260.48 227.391 1263.06 242.034 1266.51 254.092C1279.43 246.34 1294.08 237.727 1308.72 230.836C1335.43 218.778 1364.73 215.332 1394.02 212.748C1414.7 211.026 1435.38 208.442 1456.05 205.858C1465.53 204.135 1475.01 199.828 1483.63 196.383C1485.35 195.522 1487.07 195.522 1488.8 194.66C1489.66 195.522 1489.66 196.383 1489.66 197.244C1487.07 219.639 1494.83 241.172 1500.86 261.844C1507.75 286.823 1514.64 312.663 1521.54 338.503C1522.4 340.225 1524.98 342.809 1526.7 342.809C1548.24 346.255 1568.92 353.145 1591.32 347.116C1592.18 347.116 1594.77 349.7 1594.77 351.423C1589.6 372.956 1595.63 394.489 1599.94 415.161C1599.94 416.884 1602.52 420.329 1604.25 420.329C1634.4 428.943 1663.7 437.556 1693.85 445.308C1710.22 449.615 1726.59 454.783 1742.96 452.199C1746.41 451.337 1748.99 453.06 1746.41 456.505C1732.62 479.761 1733.48 507.324 1730.9 533.164C1727.45 566.756 1724.87 600.348 1711.08 632.217C1704.19 647.721 1695.57 662.364 1686.96 677.007C1691.27 677.868 1697.3 678.729 1703.33 679.591C1728.31 684.759 1751.58 695.095 1772.26 710.599C1793.79 726.103 1814.47 742.468 1835.15 759.694C1850.66 771.753 1865.31 784.673 1885.12 789.841C1885.98 789.841 1886.85 790.703 1887.71 791.564C1887.71 792.425 1887.71 792.425 1887.71 793.286C1872.2 804.484 1862.72 820.849 1853.24 837.214C1838.6 863.916 1823.09 889.756 1808.44 916.457C1807.58 918.18 1806.72 920.764 1807.58 921.625C1819.64 939.713 1830.84 959.524 1850.66 971.582C1851.52 972.444 1852.38 973.305 1854.11 975.028C1848.94 979.334 1842.9 982.78 1839.46 987.086C1829.12 1000.01 1818.78 1013.79 1809.3 1026.71C1808.44 1028.43 1809.3 1031.88 1810.16 1034.46C1817.06 1047.38 1825.67 1059.44 1832.57 1071.5C1844.63 1092.17 1854.97 1113.7 1867.03 1133.51C1872.2 1142.13 1880.81 1148.16 1887.71 1155.05C1887.71 1155.91 1887.71 1156.77 1887.71 1157.63C1856.69 1166.24 1834.29 1189.5 1810.16 1209.31C1784.32 1229.98 1758.47 1250.65 1727.45 1261.85C1714.53 1266.16 1700.74 1268.74 1686.96 1272.19C1711.08 1299.75 1721.42 1332.48 1725.73 1367.8C1730.04 1396.22 1731.76 1424.64 1736.07 1453.07C1737.79 1465.99 1743.82 1477.18 1747.27 1489.24C1747.27 1490.1 1748.13 1490.97 1748.13 1492.69C1747.27 1492.69 1746.41 1493.55 1745.55 1493.55C1724.87 1490.97 1705.91 1497 1686.1 1503.02C1658.53 1510.78 1631.82 1517.67 1604.25 1525.42C1602.52 1526.28 1599.94 1528 1599.94 1529.73C1595.63 1551.26 1589.6 1572.79 1594.77 1594.33C1595.63 1598.63 1593.91 1599.49 1590.46 1598.63C1568.06 1593.46 1547.38 1599.49 1525.84 1603.8C1524.12 1603.8 1522.4 1606.38 1522.4 1608.11C1513.78 1638.25 1506.03 1668.4 1497.41 1698.55C1493.1 1714.91 1488.8 1730.42 1490.52 1747.64C1490.52 1748.5 1490.52 1750.23 1490.52 1751.09C1489.66 1751.09 1487.93 1751.95 1487.93 1751.09C1468.98 1739.03 1447.44 1738.17 1425.9 1736.45C1393.16 1733 1360.42 1731.28 1329.4 1721.8C1307 1714.91 1286.32 1705.44 1267.37 1689.07C1266.51 1695.96 1265.65 1701.13 1264.78 1706.3C1258.75 1739.03 1242.38 1765.73 1223.43 1791.57C1214.81 1803.63 1204.47 1814.83 1195 1826.89C1178.63 1846.7 1160.53 1865.65 1153.64 1891.49C1152.78 1891.49 1151.92 1891.49 1151.06 1891.49C1144.16 1878.57 1132.1 1870.81 1119.18 1863.92C1089.02 1846.7 1058.87 1829.47 1028.71 1813.1C1026.99 1812.24 1024.4 1812.24 1023.54 1813.1C1005.45 1826.02 985.632 1836.36 973.57 1856.17C972.708 1857.03 971.846 1857.03 970.985 1857.89C970.123 1857.89 969.262 1857.03 969.262 1857.03C957.2 1837.22 937.383 1826.02 919.29 1813.1C917.567 1812.24 914.121 1811.38 912.397 1813.1C883.965 1828.61 855.533 1844.97 827.962 1860.48C813.316 1868.23 799.53 1877.7 790.053 1891.49C789.191 1891.49 789.191 1891.49 788.33 1891.49C786.607 1886.32 784.883 1880.29 781.437 1875.98C772.821 1862.2 763.344 1849.28 753.867 1836.36C737.496 1813.97 719.403 1793.29 703.895 1770.9C686.663 1746.78 676.324 1720.08 674.601 1690.8C673.74 1690.8 672.878 1690.8 672.878 1691.66C645.307 1715.77 612.567 1725.25 578.104 1730.42C549.672 1734.72 520.378 1736.45 491.946 1740.75C479.884 1742.48 468.683 1747.64 456.621 1751.95C453.175 1752.81 450.59 1753.67 451.452 1748.5C454.036 1731.28 449.728 1715.77 445.421 1699.41C436.805 1669.26 429.05 1639.12 420.435 1608.97C419.573 1607.25 417.85 1604.66 416.127 1604.66C394.587 1600.36 373.048 1594.33 351.508 1599.49C348.062 1600.36 346.339 1598.63 347.2 1595.19C353.231 1572.79 346.339 1551.26 342.031 1529.73C342.031 1528 339.446 1526.28 337.723 1526.28C308.429 1517.67 278.274 1509.92 248.98 1501.3C232.61 1497 215.378 1491.83 198.147 1494.41C197.285 1494.41 195.562 1494.41 194.7 1493.55C194.7 1492.69 194.7 1490.97 194.7 1490.97C206.763 1470.29 206.763 1447.9 209.347 1424.64C212.794 1398.8 215.378 1373.82 219.686 1347.98C224.856 1319.56 236.056 1292.86 255.011 1271.33C241.226 1267.88 227.441 1265.3 213.655 1260.99C183.5 1250.65 159.376 1231.7 135.251 1211.89C124.051 1202.42 112.85 1193.81 101.65 1184.33C87.0028 1172.27 72.356 1162.8 54.2628 1156.77C54.2628 1155.91 54.2628 1155.05 54.2628 1154.18C67.1865 1146.43 74.9407 1134.37 81.8334 1121.45C99.065 1091.31 115.435 1061.16 132.667 1031.88C133.528 1031.01 133.528 1028.43 132.667 1026.71C119.743 1008.62 109.404 988.809 89.5876 976.75C88.726 975.889 87.8644 975.028 87.0028 973.305C92.1723 968.998 98.2034 966.414 101.65 961.246C111.989 949.188 121.466 936.268 130.943 924.209C134.39 919.902 133.528 917.318 130.943 913.012C122.328 899.23 114.573 885.449 105.958 871.668C94.7571 848.412 84.4181 828.601 72.356 809.652C68.0481 802.761 60.2938 797.593 53.4012 791.564C53.4012 788.98 53.4012 788.119 53.4012 786.396ZM599.643 1401.39C600.505 1412.58 601.367 1423.78 603.09 1434.12C620.321 1538.34 717.68 1605.52 817.624 1592.6C884.827 1583.99 933.937 1546.09 966.677 1486.66C967.539 1484.08 970.123 1482.35 971.846 1480.63C973.57 1482.35 975.293 1484.08 977.016 1486.66C1011.48 1547.81 1062.31 1586.57 1134.69 1592.6C1196.72 1597.77 1250.14 1577.1 1291.49 1532.31C1343.19 1476.32 1354.39 1410.86 1333.71 1339.37C1332.85 1336.79 1333.71 1334.2 1332.85 1331.62C1335.43 1331.62 1338.02 1331.62 1339.74 1332.48C1370.76 1341.96 1401.78 1344.54 1432.79 1339.37C1543.94 1322.14 1618.03 1209.31 1588.74 1099.92C1573.23 1043.93 1537.91 1002.59 1487.07 975.028C1485.35 974.166 1483.63 971.582 1481.9 969.86C1483.63 968.137 1484.49 966.414 1487.07 965.553C1506.89 955.217 1524.12 942.297 1539.63 925.932C1615.45 850.134 1612.86 723.519 1534.46 651.167C1477.59 599.487 1412.11 587.428 1338.88 608.1C1336.3 608.961 1334.57 608.1 1331.99 608.1C1331.99 605.516 1331.99 603.793 1332.85 601.209C1342.33 570.201 1344.91 539.193 1339.74 508.185C1322.51 397.935 1213.09 323.86 1105.39 350.561C1046.8 365.204 1004.59 400.519 976.154 453.06C975.293 454.783 972.708 456.505 970.985 458.228C969.262 456.505 967.539 454.783 966.677 453.06C956.338 433.249 943.414 416.023 927.044 400.519C848.64 322.137 715.095 328.167 644.446 414.3C598.782 469.425 589.305 532.303 609.121 600.348C609.982 602.932 609.121 605.516 609.982 608.1C607.398 608.1 604.813 608.1 602.228 607.239C568.627 596.903 534.163 595.18 498.839 602.071C394.587 623.604 330.83 726.103 350.647 826.017C362.709 888.894 399.757 933.684 454.898 963.83C456.621 964.692 458.344 967.276 460.067 968.137C458.344 969.86 456.621 971.582 454.898 972.444C435.082 982.78 416.988 996.561 401.48 1012.93C326.522 1088.72 329.107 1215.34 407.511 1286.83C463.514 1338.51 528.994 1349.71 601.367 1329.9C603.951 1329.04 606.536 1329.9 609.121 1329.04C609.121 1331.62 609.121 1334.2 608.259 1336.79C603.09 1360.04 599.643 1380.72 599.643 1401.39ZM1588.74 1590.02C1589.6 1576.24 1589.6 1563.32 1592.18 1550.4C1599.94 1504.75 1612 1459.1 1613.72 1412.58C1616.31 1364.35 1610.28 1317.84 1588.74 1274.77C1584.43 1266.16 1579.26 1258.41 1574.09 1248.93C1559.44 1273.05 1542.21 1292.86 1520.67 1309.22C1499.13 1325.59 1475.01 1335.93 1448.3 1342.82C1474.15 1395.36 1493.96 1449.62 1507.75 1508.19C1449.16 1493.55 1394.88 1473.74 1342.33 1447.9C1328.54 1503.02 1297.52 1544.37 1249.28 1573.65C1254.45 1577.1 1258.75 1579.68 1263.92 1583.13C1303.56 1606.38 1346.63 1614.14 1391.44 1614.14C1431.07 1614.14 1468.98 1607.25 1507.75 1599.49C1534.46 1594.33 1561.17 1586.57 1588.74 1590.02ZM493.669 599.487C492.807 597.764 492.807 596.041 491.946 595.18C480.745 569.34 468.683 542.639 459.206 516.799C450.59 492.681 443.697 467.703 435.943 443.585C433.358 436.695 435.082 435.833 441.974 436.695C442.836 436.695 443.697 436.695 443.697 437.556C491.946 450.476 539.333 466.841 584.135 488.375C589.305 490.959 593.612 492.681 598.782 495.265C612.567 440.14 643.584 398.796 691.833 369.511C688.386 366.927 685.802 365.204 682.355 363.482C665.124 355.729 647.892 346.255 629.799 340.225C578.966 324.722 528.132 327.306 476.437 335.057C435.082 341.087 394.587 355.729 351.508 353.145C354.093 376.401 348.923 398.796 344.616 421.191C336.861 460.812 329.107 499.572 327.384 540.055C326.522 582.26 331.692 622.743 348.923 660.641C354.093 671.839 360.124 682.175 367.017 694.233C398.034 644.276 439.389 613.268 493.669 599.487ZM599.643 1447.9C597.059 1448.76 595.336 1449.62 594.474 1450.48C546.225 1474.6 496.254 1491.83 443.697 1505.61C435.082 1508.19 433.358 1506.47 436.805 1498.72C445.421 1470.29 454.036 1442.73 463.514 1415.17C472.13 1391.05 483.33 1366.93 493.669 1342.82C440.251 1329.04 398.034 1298.03 368.74 1249.79C367.017 1252.38 365.293 1254.1 364.432 1255.82C343.754 1287.69 333.415 1323.01 329.969 1360.9C325.661 1403.97 330.83 1446.18 338.584 1488.38C344.616 1521.97 355.816 1554.7 352.37 1588.3C368.74 1590.02 384.248 1590.88 400.618 1593.46C443.697 1601.22 485.915 1611.55 529.855 1614.14C574.658 1616.72 618.598 1611.55 660.816 1592.6C672.016 1587.44 682.355 1581.41 694.417 1574.52C644.446 1543.51 613.429 1502.16 599.643 1447.9ZM1045.94 371.233C1094.19 341.948 1145.89 335.058 1200.17 347.978C1200.17 346.255 1201.03 346.255 1201.03 345.393C1201.03 343.671 1200.17 341.948 1200.17 341.087C1191.55 300.604 1170.87 265.29 1143.3 234.282C1114.01 200.69 1077.82 174.85 1040.77 149.871C1016.65 133.506 990.801 119.724 971.846 96.4684C953.753 118.863 927.906 132.644 904.643 149.01C882.242 165.375 858.979 180.879 837.44 198.967C802.115 228.252 772.821 262.706 755.59 305.772C749.559 318.692 745.251 332.474 740.943 346.255C741.804 347.116 741.804 347.116 742.666 347.978C768.513 341.087 795.222 339.364 821.931 343.671C848.64 347.116 873.626 356.591 896.889 371.233C915.844 315.247 939.968 263.567 970.985 211.887C1002.86 262.706 1026.13 315.247 1045.94 371.233ZM1590.46 352.284C1566.34 354.868 1543.94 349.7 1522.4 345.393C1482.76 337.641 1443.13 329.028 1403.5 328.167C1361.28 327.305 1320.79 332.474 1282.88 350.561C1271.68 355.729 1261.34 361.759 1250.14 368.649C1299.25 398.796 1331.13 440.14 1344.05 494.404C1396.61 468.564 1450.89 448.753 1509.47 434.972C1495.69 493.543 1475.01 547.807 1450.02 600.348C1505.17 614.129 1546.52 645.137 1575.81 693.372C1577.54 690.788 1578.4 689.065 1580.12 687.343C1601.66 653.751 1612 616.713 1615.45 577.953C1618.89 536.609 1613.72 496.127 1605.97 455.644C1598.22 421.191 1587.02 387.599 1590.46 352.284ZM371.325 896.646C342.031 848.412 335.138 796.732 348.062 742.468C346.339 742.468 345.477 742.468 345.477 742.468C343.754 742.468 342.031 743.329 340.308 743.329C294.644 753.665 256.734 777.783 223.994 809.652C193.839 838.937 169.715 873.39 146.452 907.844C131.805 930.238 118.02 953.494 96.4802 971.582C112.85 983.641 123.189 1000.01 134.39 1016.37C141.282 1026.71 148.175 1037.04 155.068 1046.52C175.746 1076.66 197.285 1105.95 223.994 1131.79C256.734 1162.8 292.921 1186.92 336.861 1198.11C341.169 1198.97 344.616 1199.84 349.785 1200.7C342.892 1173.13 341.169 1147.29 345.477 1120.59C348.923 1093.89 358.401 1068.91 373.048 1045.66C317.907 1026.71 264.488 1002.59 213.655 970.721C263.627 939.713 315.322 915.596 371.325 896.646ZM1846.35 971.582C1839.46 964.692 1832.57 957.801 1826.53 950.91C1820.5 944.02 1815.33 935.406 1810.16 927.654C1802.41 916.457 1794.66 904.398 1786.9 893.201C1767.09 863.054 1745.55 834.63 1718.84 809.652C1689.54 781.228 1656.8 759.695 1617.17 747.636C1609.42 745.052 1601.66 743.329 1593.05 741.607C1606.83 797.593 1599.08 848.412 1570.65 896.646C1573.23 897.508 1575.81 898.369 1577.54 899.23C1628.37 917.318 1676.62 939.713 1722.28 966.414C1729.18 970.721 1729.18 971.582 1722.28 975.889C1680.07 1000.87 1636.13 1021.54 1590.46 1038.77C1583.57 1041.35 1577.54 1043.93 1569.78 1046.52C1599.08 1094.75 1605.97 1146.43 1592.18 1201.56C1600.8 1199.84 1607.69 1198.11 1615.45 1195.53C1665.42 1180.02 1705.05 1149.02 1738.65 1111.12C1763.64 1082.69 1784.32 1049.96 1805.86 1018.96C1818.78 1000.87 1829.98 983.641 1846.35 971.582ZM896.889 1570.21C848.64 1599.49 796.945 1606.38 742.666 1593.46C742.666 1595.19 741.804 1595.19 742.666 1596.05C742.666 1597.77 743.528 1599.49 743.528 1601.22C748.697 1623.61 757.313 1645.14 769.375 1664.96C795.222 1708.88 832.27 1741.61 872.765 1771.76C906.366 1795.88 944.276 1813.97 970.985 1844.11C983.909 1833.78 995.971 1823.44 1008.89 1813.97C1014.93 1808.8 1021.82 1804.49 1028.71 1800.18C1065.76 1775.21 1102.81 1750.23 1133.82 1717.5C1163.98 1685.63 1188.1 1649.45 1198.44 1606.38C1199.3 1602.08 1200.17 1597.77 1201.03 1593.46C1173.46 1600.36 1147.61 1602.08 1120.9 1597.77C1094.19 1593.46 1069.21 1584.85 1045.94 1570.21C1045.08 1572.79 1044.22 1574.52 1043.36 1576.24C1026.13 1627.06 1002.86 1675.29 976.154 1720.94C971.846 1728.69 970.123 1728.69 966.677 1720.94C941.691 1677.88 920.152 1633.95 902.92 1587.44C901.197 1582.27 898.612 1577.1 896.889 1570.21ZM98.2034 1144.71C103.373 1149.02 107.681 1152.46 112.85 1156.77C135.251 1174.86 155.929 1192.94 179.192 1209.31C216.24 1236.01 257.596 1252.38 304.983 1243.76C306.706 1243.76 308.429 1244.62 309.291 1245.49C308.429 1247.21 307.568 1248.93 306.706 1249.79C298.952 1256.68 291.198 1261.85 284.305 1269.6C261.042 1293.72 248.98 1323.87 243.811 1356.6C237.779 1391.91 235.195 1427.23 231.748 1461.68C231.748 1463.4 234.333 1465.99 236.056 1466.85C254.15 1472.88 272.243 1478.91 290.336 1484.08C304.121 1488.38 318.768 1491.83 333.415 1496.13C333.415 1492.69 332.553 1490.97 332.553 1489.24C324.799 1447.9 319.63 1405.69 323.076 1363.49C326.522 1322.14 338.584 1282.52 361.847 1248.07C363.57 1244.62 364.432 1242.9 362.709 1239.46C358.401 1229.98 354.954 1220.51 350.647 1211.89C349.785 1209.31 346.339 1206.73 343.754 1206.73C303.26 1198.97 267.935 1180.02 236.918 1154.18C204.178 1126.62 177.469 1093.89 153.345 1058.58C151.621 1056.85 150.76 1055.13 148.175 1050.82C131.805 1081.83 115.435 1112.84 98.2034 1144.71ZM1608.55 446.169C1608.55 449.615 1608.55 451.337 1608.55 453.06C1612 478.039 1616.31 503.017 1618.03 527.996C1622.34 587.428 1612.86 644.276 1578.4 695.095C1577.54 696.817 1577.54 700.263 1578.4 701.985C1581.85 711.46 1586.15 720.073 1589.6 729.548C1591.32 733.855 1593.05 735.577 1597.35 736.439C1618.89 739.884 1638.71 747.636 1658.53 757.972C1696.44 778.644 1728.31 807.068 1755.02 840.66C1767.95 856.164 1780.01 873.39 1792.93 891.478C1810.16 859.609 1826.53 828.601 1843.77 796.732C1817.92 776.06 1792.93 754.527 1766.22 734.716C1728.31 706.292 1686.1 689.065 1636.99 697.679C1635.26 697.679 1633.54 696.817 1631.82 695.956C1632.68 694.233 1633.54 692.511 1635.26 690.788C1643.02 683.897 1651.63 677.868 1658.53 670.116C1680.93 645.999 1692.99 615.852 1698.16 583.121C1703.33 548.668 1706.77 513.353 1710.22 478.9C1710.22 477.177 1707.64 474.593 1705.91 473.732C1696.44 470.287 1686.96 467.703 1677.48 465.119C1655.94 459.951 1632.68 453.06 1608.55 446.169ZM796.946 98.191C776.268 124.031 755.59 148.148 736.635 173.988C708.203 212.748 690.109 254.954 698.725 304.911C698.725 306.634 697.864 308.356 697.864 310.079C696.141 309.218 694.417 308.356 692.694 307.495C685.802 299.743 679.771 291.991 672.878 285.1C647.03 260.983 614.29 248.924 579.827 243.756C547.087 238.588 514.347 236.004 481.607 232.559C477.299 231.698 476.437 234.282 475.576 236.866C470.406 254.092 464.375 271.319 459.206 288.546C454.898 303.188 450.59 318.692 446.282 335.057C449.728 335.057 451.452 334.196 453.175 334.196C482.468 330.751 511.762 325.583 541.056 323.86C596.197 321.276 648.754 332.474 696.141 364.343C697.864 365.204 701.31 365.204 703.033 364.343C712.511 360.897 721.988 356.591 730.604 352.284C733.189 351.423 735.773 347.978 736.635 346.255C744.389 304.911 763.344 269.596 790.053 237.727C815.9 206.719 847.779 180.879 881.38 157.623C884.827 155.9 887.411 153.316 892.581 149.871C859.841 131.783 828.824 115.418 796.946 98.191ZM1495.69 1608.11C1492.24 1608.11 1490.52 1608.11 1488.8 1608.11C1463.81 1611.55 1438.82 1615.86 1413.84 1617.58C1354.39 1621.89 1297.52 1612.41 1246.69 1577.96C1244.97 1577.1 1242.38 1577.1 1239.8 1577.96C1230.32 1581.41 1220.84 1585.71 1211.37 1589.16C1207.92 1590.88 1206.2 1592.6 1205.33 1596.05C1201.03 1621.03 1191.55 1644.28 1178.63 1666.68C1153.64 1708.88 1119.18 1741.61 1079.54 1770.9C1070.07 1777.79 1060.59 1783.82 1049.39 1792.43C1081.27 1809.66 1112.28 1826.89 1145.02 1844.11C1168.29 1813.97 1192.41 1784.68 1214.81 1753.67C1238.94 1719.22 1251 1680.46 1243.24 1637.39C1243.24 1635.67 1244.11 1633.95 1244.11 1632.22C1245.83 1633.09 1247.55 1633.09 1249.28 1634.81C1256.17 1641.7 1261.34 1650.31 1269.09 1657.2C1298.39 1684.77 1334.57 1695.96 1372.48 1701.13C1401.78 1705.44 1431.07 1707.16 1460.36 1710.61C1464.67 1711.47 1465.53 1708.88 1466.39 1706.3C1471.56 1689.93 1476.73 1673.57 1481.9 1657.2C1487.07 1640.84 1491.38 1625.33 1495.69 1608.11ZM1050.25 149.01C1054.56 152.455 1057.14 154.178 1059.73 155.9C1089.88 176.572 1118.32 198.106 1142.44 225.668C1174.32 260.122 1197.58 298.882 1206.2 346.255C1206.2 348.839 1209.64 351.423 1211.37 352.284C1219.98 356.591 1229.46 359.175 1238.94 363.482C1242.38 365.204 1244.97 365.204 1248.41 362.62C1264.78 354.007 1280.29 344.532 1297.52 337.642C1349.22 318.692 1403.5 319.554 1457.78 327.306C1469.84 329.028 1481.9 331.612 1496.55 334.196C1486.21 298.882 1475.87 265.29 1465.53 231.698C1455.19 232.559 1446.58 233.42 1437.1 234.282C1407.81 237.727 1378.51 240.311 1350.08 245.479C1309.59 253.231 1274.26 272.18 1249.28 306.633C1248.41 307.495 1246.69 308.356 1244.97 309.218C1244.11 307.495 1243.24 305.772 1243.24 304.05C1243.24 291.13 1244.97 277.348 1244.11 264.428C1241.52 237.727 1232.04 212.748 1216.54 191.215C1193.27 160.207 1169.15 130.06 1145.02 99.0524C1145.02 99.0524 1144.16 99.0524 1143.3 98.191C1113.15 115.418 1082.13 131.783 1050.25 149.01ZM890.858 1793.29C870.18 1776.93 850.364 1763.15 831.409 1746.78C784.022 1706.3 748.697 1658.93 735.773 1596.05C735.773 1594.33 733.189 1591.74 730.604 1590.88C721.126 1586.57 711.649 1583.13 703.033 1578.82C699.587 1577.1 697.002 1577.1 693.556 1579.68C675.463 1592.6 656.508 1601.22 634.968 1607.25C583.273 1623.61 530.717 1621.89 478.161 1613.28C467.822 1611.55 457.483 1609.83 446.282 1608.11C447.144 1611.55 447.144 1614.14 448.005 1615.86C456.621 1646.01 466.098 1677.01 475.576 1707.16C476.437 1708.88 479.884 1710.61 481.607 1710.61C493.669 1709.74 506.593 1708.88 518.655 1707.16C544.502 1703.72 571.211 1701.13 596.197 1695.96C634.968 1687.35 667.708 1669.26 691.833 1636.53C692.694 1634.81 695.279 1634.81 697.002 1633.95C697.002 1635.67 697.864 1638.25 697.864 1639.98C692.694 1671.85 698.725 1701.99 712.511 1730.42C733.189 1773.48 767.652 1807.08 796.946 1844.97C828.824 1826.89 859.841 1809.66 890.858 1793.29ZM1792.93 1049.96C1790.35 1053.41 1788.63 1055.99 1786.9 1057.72C1767.95 1085.28 1747.27 1111.98 1723.14 1135.24C1686.96 1169.69 1646.46 1195.53 1596.49 1205C1593.91 1205.86 1591.32 1208.45 1590.46 1211.03C1586.15 1219.65 1582.71 1229.12 1579.26 1238.6C1577.54 1242.04 1577.54 1244.62 1580.12 1248.07C1593.91 1268.74 1604.25 1291.14 1610.28 1315.25C1623.2 1364.35 1621.48 1414.31 1613.72 1464.26C1612 1473.74 1610.28 1484.08 1608.55 1495.27C1612 1494.41 1614.59 1494.41 1617.17 1493.55C1647.33 1484.94 1677.48 1475.46 1707.64 1466.85C1709.36 1465.99 1711.08 1462.54 1711.08 1460.82C1710.22 1447.9 1709.36 1435.84 1707.64 1422.92C1704.19 1397.08 1701.61 1371.24 1696.44 1346.26C1687.82 1307.5 1669.73 1273.91 1636.13 1250.65C1634.4 1249.79 1634.4 1247.21 1633.54 1245.49C1635.26 1244.62 1636.99 1243.76 1638.71 1244.62C1651.63 1244.62 1664.56 1246.35 1677.48 1245.49C1709.36 1242.9 1737.79 1228.26 1763.64 1209.31C1787.76 1191.22 1811.03 1171.41 1834.29 1152.46C1837.74 1149.88 1840.32 1147.29 1843.77 1144.71C1826.53 1112.84 1810.16 1081.83 1792.93 1049.96ZM333.415 447.031C329.969 447.892 327.384 447.892 325.661 448.753C295.505 457.367 265.35 466.841 235.195 475.455C230.887 476.316 230.887 478.9 231.748 482.345C232.61 490.097 233.472 497.849 234.333 505.601C238.641 536.609 241.226 567.617 247.257 598.625C255.011 636.524 273.104 668.393 304.983 691.649C306.706 693.372 308.429 695.956 309.291 697.679C306.706 697.679 304.121 699.401 301.536 698.54C272.243 694.233 243.811 698.54 217.963 711.46C202.455 719.212 186.085 727.825 172.299 738.161C147.313 757.111 123.189 777.782 98.2034 797.593C116.297 828.601 130.082 861.332 149.898 890.617C164.545 870.806 178.33 851.857 193.839 833.769C234.333 785.535 282.582 749.359 346.339 736.439C348.923 735.577 350.647 732.993 352.37 731.271C356.678 722.657 360.124 713.182 363.57 703.708C365.293 699.401 364.432 697.679 362.709 693.372C355.816 682.175 348.923 670.977 343.754 658.919C320.491 606.377 319.63 551.252 326.522 495.265C328.245 479.761 330.83 464.257 333.415 447.031ZM1151.92 1878.57C1163.12 1851.86 1182.93 1832.92 1200.17 1810.52C1213.09 1793.29 1226.01 1776.93 1237.21 1759.7C1252.72 1736.45 1261.34 1711.47 1262.2 1683.04C1262.2 1681.32 1263.06 1679.6 1263.92 1677.88C1265.65 1678.74 1267.37 1678.74 1269.09 1680.46C1274.26 1683.9 1278.57 1689.07 1283.74 1692.52C1311.31 1712.33 1343.19 1719.22 1375.07 1723.53C1400.91 1726.97 1426.76 1728.69 1451.75 1732.14C1462.95 1733.86 1474.15 1737.31 1485.35 1739.89C1484.49 1720.08 1490.52 1701.99 1496.55 1683.04C1502.58 1663.23 1508.61 1643.42 1513.78 1622.75C1515.5 1616.72 1516.37 1610.69 1518.09 1603.8C1512.92 1604.66 1509.47 1604.66 1506.03 1606.38C1503.44 1607.25 1500.86 1609.83 1500 1611.55C1489.66 1645.14 1480.18 1678.74 1470.7 1712.33C1469.84 1716.64 1468.12 1717.5 1463.81 1716.64C1455.19 1715.77 1446.58 1714.91 1437.96 1714.05C1410.39 1710.61 1383.68 1708.88 1356.11 1704.58C1320.79 1698.55 1288.91 1685.63 1263.06 1660.65C1258.75 1657.2 1255.31 1652.9 1251.86 1648.59C1251 1662.37 1251 1676.15 1248.41 1689.07C1243.24 1722.66 1226.87 1751.09 1206.2 1776.93C1187.24 1801.05 1167.43 1824.3 1148.47 1848.42C1145.89 1851.86 1144.16 1851 1140.72 1849.28C1108.84 1832.05 1076.96 1814.83 1044.22 1796.74C1040.77 1799.32 1036.47 1801.91 1031.3 1806.21C1039.91 1811.38 1047.67 1816.55 1055.42 1821.72C1087.3 1839.81 1123.48 1851.86 1151.92 1878.57ZM910.674 136.951C901.197 130.922 892.581 125.754 884.827 120.586C852.948 101.636 817.623 89.5777 790.053 62.8764C783.16 80.9644 771.96 94.7457 760.759 108.527C744.389 129.199 728.019 149.01 712.511 170.543C693.556 197.244 680.632 225.668 680.632 259.26C680.632 260.983 679.771 263.567 678.909 263.567C677.186 263.567 675.463 262.706 673.739 261.844C668.57 258.399 664.262 253.231 659.093 249.786C628.937 228.252 594.474 221.362 559.149 217.055C524.686 212.748 489.361 213.61 458.344 201.551C454.898 218.778 451.452 235.143 447.144 251.508C441.113 273.903 434.22 295.436 427.327 317.831C425.604 323.86 424.743 330.751 423.019 337.642C428.189 336.78 431.635 336.78 435.082 335.057C437.666 334.196 440.251 331.612 441.113 329.889C450.59 296.298 460.929 263.567 470.406 229.975C471.268 225.668 473.853 223.946 478.161 224.807C487.638 225.668 497.115 226.53 506.593 228.252C533.302 231.698 560.011 233.42 586.72 238.588C621.183 244.618 652.2 257.538 678.047 282.516C682.355 285.962 685.802 290.268 689.248 293.714C690.11 279.932 690.11 266.151 692.694 252.37C697.864 220.5 714.234 192.938 733.189 167.098C752.143 142.119 771.96 118.863 791.776 94.7457C794.361 91.3004 796.946 92.1617 800.392 93.8844C830.547 111.111 861.564 127.476 892.581 144.703C894.304 145.564 896.889 146.426 897.75 145.564C902.058 142.98 906.366 140.396 910.674 136.951ZM1646.46 690.788C1658.53 691.649 1669.73 690.788 1680.93 692.511C1712.81 695.956 1741.24 709.737 1766.22 728.687C1793.79 749.359 1820.5 771.753 1847.21 793.286C1848.94 794.148 1848.94 798.455 1848.07 800.177C1831.7 831.185 1814.47 862.193 1797.24 892.34C1796.38 894.062 1795.52 896.646 1796.38 897.508C1798.96 901.814 1801.55 905.26 1805 909.566C1806.72 906.982 1808.44 905.26 1809.3 902.676C1821.37 882.004 1833.43 860.47 1844.63 839.798C1854.11 821.71 1863.58 804.484 1879.09 788.98C1859.27 781.228 1844.63 768.308 1829.12 756.249C1805.86 738.161 1782.59 720.073 1758.47 702.847C1736.07 687.343 1710.22 678.729 1682.65 678.729C1680.93 678.729 1679.2 677.868 1678.34 677.007C1679.2 675.284 1680.07 673.561 1680.93 671.839C1688.68 661.503 1697.3 651.167 1703.33 639.969C1716.25 616.713 1720.56 591.735 1724.01 565.895C1727.45 540.055 1729.18 515.076 1732.62 489.236C1734.35 478.039 1737.79 466.841 1740.38 455.644C1719.7 456.505 1700.74 449.615 1680.93 443.585C1657.66 436.695 1635.26 430.665 1612 424.636C1609.42 423.775 1607.69 423.775 1604.25 423.775C1605.11 428.943 1605.97 432.388 1606.83 436.695C1607.69 438.417 1609.42 440.14 1611.14 441.001C1644.74 450.476 1677.48 460.812 1711.08 470.287C1716.25 472.009 1717.98 473.732 1717.11 479.761C1714.53 506.463 1711.94 533.164 1708.5 559.004C1702.47 608.961 1687.82 656.335 1646.46 690.788ZM691.833 1646.01C690.11 1646.87 689.248 1647.73 689.248 1647.73C665.124 1676.15 633.245 1691.66 597.059 1701.13C557.426 1710.61 516.932 1710.61 477.299 1715.77C472.991 1716.64 472.13 1714.05 471.268 1710.61C461.791 1677.01 451.452 1643.42 441.974 1609.83C441.113 1608.11 440.251 1605.52 438.528 1605.52C434.22 1603.8 429.05 1603.8 423.881 1602.94C425.604 1612.41 427.327 1620.17 429.912 1627.92C437.666 1654.62 445.421 1680.46 453.175 1706.3C455.759 1716.64 456.621 1727.83 458.344 1738.17C466.098 1735.58 474.714 1733 482.468 1732.14C510.901 1728.69 539.333 1726.11 567.765 1722.66C606.536 1717.5 644.446 1708.02 674.601 1678.74C675.463 1677.88 678.047 1677.01 678.909 1677.01C679.771 1677.88 680.632 1679.6 680.632 1681.32C681.494 1688.21 681.494 1695.96 683.217 1702.85C689.248 1735.58 707.341 1763.15 727.158 1788.99C748.697 1817.41 776.268 1842.39 790.914 1876.84C804.7 1862.2 822.793 1852.73 840.025 1843.25C859.841 1832.05 879.657 1820.86 899.474 1810.52C902.92 1808.8 906.366 1805.35 910.674 1802.77C906.366 1800.18 902.92 1797.6 899.474 1795.88C897.751 1795.02 895.166 1795.02 893.443 1795.88C865.01 1811.38 836.578 1826.89 809.008 1842.39C796.084 1849.28 796.946 1849.28 787.468 1838.08C769.375 1815.69 751.282 1794.15 734.05 1771.76C713.372 1744.2 697.002 1714.05 692.694 1678.74C690.971 1669.26 691.833 1658.06 691.833 1646.01ZM293.782 689.927C293.782 689.927 293.782 689.065 292.921 689.065C265.35 665.809 250.703 635.663 241.226 602.071C230.887 560.727 230.025 518.521 225.717 477.177C225.717 475.455 228.302 472.871 230.025 472.009C263.627 461.673 297.229 452.199 330.83 442.724C332.553 441.863 335.138 441.001 336 439.279C337.723 434.972 337.723 430.665 338.584 425.497C333.415 426.359 329.107 427.22 325.661 428.081C284.305 435.833 245.534 456.505 203.316 458.228C205.901 473.732 209.347 489.236 211.932 504.74C215.378 531.441 217.963 559.004 221.409 585.705C226.579 619.297 237.78 650.305 261.904 675.284C262.765 676.145 263.627 678.729 263.627 679.591C262.765 680.452 261.042 681.313 259.319 682.175C248.118 683.897 236.056 684.759 225.717 687.343C195.562 695.095 170.576 713.183 145.59 732.132C118.881 752.804 95.6187 777.783 63.7402 791.564C95.6187 826.878 108.542 873.391 136.975 911.289C139.559 907.844 142.144 904.398 143.867 900.953C144.729 899.23 144.729 895.785 143.867 894.062C127.497 863.055 110.266 832.046 93.0339 801.9C92.1723 800.177 93.0339 796.732 94.7571 795.009C117.158 776.06 139.559 757.972 162.822 739.884C187.808 720.073 214.517 703.708 246.395 697.679C261.904 691.649 278.274 691.649 293.782 689.927ZM1604.25 1517.67C1605.97 1517.67 1606.83 1517.67 1608.55 1517.67C1627.51 1512.5 1647.33 1507.33 1666.28 1502.16C1690.4 1495.27 1713.67 1485.8 1739.52 1485.8C1740.38 1484.94 1740.38 1485.8 1739.52 1485.8C1736.93 1470.29 1733.48 1456.51 1730.9 1441.87C1727.45 1417.75 1725.73 1392.77 1722.28 1368.66C1717.11 1331.62 1706.77 1296.3 1679.2 1268.74C1678.34 1267.88 1677.48 1265.3 1677.48 1264.44C1678.34 1263.57 1680.07 1262.71 1681.79 1262.71C1704.19 1261.85 1724.87 1255.82 1744.68 1245.49C1770.53 1232.57 1792.07 1214.48 1814.47 1196.39C1830.84 1182.61 1848.07 1170.55 1865.31 1157.63C1868.75 1155.05 1873.06 1153.32 1875.64 1152.46C1867.03 1138.68 1857.55 1125.76 1849.8 1111.98C1836.01 1088.72 1823.95 1064.61 1810.16 1041.35C1808.44 1037.9 1805.86 1035.32 1803.27 1031.01C1800.69 1035.32 1798.1 1038.77 1795.52 1042.21C1794.66 1043.93 1794.66 1046.52 1795.52 1048.24C1810.16 1075.8 1825.67 1103.37 1841.18 1130.93C1848.94 1145.57 1848.94 1145.57 1836.01 1155.91C1812.75 1174.86 1790.35 1193.81 1766.22 1211.89C1731.76 1237.73 1692.99 1253.24 1649.05 1249.79C1648.19 1249.79 1647.33 1249.79 1646.46 1250.65C1647.33 1251.52 1648.19 1252.38 1649.05 1253.24C1673.17 1273.91 1687.82 1300.61 1697.3 1330.76C1710.22 1374.69 1710.22 1420.34 1716.25 1465.13C1716.25 1466.85 1714.53 1469.43 1712.81 1470.29C1681.79 1479.77 1651.63 1489.24 1620.62 1497.86C1605.97 1501.3 1605.97 1501.3 1604.25 1517.67ZM136.113 1031.88C130.082 1042.21 124.051 1051.69 118.02 1062.02C99.9266 1092.17 88.726 1125.76 63.7402 1151.6C90.4492 1161.94 109.404 1182.61 130.943 1198.97C148.175 1211.89 165.407 1225.68 183.5 1236.87C206.763 1252.38 231.748 1260.99 260.181 1261.85C261.904 1261.85 263.627 1262.71 265.35 1263.57C264.489 1265.3 264.489 1267.88 262.765 1268.74C248.98 1283.38 238.641 1299.75 232.61 1319.56C227.441 1336.79 223.133 1354.88 219.686 1372.96C212.794 1410 216.24 1448.76 202.455 1484.94C211.932 1485.8 220.548 1486.66 230.025 1488.38C258.457 1496.13 286.028 1504.75 314.46 1512.5C322.214 1515.08 330.83 1515.94 339.446 1518.53C338.584 1513.36 338.584 1509.05 336.861 1505.61C336 1503.89 334.277 1501.3 331.692 1500.44C298.09 1490.97 265.35 1480.63 231.748 1471.16C227.441 1470.29 225.717 1467.71 226.579 1463.4C227.441 1453.93 228.302 1444.45 230.025 1434.98C233.472 1406.56 236.056 1378.13 241.226 1349.71C248.118 1311.81 265.35 1279.08 294.644 1253.24V1252.38C281.72 1251.52 267.935 1251.52 255.011 1248.93C224.856 1244.62 199.008 1230.84 174.884 1212.76C147.314 1192.08 121.466 1170.55 95.6187 1149.02C93.8955 1148.16 93.8955 1143.85 94.7571 1142.13C110.266 1113.7 124.912 1085.28 140.421 1057.72C147.313 1044.8 148.175 1044.8 138.698 1033.6C137.836 1032.74 137.836 1032.74 136.113 1031.88ZM1518.95 338.503C1515.5 324.721 1512.92 312.663 1509.47 299.743C1502.58 276.487 1495.69 252.37 1488.8 229.114C1486.21 220.5 1486.21 211.026 1485.35 202.412C1476.73 204.996 1468.12 208.442 1459.5 209.303C1431.07 212.748 1402.64 215.332 1374.2 218.778C1335.43 223.946 1298.39 233.42 1269.09 261.844C1268.23 262.706 1265.65 262.706 1263.92 263.567C1263.06 261.844 1262.2 260.122 1262.2 258.399C1261.34 251.508 1261.34 244.618 1259.61 237.727C1254.45 211.026 1241.52 187.77 1226.87 165.375C1203.61 130.06 1170.01 102.498 1151.92 62.8764C1116.59 94.7457 1070.07 107.666 1032.16 136.09C1034.74 137.812 1037.33 139.535 1039.91 141.258C1044.22 145.564 1047.67 143.842 1052.84 141.258C1082.99 124.892 1113.15 108.527 1143.3 92.1617C1145.02 91.3004 1148.47 92.1617 1149.33 93.023C1171.73 120.586 1195 148.148 1215.67 176.572C1234.63 201.551 1247.55 229.975 1250.14 261.844C1251 272.18 1250.14 282.516 1250.14 291.991C1251.86 291.991 1251.86 291.991 1251.86 291.991C1252.72 291.13 1253.58 291.13 1253.58 290.268C1273.4 267.874 1297.52 253.231 1325.96 243.756C1370.76 229.114 1418.15 229.114 1464.67 223.946C1466.39 223.946 1468.98 225.668 1469.84 227.391C1479.32 258.399 1488.8 288.546 1497.41 319.553C1502.58 336.78 1501.72 336.78 1518.95 338.503Z" fill="#FFB61F"/>
<path fill-rule="evenodd" clip-rule="evenodd" d="M1452.62 970.721C1475.88 984.503 1495.69 1000.01 1512.93 1018.96C1546.53 1055.99 1567.21 1099.06 1568.07 1149.88C1568.93 1210.17 1541.36 1256.68 1491.39 1288.55C1454.34 1312.67 1412.12 1321.28 1368.18 1319.56C1349.23 1318.7 1331.13 1315.25 1311.32 1312.67C1312.18 1318.7 1313.9 1325.59 1315.62 1332.48C1324.24 1383.3 1319.93 1432.4 1295.81 1478.05C1254.45 1556.43 1170.88 1587.44 1088.17 1555.57C1040.78 1537.48 1005.46 1505.61 977.885 1464.27C975.3 1460.82 973.577 1457.37 970.992 1453.93C970.992 1453.93 970.131 1453.07 969.269 1452.21C965.823 1458.24 962.376 1463.4 958.068 1468.57C925.328 1515.95 883.111 1549.54 826.247 1562.46C742.673 1582.27 665.131 1539.2 634.114 1457.37C616.882 1411.72 615.159 1365.21 626.36 1317.84C627.221 1315.25 627.221 1313.53 628.083 1310.09C617.744 1311.81 608.267 1314.39 597.928 1315.25C538.479 1323.01 482.476 1314.39 434.227 1277.36C375.64 1232.57 355.823 1160.21 382.532 1089.59C400.626 1039.63 434.227 1002.59 479.03 975.028C481.614 973.305 484.199 971.583 487.645 969.86C479.03 963.831 471.275 958.663 463.521 953.495C420.442 921.626 389.425 881.143 377.363 828.602C357.547 745.052 399.764 666.671 481.614 635.663C527.278 618.436 574.665 616.714 622.052 627.911C624.637 628.772 626.36 628.772 628.945 629.634C626.36 616.714 623.775 603.794 622.052 591.735C616.021 527.996 628.083 470.287 672.885 422.052C705.625 386.738 746.981 371.234 795.23 372.956C844.34 374.679 885.696 396.212 921.882 428.943C939.114 444.447 953.761 463.396 965.823 483.207C966.684 484.93 967.546 486.652 969.269 488.375C970.992 485.791 972.715 483.207 973.577 481.484C1004.59 432.388 1045.95 396.212 1101.95 379.847C1181.22 356.591 1257.9 390.183 1294.95 464.258C1319.93 514.215 1323.38 567.618 1311.32 621.882C1310.46 624.466 1310.46 627.05 1309.59 630.495C1316.49 628.772 1323.38 627.911 1330.27 626.188C1381.97 616.714 1432.8 621.02 1479.32 646.86C1556.87 689.066 1587.02 773.476 1553.42 857.026C1535.33 902.676 1503.45 937.991 1462.09 964.692C1460.37 966.415 1456.92 968.137 1452.62 970.721ZM1376.8 1314.39C1410.4 1314.39 1435.38 1309.23 1463.82 1298.03C1541.36 1266.16 1580.13 1187.78 1557.73 1108.53C1541.36 1049.96 1502.59 1007.76 1450.89 976.751C1448.31 975.028 1446.58 973.305 1444.86 970.721C1446.58 968.999 1448.31 967.276 1450.89 965.553C1487.94 944.02 1518.1 915.596 1539.64 877.698C1559.45 841.522 1568.93 803.623 1562.04 763.14C1552.56 708.015 1519.82 670.978 1470.71 646.86C1420.74 622.743 1369.04 621.882 1315.62 635.663C1313.04 636.524 1309.59 636.524 1306.15 636.524C1306.15 633.079 1306.15 630.495 1307.01 627.05C1319.07 580.538 1319.07 534.026 1302.7 488.375C1269.1 396.212 1178.63 354.869 1087.31 391.906C1038.2 411.716 1002.87 447.031 976.162 491.82C975.3 493.543 972.715 495.266 970.992 496.988C969.269 495.266 967.546 493.543 965.823 491.82C946.006 458.228 921.02 429.804 888.28 409.132C852.956 385.876 814.184 374.679 771.967 378.986C719.411 385.015 680.639 413.439 653.93 458.228C623.775 511.631 620.329 568.479 635.837 627.911C636.699 630.495 636.699 633.94 636.699 636.524C634.114 636.524 630.668 636.524 628.083 635.663C572.942 621.02 518.662 623.604 466.967 649.444C395.456 685.62 363.578 760.556 385.979 837.215C403.21 894.924 441.12 936.268 491.953 966.415C493.676 967.276 495.4 969.86 497.984 970.721C496.261 972.444 494.538 975.028 491.953 975.889C456.628 996.561 426.473 1024.12 405.795 1059.44C383.394 1097.34 373.055 1137.82 381.671 1180.89C392.871 1238.6 429.058 1276.49 481.614 1298.89C529.863 1319.56 579.834 1318.7 630.668 1305.78C637.56 1304.06 638.422 1304.92 636.699 1311.81C628.083 1344.54 624.637 1377.27 629.806 1410C635.837 1450.48 650.484 1486.66 679.778 1515.95C726.303 1563.32 782.306 1573.65 844.34 1553.84C898.619 1536.62 937.391 1499.58 965.823 1451.35C967.546 1448.76 970.131 1447.04 971.854 1444.45C973.577 1447.04 976.162 1448.76 977.023 1451.35C995.978 1484.08 1020.96 1511.64 1052.84 1532.31C1094.2 1559.01 1138.14 1571.07 1187.25 1559.87C1239.81 1548.68 1275.13 1515.08 1296.67 1467.71C1319.93 1417.75 1319.93 1366.07 1306.15 1313.53C1305.29 1310.95 1306.15 1309.23 1306.15 1306.64C1308.73 1306.64 1310.46 1306.64 1313.04 1306.64C1334.58 1311.81 1356.12 1315.25 1376.8 1314.39Z" fill="#FEB71F"/>
<path fill-rule="evenodd" clip-rule="evenodd" d="M1432.79 970.72C1425.04 979.333 1418.14 987.946 1411.25 995.698C1425.9 1007.76 1440.55 1018.09 1453.47 1030.15C1481.9 1056.85 1501.72 1088.72 1507.75 1128.34C1514.64 1180.02 1491.38 1225.67 1443.99 1249.79C1408.67 1267.88 1370.76 1272.19 1331.13 1267.88C1321.65 1267.02 1312.17 1265.3 1300.97 1263.57C1300.11 1273.05 1299.25 1282.52 1300.11 1292C1300.11 1298.03 1299.25 1298.03 1294.08 1298.03C1284.6 1298.03 1275.12 1298.89 1264.78 1298.89C1266.51 1310.08 1268.23 1320.42 1269.95 1329.9C1274.26 1367.79 1270.81 1405.69 1253.58 1440.15C1221.7 1503.02 1154.5 1525.42 1089.02 1493.55C1052.83 1476.32 1025.26 1448.76 1002.86 1416.03C1002 1414.31 1000.28 1412.58 998.555 1409.14C989.939 1416.89 981.323 1424.64 973.569 1431.53C965.815 1424.64 957.199 1416.89 947.722 1408.28C945.137 1411.72 943.414 1414.31 941.691 1416.89C918.428 1451.34 889.134 1479.77 849.501 1496.13C807.284 1513.36 765.928 1512.5 728.019 1483.21C699.586 1461.68 685.801 1431.53 678.047 1397.08C671.154 1365.21 673.739 1334.2 679.77 1302.33C679.77 1301.47 679.77 1300.61 680.632 1298.03C670.293 1298.03 660.815 1296.3 651.338 1297.16C646.168 1297.16 646.168 1296.3 646.168 1292C646.168 1282.52 645.307 1272.19 644.445 1262.71C626.352 1264.43 610.844 1267.02 594.474 1267.88C556.564 1269.6 520.378 1262.71 488.499 1241.18C440.251 1209.31 423.019 1155.05 443.697 1099.06C458.344 1057.71 487.638 1027.57 522.962 1002.59C526.409 1000.01 528.993 998.282 534.163 994.837C527.27 987.085 521.239 980.194 514.347 973.304C510.9 969.858 510.9 968.997 514.347 965.552C521.239 958.661 528.132 950.909 534.163 944.88C518.654 932.821 504.008 921.624 491.084 909.565C463.513 883.725 443.697 852.717 438.527 814.819C429.912 760.555 454.036 714.904 503.146 689.925C534.163 673.56 567.765 669.253 603.089 671.837C616.875 672.699 629.798 675.283 645.307 677.005C646.168 666.669 647.03 655.472 647.892 644.275C658.231 643.413 670.293 642.552 679.77 641.691C678.047 616.712 675.462 594.317 676.324 571.061C676.324 543.499 684.078 517.659 697.863 493.541C727.157 442.723 779.713 421.189 835.716 437.555C878.795 450.475 910.674 478.037 936.521 512.491C940.829 517.659 944.275 523.688 948.583 530.579C955.476 523.688 963.23 518.52 969.261 511.629C973.569 507.323 974.431 507.323 978.739 511.629C984.77 518.52 992.524 524.549 1000.28 531.44C1003.72 526.272 1006.31 521.965 1008.89 518.52C1032.16 485.789 1060.59 458.227 1099.36 443.584C1141.58 427.219 1182.93 428.08 1219.98 457.365C1248.41 479.76 1262.2 509.907 1269.09 544.36C1275.12 575.368 1273.4 605.515 1267.37 636.523C1267.37 638.245 1267.37 639.107 1266.51 641.691C1277.71 642.552 1288.91 643.413 1300.11 643.413C1300.97 654.611 1301.83 665.808 1302.69 677.005C1320.79 675.283 1337.16 672.699 1353.53 671.837C1387.13 670.115 1419.87 676.144 1449.16 692.509C1505.16 723.517 1525.84 782.088 1502.58 843.243C1487.93 882.003 1460.36 911.288 1427.62 935.405C1424.18 937.989 1419.87 940.573 1416.42 943.157C1416.42 943.157 1415.56 944.018 1414.7 945.741C1418.14 953.493 1425.04 962.106 1432.79 970.72ZM667.708 1094.75C667.708 1095.61 668.57 1095.61 668.57 1096.47C666.846 1098.2 665.123 1100.78 663.4 1102.5C649.615 1112.84 640.137 1127.48 635.829 1144.71C631.522 1162.8 630.66 1180.89 634.106 1199.83C637.553 1221.37 643.584 1242.9 647.03 1264.43C648.753 1273.91 649.615 1283.38 650.476 1291.14C665.985 1293.72 680.632 1296.3 695.279 1299.75C719.403 1304.92 743.527 1310.95 768.513 1310.08C797.807 1309.22 823.654 1301.47 840.886 1275.63C841.747 1274.77 842.609 1273.91 844.332 1272.19C845.194 1274.77 846.055 1277.35 846.055 1279.08C841.747 1304.92 850.363 1326.45 865.871 1345.4C879.657 1361.76 896.888 1374.68 914.982 1386.74C933.936 1398.8 954.614 1408.28 969.261 1423.78C983.046 1414.31 996.832 1405.69 1009.76 1396.22C1027.85 1383.3 1045.94 1372.1 1062.31 1357.46C1085.57 1336.79 1100.22 1311.81 1094.19 1279.08C1094.19 1277.35 1095.05 1275.63 1095.05 1273.91C1096.78 1274.77 1099.36 1275.63 1100.22 1277.35C1113.15 1294.58 1130.38 1304.06 1151.92 1307.5C1170.01 1310.08 1188.1 1310.08 1205.33 1306.64C1233.77 1301.47 1262.2 1295.44 1290.63 1289.41C1292.35 1279.08 1294.08 1268.74 1295.8 1257.54C1300.11 1232.56 1306.14 1207.59 1308.72 1182.61C1311.31 1150.74 1304.42 1121.45 1275.12 1100.78C1274.26 1099.92 1273.4 1098.2 1273.4 1096.47C1275.12 1095.61 1276.85 1094.75 1278.57 1094.75C1305.28 1099.92 1326.82 1089.58 1346.63 1072.36C1362.14 1058.58 1374.2 1042.21 1385.4 1025.85C1397.47 1006.9 1406.94 986.224 1422.45 971.581C1412.11 956.939 1403.5 942.296 1393.16 928.514C1381.1 911.288 1369.03 894.061 1355.25 877.696C1341.46 861.331 1323.37 849.272 1301.83 846.688C1293.22 845.827 1283.74 846.688 1272.54 846.688C1274.26 844.104 1275.98 841.52 1277.71 839.797C1292.35 828.6 1301.83 813.957 1306.14 795.869C1311.31 776.059 1310.45 755.387 1307 735.576C1301.83 707.152 1295.8 678.728 1289.77 650.304C1282.88 649.443 1274.26 648.581 1265.64 647.72C1237.21 642.552 1209.64 636.523 1181.21 633.077C1156.22 630.493 1132.1 635.661 1112.28 653.749C1107.98 657.195 1104.53 662.363 1101.08 666.669C1100.22 667.531 1098.5 668.392 1096.78 668.392C1095.91 666.669 1095.05 665.808 1095.05 664.085C1095.05 660.64 1095.91 658.056 1095.91 654.611C1097.64 631.355 1088.16 612.405 1072.65 595.179C1058 577.952 1039.91 565.893 1020.96 553.835C1003.72 542.637 986.493 531.44 968.4 519.381C966.676 521.104 963.23 525.411 958.922 527.995C945.137 537.469 930.49 546.083 917.566 555.557C902.058 566.755 885.688 578.813 871.903 591.733C852.086 611.544 840.886 635.661 846.055 664.947C846.055 665.808 846.055 667.531 845.194 670.115C841.747 667.531 840.024 665.808 838.301 664.085C828.824 652.027 816.761 643.413 802.115 638.245C787.468 633.077 771.098 631.355 755.589 633.077C734.911 635.661 714.233 639.968 693.555 643.413C678.047 645.997 663.4 649.443 647.892 652.027C647.03 659.779 646.168 667.531 645.307 676.144C640.137 703.707 634.106 731.269 630.66 759.693C627.214 791.563 634.968 820.848 663.4 841.52C664.262 842.381 665.123 844.104 665.985 845.827C664.262 846.688 662.538 847.549 660.815 847.549C633.245 842.381 610.844 852.717 591.027 870.805C575.519 884.586 564.318 900.952 553.118 917.317C541.056 936.266 531.578 956.077 515.208 971.581C518.654 975.888 522.962 979.333 525.547 982.778C535.025 996.56 543.64 1010.34 552.256 1024.12C565.18 1043.07 578.104 1062.02 596.197 1076.66C615.151 1091.31 634.968 1099.92 659.954 1095.61C664.262 1094.75 665.985 1094.75 667.708 1094.75ZM575.519 877.696C575.519 877.696 574.657 875.973 573.796 875.112C547.087 847.549 523.824 817.403 504.869 783.811C499.7 775.197 499.7 775.197 509.177 772.613C545.363 763.139 582.411 757.109 619.459 757.109C625.491 757.109 628.075 755.387 628.075 748.496C628.075 739.883 629.798 732.131 631.522 723.517C634.106 709.736 637.553 696.816 640.137 683.035C638.414 682.173 638.414 682.173 637.553 682.173C599.643 673.56 561.734 673.56 523.824 685.619C452.313 709.736 422.157 776.059 449.728 843.243C463.513 876.835 486.776 902.675 514.347 924.208C520.378 929.376 527.27 933.682 533.301 937.989C547.948 918.178 561.734 898.368 575.519 877.696ZM877.934 575.368C898.612 561.587 918.428 547.805 939.106 534.024C939.106 533.163 938.244 532.301 938.244 531.44C919.29 502.155 896.027 477.176 865.871 459.088C837.439 442.723 806.422 434.109 772.821 441C734.05 449.613 709.064 474.592 692.694 509.907C678.047 542.637 675.462 577.091 679.77 612.405C680.632 621.88 683.216 630.493 684.078 639.107C706.479 634.8 728.019 630.493 749.558 627.909C756.451 627.048 758.174 624.464 758.174 618.435C758.174 582.259 764.205 546.944 772.821 512.491C776.267 497.848 775.406 498.709 787.468 506.461C820.208 525.411 851.225 548.667 877.934 575.368ZM1064.04 575.368C1094.19 546.083 1127.79 520.243 1165.7 499.571C1167.42 503.877 1168.29 507.323 1169.15 510.768C1178.63 546.944 1183.79 583.981 1184.66 621.019C1184.66 626.187 1186.38 627.048 1191.55 627.909C1202.75 628.771 1213.95 630.493 1225.15 633.077C1236.35 634.8 1246.69 637.384 1257.89 639.968C1267.37 605.515 1268.23 557.28 1253.58 517.659C1229.46 454.781 1171.73 425.496 1108.84 445.307C1062.31 459.949 1029.57 492.68 1003.72 533.163V534.024C1023.54 547.805 1043.36 561.587 1064.04 575.368ZM1366.45 1063.74C1367.31 1064.61 1368.17 1065.47 1369.03 1067.19C1395.74 1094.75 1419.01 1125.76 1437.96 1159.35C1441.41 1166.24 1441.41 1166.24 1434.51 1168.83C1405.22 1176.58 1375.07 1181.75 1344.91 1183.47C1334.57 1184.33 1325.09 1184.33 1315.62 1185.19C1311.31 1210.17 1306.14 1233.43 1301.83 1258.4C1307.86 1259.27 1314.76 1260.99 1320.79 1261.85C1359.56 1267.88 1397.47 1265.3 1434.51 1248.07C1486.21 1223.95 1511.2 1176.58 1499.99 1120.59C1493.1 1084.42 1472.42 1055.99 1445.72 1031.01C1433.65 1020.68 1420.73 1011.2 1408.67 1000.87C1394.02 1023.26 1380.24 1043.07 1366.45 1063.74ZM625.49 1184.33C622.906 1184.33 620.321 1184.33 617.736 1184.33C579.827 1183.47 542.779 1177.44 505.731 1167.97C499.7 1166.24 498.838 1164.52 502.284 1159.35C513.485 1142.13 524.686 1124.9 536.748 1108.53C548.81 1092.17 562.595 1077.53 574.657 1062.88C560.872 1043.07 547.087 1023.26 533.301 1002.59C532.44 1002.59 531.578 1003.45 530.717 1003.45C495.392 1026.71 466.098 1055.13 449.728 1094.75C423.019 1156.77 446.282 1217.92 506.592 1247.21C539.332 1262.71 574.657 1266.16 609.982 1261.85C619.459 1260.99 629.798 1258.4 639.276 1257.54C634.968 1232.56 630.66 1209.31 625.49 1184.33ZM684.94 1302.33C684.94 1303.19 684.078 1304.06 684.078 1304.92C674.601 1346.26 674.601 1387.6 690.971 1427.23C705.617 1462.54 728.88 1489.24 767.651 1499.58C802.976 1509.05 834.855 1501.3 865.871 1483.21C897.75 1465.12 921.013 1439.28 940.829 1408.28C920.151 1394.5 899.473 1380.71 879.657 1366.93C878.795 1367.79 877.934 1368.66 877.072 1369.52C849.501 1396.22 819.346 1419.47 785.744 1438.42C777.129 1443.59 777.129 1443.59 774.544 1434.12C765.067 1397.08 759.035 1360.04 759.035 1322.14C759.035 1316.98 758.174 1315.25 752.143 1315.25C746.973 1315.25 740.942 1314.39 735.773 1313.53C718.541 1309.22 702.171 1304.92 684.94 1302.33ZM1257.89 1301.47C1255.31 1301.47 1254.44 1302.33 1252.72 1302.33C1232.04 1306.64 1212.23 1310.95 1191.55 1313.53C1186.38 1314.39 1184.66 1316.11 1184.66 1321.28C1183.79 1359.18 1178.63 1396.22 1169.15 1433.26C1166.56 1441.87 1166.56 1442.73 1158.81 1437.56C1139.85 1424.64 1120.04 1412.58 1101.94 1398.8C1088.16 1388.47 1076.1 1377.27 1064.04 1366.07C1043.36 1379.85 1023.54 1393.63 1002.86 1407.42C1027.85 1447.04 1059.73 1478.91 1104.53 1494.41C1161.39 1514.22 1215.67 1493.55 1244.11 1441.01C1257.89 1416.03 1263.92 1388.47 1263.92 1360.04C1264.78 1341.09 1263.06 1321.28 1257.89 1301.47ZM1407.81 938.85C1408.67 938.85 1409.53 937.989 1410.39 937.128C1437.1 919.901 1460.36 898.368 1477.59 871.667C1491.38 850.133 1500.86 827.739 1501.72 801.899C1504.3 755.387 1482.76 720.933 1443.13 697.677C1406.94 677.005 1368.17 673.56 1328.54 678.728C1319.92 679.589 1310.45 681.312 1301.83 683.035C1302.69 685.619 1302.69 687.341 1302.69 688.203C1306.14 708.013 1311.31 726.963 1313.89 746.773C1314.76 753.664 1316.48 756.248 1324.23 756.248C1362.14 756.248 1398.33 762.277 1434.51 771.752C1442.27 773.475 1443.13 775.197 1438.82 781.227C1423.31 803.621 1408.67 826.016 1392.3 847.549C1384.54 857.885 1375.07 867.36 1366.45 876.835C1380.24 898.368 1394.02 919.04 1407.81 938.85Z" fill="#FC8A0D"/>
<path fill-rule="evenodd" clip-rule="evenodd" d="M1228.6 1077.53C1230.33 1080.11 1231.19 1081.83 1232.91 1084.42C1252.73 1115.43 1262.21 1148.16 1252.73 1185.19C1243.25 1223.95 1211.37 1251.52 1171.74 1255.82C1140.72 1259.27 1112.29 1250.65 1086.44 1234.29C1083.86 1232.57 1081.27 1230.84 1077.83 1229.12C1075.24 1237.73 1073.52 1246.35 1070.94 1254.1C1062.32 1281.66 1045.95 1304.06 1021.83 1320.42C979.608 1347.99 926.19 1337.65 893.45 1296.31C877.941 1276.49 869.326 1254.1 865.018 1229.12C862.433 1230.84 860.71 1231.71 858.125 1233.43C835.724 1248.93 810.738 1257.55 783.168 1257.55C722.857 1257.55 679.778 1207.59 686.671 1148.16C689.255 1124.9 697.01 1104.23 709.933 1085.28C710.795 1083.56 711.656 1082.69 712.518 1080.97C712.518 1080.97 712.518 1080.11 712.518 1079.25C704.764 1076.67 696.148 1075.8 688.394 1072.36C655.654 1062.02 629.806 1042.21 615.159 1011.2C596.205 969.86 609.128 924.209 647.038 894.063C665.131 879.42 685.809 870.807 709.072 866.5C709.933 866.5 711.656 865.639 713.38 865.639C709.072 858.748 705.625 852.719 702.179 846.69C687.532 818.266 681.501 788.119 690.117 757.111C699.594 720.935 730.611 694.234 767.659 689.066C799.538 684.759 828.831 693.372 855.54 710.599C858.125 712.322 860.71 714.044 863.295 715.767C865.879 705.431 868.464 695.956 871.91 686.482C880.526 663.226 893.45 643.415 913.266 628.772C957.207 596.903 1012.35 604.655 1047.67 647.722C1061.46 664.948 1070.94 684.759 1075.24 706.292C1076.11 708.876 1076.11 712.322 1076.97 715.767C1079.55 714.044 1082.14 712.322 1084.72 710.599C1107.98 695.956 1132.97 687.343 1160.54 688.204C1215.68 689.927 1250.14 726.964 1254.45 774.338C1257.04 805.346 1248.42 833.77 1231.19 859.61C1230.33 861.332 1229.47 863.055 1227.74 863.916V864.777C1239.81 868.223 1251.87 871.668 1263.93 875.975C1288.92 886.311 1309.59 902.676 1322.52 927.655C1344.06 967.276 1334.58 1014.65 1299.25 1045.66C1279.44 1062.88 1257.04 1072.36 1231.19 1077.53C1231.19 1076.67 1230.33 1076.67 1228.6 1077.53ZM690.978 1157.63C691.84 1162.8 691.84 1167.97 692.702 1173.13C699.594 1221.37 737.504 1251.52 786.614 1250.65C814.185 1249.79 839.17 1239.46 861.571 1223.09C868.464 1217.92 869.326 1217.92 871.049 1226.54C874.495 1251.52 883.973 1273.05 899.481 1292.86C932.221 1332.48 983.916 1340.23 1023.55 1310.95C1051.98 1290.28 1065.77 1261.85 1071.8 1228.26C1073.52 1217.92 1073.52 1217.92 1083 1223.95C1108.85 1242.9 1138.14 1253.24 1170.02 1248.93C1219.99 1243.76 1251.87 1205 1251.01 1155.05C1250.14 1127.48 1239.81 1102.51 1223.44 1080.11C1218.27 1073.22 1219.13 1072.36 1227.74 1070.64C1254.45 1066.33 1278.58 1055.99 1299.25 1037.04C1337.16 1002.59 1340.61 947.465 1306.15 908.705C1285.47 886.311 1259.62 873.391 1230.33 869.084C1219.13 867.361 1219.13 867.361 1225.16 857.887C1243.25 832.047 1253.59 803.623 1250.14 770.892C1244.97 719.212 1203.62 687.343 1152.79 689.927C1126.08 691.65 1102.81 701.124 1081.27 716.628C1074.38 721.796 1072.66 721.796 1071.8 712.322C1067.49 684.759 1057.15 660.642 1038.2 640.831C1002.87 602.932 945.145 601.21 908.097 637.386C886.557 658.058 875.357 683.898 871.049 712.322C869.326 721.796 869.326 721.796 861.571 716.628C840.032 701.124 816.769 690.788 790.06 689.927C753.874 688.204 723.719 701.124 704.764 732.994C685.809 765.724 688.394 800.178 703.902 833.77C708.21 843.244 714.241 851.857 720.272 860.471C722.857 863.916 722.857 866.5 717.688 867.361C715.964 867.361 715.103 868.223 713.38 868.223C685.809 872.53 660.823 883.727 641.007 903.537C609.128 936.268 603.097 981.057 628.945 1018.96C649.623 1048.24 678.916 1062.88 713.38 1068.91C722.857 1070.64 723.719 1071.5 717.688 1079.25C702.179 1104.23 692.702 1129.21 690.978 1157.63Z" fill="#FEB71F"/>
<path fill-rule="evenodd" clip-rule="evenodd" d="M1058 1179.16C1056.28 1192.94 1054.56 1206.73 1051.97 1220.51C1047.66 1238.59 1039.91 1255.82 1027.85 1270.46C993.384 1310.95 939.966 1308.36 909.81 1264.43C895.163 1243.76 888.271 1220.51 886.548 1196.39C886.548 1191.22 885.686 1185.19 885.686 1179.16C879.655 1184.33 875.347 1188.64 870.178 1192.94C846.915 1211.03 821.929 1223.95 791.774 1223.95C742.664 1223.95 713.37 1186.91 720.262 1138.68C723.709 1111.98 736.633 1088.72 754.726 1068.05C757.31 1065.47 759.895 1062.02 762.48 1059.44C762.48 1059.44 762.48 1058.58 762.48 1057.72C753.864 1056.85 745.248 1056.85 736.633 1055.13C713.37 1051.69 691.83 1043.93 672.876 1029.29C631.52 995.699 634.104 941.435 678.045 910.427C698.723 895.784 721.986 888.894 746.11 887.171C751.279 886.31 757.31 886.31 763.342 885.449C758.172 879.419 753.003 874.251 748.695 869.083C729.74 844.966 717.678 818.265 719.401 786.395C721.124 748.497 748.695 720.934 786.604 720.073C821.929 719.211 850.361 733.854 876.209 756.249C878.793 758.833 881.378 760.555 883.963 763.139C883.963 763.139 883.963 763.139 884.824 763.139C886.548 751.081 887.409 739.022 889.132 727.825C893.44 706.291 902.056 686.481 917.565 669.254C948.581 634.801 995.107 635.662 1026.12 670.115C1045.94 692.51 1054.56 719.211 1056.28 748.497C1056.28 752.803 1057.14 757.971 1057.14 762.278C1057.14 762.278 1057.14 762.278 1058 763.139C1059.73 762.278 1060.59 761.417 1062.31 760.555C1083.85 739.883 1107.97 725.241 1138.13 720.934C1195.86 713.182 1229.46 753.665 1223.43 803.622C1219.98 833.769 1204.47 858.747 1184.65 880.28C1182.93 882.003 1182.07 882.865 1180.35 885.449C1193.27 887.171 1205.33 888.033 1216.53 890.617C1242.38 895.785 1264.78 906.12 1282.01 926.792C1306.14 954.355 1306.14 990.531 1282.01 1018.09C1262.2 1041.35 1236.35 1051.69 1207.06 1055.99C1198.44 1057.72 1189.82 1057.72 1179.48 1058.58C1184.65 1064.61 1189.82 1069.77 1194.13 1074.94C1212.23 1097.34 1224.29 1123.18 1224.29 1152.46C1224.29 1201.56 1186.38 1228.26 1141.58 1223.09C1113.14 1219.65 1089.02 1206.73 1067.48 1187.78C1064.03 1184.33 1061.45 1181.75 1058 1179.16ZM757.31 1050.82C761.618 1050.82 765.926 1050.82 769.373 1050.82C771.096 1050.82 772.819 1051.69 773.681 1052.55C773.681 1053.41 772.819 1055.13 771.957 1056.85C769.373 1059.44 766.788 1062.02 763.342 1065.47C743.525 1086.14 728.878 1110.26 724.57 1139.54C719.401 1172.27 735.771 1202.42 764.203 1213.62C782.296 1220.51 801.251 1219.65 819.344 1213.62C844.33 1205.86 865.008 1191.22 883.101 1172.27C884.824 1170.55 886.548 1170.55 888.271 1168.83C889.132 1170.55 889.132 1173.13 889.994 1174.86C891.717 1188.64 890.856 1202.42 894.302 1216.2C900.333 1242.9 912.395 1267.02 935.658 1283.38C948.581 1292 963.228 1296.3 979.598 1293.72C1003.72 1289.41 1020.09 1274.77 1032.15 1254.1C1045.94 1231.7 1050.25 1206.73 1050.25 1180.89C1050.25 1176.58 1051.11 1173.13 1051.97 1169.69C1055.42 1172.27 1058.86 1174 1061.45 1176.58C1083.85 1198.97 1109.7 1214.48 1141.58 1218.78C1176.9 1223.09 1208.78 1202.42 1215.67 1169.69C1219.98 1149.88 1216.53 1130.93 1208.78 1111.98C1200.16 1091.31 1187.24 1074.94 1170.87 1059.44C1169.15 1057.72 1169.15 1055.99 1168.28 1053.41C1170.01 1052.55 1171.73 1051.69 1173.45 1051.69C1183.79 1050.82 1194.99 1051.69 1205.33 1049.96C1233.76 1045.66 1258.75 1035.32 1277.71 1012.93C1298.38 987.947 1298.38 956.939 1278.57 931.96C1265.64 915.595 1249.27 906.12 1229.46 899.23C1211.36 893.201 1192.41 890.616 1173.45 891.478C1171.73 891.478 1170.01 890.617 1168.28 889.755C1169.15 888.033 1170.01 886.31 1170.87 885.449C1171.73 884.587 1172.59 883.726 1173.45 882.865C1196.72 860.47 1213.09 833.769 1217.39 801.038C1221.7 770.03 1205.33 740.745 1177.76 730.409C1162.25 724.379 1146.75 724.379 1131.24 727.825C1102.8 734.715 1080.4 749.358 1060.59 770.03C1058.86 771.753 1055.42 773.475 1052.83 775.198C1051.97 772.614 1051.11 770.03 1051.11 766.585C1051.11 736.438 1045.94 708.014 1028.71 683.035C1015.78 664.086 998.553 651.166 975.29 649.443C945.997 647.721 926.18 663.225 911.533 686.481C896.025 711.459 890.855 739.022 891.717 768.307C891.717 770.03 890.856 772.614 889.994 774.337C888.271 773.475 886.548 772.614 884.824 771.753C882.24 769.169 879.655 766.585 877.07 764.001C856.392 744.19 832.268 730.409 803.836 726.102C772.819 720.934 743.525 735.577 731.463 762.278C724.57 778.643 723.709 795.009 728.017 812.235C734.048 840.659 750.418 863.054 770.234 883.726C771.957 885.448 773.681 888.033 774.542 890.617C771.957 890.617 769.373 891.478 766.788 891.478C744.387 891.478 721.986 894.062 701.308 904.398C690.969 909.566 680.63 915.595 672.014 923.347C639.274 954.355 641.859 996.56 676.322 1024.12C699.585 1043.07 727.155 1049.96 757.31 1050.82Z" fill="#FEB71F"/>
<path fill-rule="evenodd" clip-rule="evenodd" d="M790.065 0C795.235 3.44533 799.543 8.61333 799.543 15.504C798.681 22.3947 793.512 27.5627 787.481 28.424C781.449 29.2853 774.557 25.84 771.972 20.672C769.387 14.6427 770.249 7.752 775.418 3.44533C776.28 2.584 778.865 2.584 779.726 0C783.173 0 786.619 0 790.065 0Z" fill="#FF74B2"/>
<path fill-rule="evenodd" clip-rule="evenodd" d="M1768.82 433.25C1768.82 425.498 1774.85 418.607 1782.6 418.607C1791.22 418.607 1797.25 424.636 1797.25 433.25C1797.25 441.863 1790.36 447.892 1782.6 447.892C1774.85 447.031 1768.82 441.002 1768.82 433.25Z" fill="#FF74B2"/>
<path fill-rule="evenodd" clip-rule="evenodd" d="M448.029 158.484C448.029 167.097 441.136 173.126 432.521 173.126C424.766 173.126 417.874 166.236 418.735 158.484C418.735 150.732 425.628 143.841 433.382 143.841C441.136 143.841 448.029 150.732 448.029 158.484Z" fill="#FF74B2"/>
<path fill-rule="evenodd" clip-rule="evenodd" d="M1164.87 31.0087C1156.25 31.0087 1150.22 24.9794 1150.22 17.2274C1150.22 8.61405 1156.25 2.58472 1164.87 2.58472C1172.62 2.58472 1179.52 9.47538 1179.52 17.2274C1179.52 24.118 1173.48 30.1474 1164.87 31.0087Z" fill="#FF74B2"/>
<path fill-rule="evenodd" clip-rule="evenodd" d="M162.84 411.717C170.594 411.717 177.487 417.746 177.487 425.498C177.487 433.25 170.594 441.002 161.978 440.141C154.224 440.141 147.331 433.25 147.331 425.498C149.054 417.746 155.085 411.717 162.84 411.717Z" fill="#FF74B2"/>
<path fill-rule="evenodd" clip-rule="evenodd" d="M1530.18 162.791C1530.18 170.543 1523.28 177.434 1515.53 177.434C1507.78 177.434 1500.88 170.543 1500.88 162.791C1500.88 155.039 1507.78 148.149 1516.39 148.149C1524.15 149.01 1530.18 155.039 1530.18 162.791Z" fill="#FF74B2"/>
</g>
<defs>
<clipPath id="clip0_519_5946">
<rect width="1942" height="669" fill="white"/>
</clipPath>
</defs>
</svg>
