<svg width="42" height="42" viewBox="0 0 42 42" fill="none" xmlns="http://www.w3.org/2000/svg">
<rect width="42" height="42" rx="21" fill="#FFF1DD" fill-opacity="0.9678"/>
<path d="M12.8643 25.455C12.0063 22.023 11.5773 20.308 12.4783 19.154C13.3793 18 15.1483 18 18.6853 18H23.3153C26.8533 18 28.6213 18 29.5223 19.154C30.4233 20.308 29.9943 22.024 29.1363 25.455C28.5903 27.638 28.3183 28.729 27.5043 29.365C26.6903 30 25.5653 30 23.3153 30H18.6853C16.4353 30 15.3103 30 14.4963 29.365C13.6823 28.729 13.4093 27.638 12.8643 25.455Z" stroke="#303030" stroke-width="2"/>
<path opacity="0.5" d="M28.5 18.5L27.79 15.895C27.516 14.89 27.379 14.388 27.098 14.009C26.8178 13.6325 26.4373 13.3424 26 13.172C25.56 13 25.04 13 24 13M13.5 18.5L14.21 15.895C14.484 14.89 14.621 14.388 14.902 14.009C15.1822 13.6325 15.5627 13.3424 16 13.172C16.44 13 16.96 13 18 13" stroke="#303030" stroke-width="2"/>
<path d="M18 13C18 12.7348 18.1054 12.4804 18.2929 12.2929C18.4804 12.1054 18.7348 12 19 12H23C23.2652 12 23.5196 12.1054 23.7071 12.2929C23.8946 12.4804 24 12.7348 24 13C24 13.2652 23.8946 13.5196 23.7071 13.7071C23.5196 13.8946 23.2652 14 23 14H19C18.7348 14 18.4804 13.8946 18.2929 13.7071C18.1054 13.5196 18 13.2652 18 13Z" stroke="#303030" stroke-width="2"/>
</svg>
